<svg width="428" height="299" viewBox="0 0 428 299" fill="none" xmlns="http://www.w3.org/2000/svg">
<path d="M104.244 255.376L103.328 254.874C102.353 254.342 101.969 253.101 102.531 252.096L106.785 244.322C107.316 243.347 108.557 242.962 109.562 243.524L110.891 244.263C111.098 244.381 111.157 244.618 111.039 244.795C110.92 245.002 110.684 245.061 110.507 244.943L109.177 244.204C108.587 243.879 107.819 244.086 107.494 244.706L103.21 252.48C102.885 253.071 103.092 253.839 103.712 254.165L104.628 254.667C105.219 254.992 105.987 254.785 106.312 254.165L109.148 248.992C109.266 248.785 109.502 248.726 109.68 248.844C109.886 248.962 109.946 249.199 109.827 249.376L106.991 254.549C106.489 255.554 105.248 255.909 104.244 255.376Z" fill="#C2C9CF"/>
<path d="M100.313 263.535L98.6584 262.619C97.1223 261.762 96.5905 259.752 97.5063 258.097L103.917 246.392C104.035 246.185 104.271 246.126 104.449 246.244C104.655 246.362 104.715 246.599 104.596 246.776L98.1858 258.481C97.5063 259.752 97.8608 261.289 99.013 261.91L100.667 262.826C101.819 263.447 103.326 262.944 104.006 261.673L111.302 248.343C111.982 247.072 111.627 245.535 110.475 244.914C110.268 244.796 110.209 244.559 110.327 244.382C110.446 244.175 110.682 244.116 110.859 244.234C112.395 245.091 112.927 247.101 112.011 248.757L104.715 262.087C103.828 263.713 101.849 264.392 100.313 263.535Z" fill="#C2C9CF"/>
<path d="M260.282 212.105H56.4443C51.4222 212.105 47.375 208.026 47.375 203.031V31.8337C47.375 26.809 51.4518 22.7596 56.4443 22.7596H260.312C265.334 22.7596 269.381 26.8385 269.381 31.8337V203.031C269.351 208.056 265.304 212.105 260.282 212.105Z" fill="#F7F7F7"/>
<path d="M269.355 43.775H47.3486V29.5283C47.3486 25.7745 50.3914 22.7596 54.1137 22.7596H262.56C266.312 22.7596 269.325 25.804 269.325 29.5283V43.775H269.355Z" fill="#516CC0"/>
<path d="M56.3271 33.1353C56.3271 31.746 57.4497 30.6229 58.8382 30.6229C60.2267 30.6229 61.3492 31.746 61.3492 33.1353C61.3492 34.5245 60.2267 35.6476 58.8382 35.6476C57.4497 35.6476 56.3271 34.5245 56.3271 33.1353Z" fill="#DDE7FE"/>
<path d="M66.8691 33.135C66.8691 31.7458 67.9917 30.6226 69.3802 30.6226C70.7686 30.6226 71.8912 31.7458 71.8912 33.135C71.8912 34.5242 70.7686 35.6474 69.3802 35.6474C67.9917 35.6474 66.8691 34.5242 66.8691 33.135Z" fill="#DDE7FE"/>
<path d="M77.4209 33.135C77.4209 31.7458 78.5435 30.6226 79.9319 30.6226C81.3204 30.6226 82.443 31.7458 82.443 33.135C82.443 34.5242 81.3204 35.6474 79.9319 35.6474C78.5435 35.6474 77.4209 34.5242 77.4209 33.135Z" fill="#DDE7FE"/>
<path d="M127.876 60.4449H64.9521V123.402H127.876V60.4449Z" fill="#E7EBEF"/>
<path d="M195.06 64.7883H144.987C143.687 64.7883 142.594 63.7242 142.594 62.3942C142.594 61.0936 143.657 60 144.987 60H195.03C196.33 60 197.423 61.0641 197.423 62.3942C197.423 63.7242 196.36 64.7883 195.06 64.7883Z" fill="#E7EBEF"/>
<path d="M254.909 64.7883H204.866C203.566 64.7883 202.473 63.7242 202.473 62.3942C202.473 61.0936 203.536 60 204.866 60H254.909C256.209 60 257.302 61.0641 257.302 62.3942C257.302 63.7242 256.239 64.7883 254.909 64.7883Z" fill="#E7EBEF"/>
<g opacity="0.3">
<path d="M204.953 83.4412H144.156C143.3 83.4412 142.62 82.7614 142.62 81.9042C142.62 81.0471 143.3 80.3672 144.156 80.3672H204.953C205.81 80.3672 206.489 81.0471 206.489 81.9042C206.489 82.7614 205.81 83.4412 204.953 83.4412Z" fill="#C4D3DF"/>
<path d="M228.083 83.4412H212.042C211.185 83.4412 210.506 82.7614 210.506 81.9042C210.506 81.0471 211.185 80.3672 212.042 80.3672H228.083C228.94 80.3672 229.619 81.0471 229.619 81.9042C229.619 82.7614 228.94 83.4412 228.083 83.4412Z" fill="#C4D3DF"/>
<path d="M167.11 93.0174H144.156C143.3 93.0174 142.62 92.3376 142.62 91.4804C142.62 90.6232 143.3 89.9434 144.156 89.9434H167.11C167.967 89.9434 168.646 90.6232 168.646 91.4804C168.646 92.3376 167.937 93.0174 167.11 93.0174Z" fill="#C4D3DF"/>
<path d="M204.276 93.0174H172.814C171.958 93.0174 171.278 92.3376 171.278 91.4804C171.278 90.6232 171.958 89.9434 172.814 89.9434H204.247C205.104 89.9434 205.783 90.6232 205.783 91.4804C205.813 92.3376 205.104 93.0174 204.276 93.0174Z" fill="#C4D3DF"/>
<path d="M228.083 93.0174H212.042C211.185 93.0174 210.506 92.3376 210.506 91.4804C210.506 90.6232 211.185 89.9434 212.042 89.9434H228.083C228.94 89.9434 229.619 90.6232 229.619 91.4804C229.619 92.3376 228.94 93.0174 228.083 93.0174Z" fill="#C4D3DF"/>
<path d="M175.293 101.295H144.156C143.3 101.295 142.62 100.615 142.62 99.7578C142.62 98.9006 143.3 98.2208 144.156 98.2208H175.293C176.15 98.2208 176.829 98.9006 176.829 99.7578C176.829 100.615 176.15 101.295 175.293 101.295Z" fill="#C4D3DF"/>
<path d="M234.735 101.295H183.835C182.978 101.295 182.299 100.615 182.299 99.7578C182.299 98.9006 182.978 98.2208 183.835 98.2208H234.735C235.592 98.2208 236.272 98.9006 236.272 99.7578C236.272 100.615 235.592 101.295 234.735 101.295Z" fill="#C4D3DF"/>
</g>
<g opacity="0.3">
<path d="M204.953 113.857H144.156C143.3 113.857 142.62 113.177 142.62 112.32C142.62 111.463 143.3 110.783 144.156 110.783H204.953C205.81 110.783 206.489 111.463 206.489 112.32C206.489 113.148 205.81 113.857 204.953 113.857Z" fill="#C4D3DF"/>
<path d="M228.083 113.857H212.042C211.185 113.857 210.506 113.177 210.506 112.32C210.506 111.463 211.185 110.783 212.042 110.783H228.083C228.94 110.783 229.619 111.463 229.619 112.32C229.619 113.148 228.94 113.857 228.083 113.857Z" fill="#C4D3DF"/>
<path d="M167.11 123.404H144.156C143.3 123.404 142.62 122.724 142.62 121.867C142.62 121.01 143.3 120.33 144.156 120.33H167.11C167.967 120.33 168.646 121.01 168.646 121.867C168.646 122.724 167.937 123.404 167.11 123.404Z" fill="#C4D3DF"/>
<path d="M204.276 123.404H172.814C171.958 123.404 171.278 122.724 171.278 121.867C171.278 121.01 171.958 120.33 172.814 120.33H204.247C205.104 120.33 205.783 121.01 205.783 121.867C205.813 122.724 205.104 123.404 204.276 123.404Z" fill="#C4D3DF"/>
</g>
<path d="M93.1691 69.8143H99.6683L117.216 110.042H109.801L105.754 100.406H86.8767L82.7704 110.042H75.5918L93.1691 69.8143ZM103.213 94.1697L96.3005 78.2086L89.4469 94.1697H103.213Z" fill="#EEF6FF"/>
<path d="M100.107 136.082H64.9521V142.88H100.107V136.082Z" fill="#5670BF"/>
<path d="M100.107 142.881H64.9521V149.679H100.107V142.881Z" fill="#3E537B"/>
<path d="M100.107 149.678H64.9521V156.476H100.107V149.678Z" fill="#AA98DC"/>
<path d="M126.022 139.924H106.672C105.875 139.924 105.195 139.274 105.195 138.446C105.195 137.648 105.845 136.969 106.672 136.969H126.022C126.82 136.969 127.499 137.619 127.499 138.446C127.47 139.274 126.82 139.924 126.022 139.924Z" fill="#C4D3DF"/>
<path d="M119.493 145.096H106.672C105.875 145.096 105.195 144.446 105.195 143.618C105.195 142.82 105.845 142.14 106.672 142.14H119.493C120.291 142.14 120.971 142.791 120.971 143.618C120.971 144.446 120.321 145.096 119.493 145.096Z" fill="#C4D3DF"/>
<path d="M100.107 171.197H64.9521V185.06H100.107V171.197Z" fill="#3E537B"/>
<path d="M100.107 181.66H64.9521V191.591H100.107V181.66Z" fill="#AA98DC"/>
<path d="M64.9521 171.197L77.5665 181.808L64.9521 191.562V171.197Z" fill="#5670BF"/>
<path d="M126.022 175.04H106.672C105.875 175.04 105.195 174.389 105.195 173.562C105.195 172.764 105.845 172.084 106.672 172.084H126.022C126.82 172.084 127.499 172.734 127.499 173.562C127.47 174.389 126.82 175.04 126.022 175.04Z" fill="#C4D3DF"/>
<path d="M119.493 180.211H106.672C105.875 180.211 105.195 179.561 105.195 178.734C105.195 177.935 105.845 177.256 106.672 177.256H119.493C120.291 177.256 120.971 177.906 120.971 178.734C120.971 179.561 120.321 180.211 119.493 180.211Z" fill="#C4D3DF"/>
<path d="M271.6 39.9022C271.6 39.9022 272.516 50.809 270.034 50.6612C267.553 50.4838 262.649 45.6955 252.723 46.464C242.826 47.2325 230.685 49.4198 223.358 36.444C216.032 23.4683 232.723 19.744 232.723 19.744L271.6 39.9022Z" fill="#151F2C"/>
<path d="M250.564 39.1046L300.46 43.2131L301.494 40.9963L253.637 5.64549L205.306 0L204.391 1.98035L250.564 39.1046Z" fill="#384152"/>
<path d="M283.505 77.6755L283.151 37.8319L282.885 37.6546L256.829 18.3535L255.884 19.6245L281.703 38.7186L282.265 77.5868L283.505 77.6755Z" fill="#384152"/>
<path d="M284.514 76.7304C284.219 75.6959 283.155 75.1047 282.121 75.4003C281.087 75.6959 280.496 76.76 280.792 77.7945C281.087 78.829 282.151 79.4201 283.185 79.1246C284.219 78.829 284.81 77.7353 284.514 76.7304Z" fill="#2148C0"/>
<path d="M282.856 77.2626C284.865 77.1148 285.337 95.3223 285.337 95.3223C285.337 95.3223 284.037 95.943 283.388 95.7952C282.738 95.6474 282.413 93.1941 282.413 93.1941L282.354 95.7656C282.354 95.7656 280.167 95.8543 279.399 95.2927C279.399 95.3223 279.695 77.4991 282.856 77.2626Z" fill="#2148C0"/>
<path d="M317.151 265.514H207.492V223.838H317.506C326.398 223.838 333.606 231.05 333.606 239.947V249.05C333.606 258.154 326.25 265.514 317.151 265.514Z" fill="#E9E9E9"/>
<path d="M427.665 240.982V247.248C427.665 250.588 426.838 253.751 425.361 256.441C422.407 261.879 416.912 265.515 410.62 265.515H204.123C202.764 265.515 201.642 264.332 201.642 262.855V261.909C201.642 260.46 202.735 259.249 204.123 259.249H330C330.68 258.362 331.271 257.416 331.773 256.411C332.954 254.046 333.604 251.327 333.604 248.431V240.45C333.604 238.972 333.427 237.553 333.102 236.194C332.541 233.888 331.537 231.79 330.178 230.016H204.123C202.764 230.016 201.642 228.834 201.642 227.356V226.41C201.642 224.932 202.735 223.75 204.123 223.75H411.654C418.98 223.75 425.125 229.011 427.045 236.164C427.458 237.76 427.665 239.356 427.665 240.982Z" fill="#516CC0"/>
<path d="M427.045 236.254H333.102C332.541 233.949 331.537 231.85 330.178 230.077H204.123C202.764 230.077 201.642 228.894 201.642 227.417V226.471C201.642 224.993 202.735 223.811 204.123 223.811H411.654C418.98 223.84 425.125 229.101 427.045 236.254Z" fill="#3752A5"/>
<path d="M207.492 244.676L222.795 245.385L207.492 245.799V244.676Z" fill="#B8C0C7"/>
<path d="M207.492 251.207L243.858 251.916L207.492 252.33V251.207Z" fill="#B8C0C7"/>
<path d="M191.475 297.85H299.125V265.426H190.529C182.464 265.426 175.936 271.958 175.936 280.027V282.274C175.906 290.904 182.878 297.85 191.475 297.85Z" fill="#677282"/>
<path d="M293.93 297.85H416.616V265.426H293.605C285.392 265.426 278.745 272.076 278.745 280.293V282.658C278.745 291.052 285.54 297.85 293.93 297.85Z" fill="#E9E9E9"/>
<path d="M270.616 297.851H420.718C421.958 297.851 422.963 296.846 422.963 295.605V295.28C422.963 294.038 421.958 293.033 420.718 293.033H270.616C269.376 293.033 268.371 294.038 268.371 295.28V295.605C268.371 296.846 269.376 297.851 270.616 297.851Z" fill="#677282"/>
<path d="M270.616 270.273H420.718C421.958 270.273 422.963 269.268 422.963 268.027V267.701C422.963 266.46 421.958 265.455 420.718 265.455H270.616C269.376 265.455 268.371 266.46 268.371 267.701V268.027C268.371 269.268 269.376 270.273 270.616 270.273Z" fill="#677282"/>
<path d="M416.583 281.652L399.892 282.184L416.583 282.51V281.652Z" fill="#B8C0C7"/>
<path d="M416.582 274.174L376.818 274.735L416.582 275.061V274.174Z" fill="#B8C0C7"/>
<path d="M377 275C377 275 378.713 276.389 379.275 278.695C379.363 279.108 379.452 279.522 379.452 279.966C379.541 283.01 379.452 289.897 379.452 289.897L384.474 286.468L389.496 289.897V280.557C389.496 278.783 389.053 277.069 388.255 275.946C387.871 275.414 387.399 275 386.867 275H377Z" fill="#F7B650"/>
<path d="M377 275C377 275 378.713 276.389 379.275 278.695L389.348 278.842C389.348 278.842 388.964 275.562 386.867 275.03H377V275Z" fill="#DE982B"/>
<path d="M285.772 223.924H179.806V176.277H286.126C295.521 176.277 303.142 183.903 303.142 193.302V206.485C303.172 216.121 295.373 223.924 285.772 223.924Z" fill="#E9E9E9"/>
<path d="M303.232 194.78V205.037C303.203 209.411 301.164 213.224 298.21 215.234C296.733 216.239 295.049 216.801 293.247 216.801H176.587C175.228 216.801 174.105 218.131 174.105 219.756V220.968C174.105 222.594 175.228 223.924 176.587 223.924H378.121C383.911 223.924 389.021 220.495 392.094 215.234C394.044 211.924 395.196 207.874 395.196 203.529V195.431C395.196 192.445 394.634 189.608 393.6 187.095C391.001 180.681 385.506 176.277 379.155 176.277H176.587C175.228 176.277 174.105 177.607 174.105 179.233V180.445C174.105 182.071 175.228 183.401 176.587 183.401H293.602C296.408 183.401 298.919 184.819 300.692 187.095C302.257 189.135 303.203 191.825 303.232 194.78Z" fill="#A7ADB3"/>
<path d="M174.105 219.757V220.969C174.105 222.594 175.228 223.924 176.587 223.924H378.121C383.911 223.924 389.021 220.496 392.094 215.234H298.21C296.733 216.239 295.049 216.801 293.247 216.801H176.587C175.199 216.801 174.105 218.131 174.105 219.757Z" fill="#677282"/>
<path d="M179.805 200.1L194.782 200.898L179.805 201.4V200.1Z" fill="#B8C0C7"/>
<path d="M179.805 189.135L215.402 189.933L179.805 190.435V189.135Z" fill="#B8C0C7"/>
<path d="M215.02 189.787C215.02 189.787 212.686 191.295 211.888 193.777C211.741 194.221 211.652 194.664 211.652 195.167C211.534 198.477 211.652 205.926 211.652 205.926L204.71 202.201L197.797 205.926V195.817C197.797 193.896 198.388 192.033 199.481 190.822C200.013 190.23 200.662 189.787 201.401 189.787H215.02Z" fill="#7654D3"/>
<path d="M215.016 189.787C215.016 189.787 212.682 191.295 211.885 193.777L198 193.925C198 193.925 198.532 190.378 201.427 189.787H215.016Z" fill="#4E2EA8"/>
<path d="M37.953 219.701C37.953 219.701 59.6661 229.16 63.6247 228.982C67.5538 228.805 91.8666 221.593 91.8666 221.593L91.2462 225.76C91.2462 225.76 72.4872 236.549 65.9585 237.17C59.5184 237.761 37.4508 231.376 35.3238 230.017C33.1377 228.687 31.7492 221.09 37.953 219.701Z" fill="#DE6B4D"/>
<path d="M34.6707 184.882C34.6707 184.882 26.6649 183.345 22.6768 186.271C15.4391 191.562 15.055 209.769 12.3372 212.459C9.61935 215.178 3.09064 214.026 2.52934 228.036C1.93851 242.076 5.12901 243.228 1.34767 249.495C-2.43366 255.761 2.94293 262.027 2.94293 262.027C2.94293 262.027 0.727301 258.569 1.67264 256.086C1.67264 256.086 2.58843 261.584 6.10389 262.884C9.58982 264.185 10.1216 265.131 10.6829 267.022C10.6829 267.022 40.52 251.711 40.5495 240.864C40.5791 230.016 46.4283 219.257 43.5628 214.558C43.5628 214.558 44.8331 216.568 45.0103 218.814C45.0103 218.814 46.7238 215.504 43.74 212.459C40.7563 209.385 47.226 203.03 46.2806 195.67C45.6012 190.646 42.0562 185.118 34.6707 184.882Z" fill="#151F2C"/>
<path d="M40.5819 230.045C38.6617 231.375 36.2688 232.469 33.2851 233.149C22.0297 235.75 17.7166 226.232 16.0918 219.7C17.628 218.813 19.0755 218.636 19.9027 218.518C20.7298 218.429 21.557 218.37 22.266 218.311C23.5363 217.335 25.427 213.375 25.8406 207.227L26.3723 207.374L35.2348 209.798C35.2348 209.798 34.8212 212.606 34.644 215.296C34.4963 217.394 34.4667 219.375 34.8508 219.877C35.5302 220.025 35.9438 220.114 35.9438 220.114C36.0915 220.35 38.6617 224.577 40.5819 230.045Z" fill="#EE805F"/>
<path d="M35.259 209.828C35.259 209.828 34.8454 212.636 34.6682 215.326C29.6461 214.823 27.3123 210.035 26.3965 207.404L35.259 209.828Z" fill="#DE6B4D"/>
<path d="M36.7387 212.488C36.7387 212.488 24.8039 211.838 25.3356 204.419C25.8674 197 24.6857 191.916 32.3075 192.005C39.9588 192.123 41.2291 195.049 41.6426 197.562C42.0858 200.074 39.8701 212.459 36.7387 212.488Z" fill="#EE805F"/>
<path d="M41.615 193.396C39.9311 191.032 38.5131 191.416 37.6859 192.037C31.4231 187.987 26.8441 192.982 26.8441 192.982C25.6624 198.244 21.6152 201.022 21.6152 201.022C21.6152 201.022 23.6832 202.53 28.7939 201.584C30.3596 201.288 31.8071 200.313 33.0479 199.071C30.7732 202.323 27.8485 204.569 27.8485 204.569C34.0227 202.234 37.036 194.076 37.3314 193.219C38.0109 193.928 39.3403 195.436 39.6948 196.884C40.1674 198.805 42.1172 201.85 43.2693 201.791C43.2398 201.82 44.126 196.943 41.615 193.396Z" fill="#151F2C"/>
<path d="M12.6931 254.313C11.6296 248.815 8.11411 226.795 11.6296 219.701C12.8999 217.159 17.8333 216.923 23.269 217.159C24.9529 218.253 31.393 222.361 34.0517 221.859C34.0813 221.859 34.1404 221.829 34.1994 221.829C35.4402 221.504 35.9129 220.647 34.8789 219.878C34.8789 219.878 37.5672 219.612 40.9054 220.263C42.7961 220.617 47.8773 223.248 47.8773 223.248C47.8773 223.248 45.3071 227.888 41.5258 229.484C42.1757 235.248 41.2008 237.761 35.2629 251.061C30.2113 262.293 35.9424 272.402 35.9424 272.402C35.9424 272.402 6.28252 296.255 6.13481 284.107C5.9871 274.944 14.0815 261.347 12.6931 254.313Z" fill="#624C93"/>
<path d="M37.3863 298.323C39.0111 298.146 40.4587 297.259 41.3449 295.899C41.4926 295.692 41.6403 295.456 41.8176 295.219C45.1853 290.106 46.5147 274.44 54.1069 257.77C55.9681 253.721 62.5854 252.982 64.417 248.4C64.417 248.4 68.8778 233.533 55.8794 233.089C42.9106 232.646 21.1088 274.5 20.7543 278.874C20.4294 283.101 12.1873 301.16 37.3863 298.323Z" fill="#22283B"/>
<path d="M88.9995 297.968H70.5064C70.5064 297.968 69.8269 295.012 71.0381 293.002C72.1016 291.228 71.688 290.223 70.8904 288.746C71.7176 289.1 72.8106 289.396 73.9923 289.337C74.9081 289.278 75.8829 288.864 76.7397 288.361C77.5373 289.278 80.9346 293.12 81.9981 293.889C83.2388 294.775 88.645 294.48 88.9995 297.968Z" fill="#44297D"/>
<path d="M64.8361 237.347C65.9587 245.682 70.3013 272.047 77.9526 284.905C80.4341 289.043 71.7193 291.378 71.6898 291.348C70.5377 291.053 68.5879 289.191 67.6721 288.363C61.4388 282.747 48.8245 266.875 48.8245 254.135C48.8245 247.928 48.7063 236.046 53.2262 233.031C56.0031 231.199 64.393 234.036 64.8361 237.347Z" fill="#262C3F"/>
<path d="M26.3663 297.969C26.3663 297.969 27.0457 297.023 28.2569 295.19C29.675 293.033 31.2407 288.806 33.1609 283.367C35.1697 277.663 37.533 270.658 40.5168 263.357C41.4326 261.111 42.4074 258.835 43.4414 256.559C45.3025 252.509 50.3837 253.071 52.1857 248.46C52.1857 248.46 59.2462 232.558 46.2774 232.115C33.279 231.671 8.61171 274.678 7.19371 278.845C5.628 283.397 -1.93468 302.343 26.3663 297.969Z" fill="#2D344B"/>
<path d="M75.434 297.968H56.9409C56.9409 297.968 56.2615 295.012 57.4727 293.002C58.5362 291.228 58.1226 290.223 57.325 288.746C58.1521 289.1 59.2452 289.396 60.4269 289.337C61.3426 289.278 62.3175 288.864 63.1742 288.361C63.9719 289.278 67.3691 293.12 68.4327 293.889C69.6734 294.775 75.05 294.48 75.434 297.968Z" fill="#58418A"/>
<path d="M33.1663 283.396C35.1752 277.692 37.5385 270.687 40.5222 263.386C39.7541 257.859 38.0703 253.011 35.2638 251.061C35.2638 251.031 28.4101 272.224 33.1663 283.396Z" fill="#22283C"/>
<path d="M54.0483 236.755C55.1709 245.09 56.7366 272.047 64.3879 284.904C66.8694 289.042 58.1546 291.377 58.125 291.348C56.9729 291.052 55.0232 289.19 54.1074 288.363C47.8741 282.747 35.2598 266.874 35.2598 254.135C35.2598 247.928 42.5566 236.548 47.0469 233.533C49.8238 231.701 53.6052 233.445 54.0483 236.755Z" fill="#2D344B"/>
<path d="M38.9811 208.204C38.9811 208.204 37.8585 207.76 34.668 208.026C34.668 208.026 34.8452 209.268 37.179 209.386C38.5084 209.445 38.9811 208.204 38.9811 208.204Z" fill="white"/>
<path d="M94.1661 212.873L90.3256 205.957L82.0244 229.071L86.9283 234.332L94.1661 212.873Z" fill="#151F2C"/>
<path d="M74.1349 216.924L66.4541 238.945L86.9265 234.334L94.1642 212.875L74.1349 216.924Z" fill="#151F2C"/>
<path d="M66.835 237.82L66.4805 237.199L73.7773 216.361L74.1318 216.923L66.835 237.82Z" fill="#EFDECE"/>
<path d="M73.7803 216.361L93.1892 212.578L94.1641 212.874L74.1348 216.923L73.7803 216.361Z" fill="#E9E9E9"/>
<path d="M94.1657 212.873L90.0003 206.281L87.3711 213.7L93.1908 212.577L94.1657 212.873Z" fill="#EFDECE"/>
<path d="M80.0465 220.116C79.367 219.998 77.949 219.436 76.5015 219.052C76.9446 218.727 77.4173 218.313 77.5355 217.87C77.8013 217.042 77.9786 216.806 77.0923 217.042C76.2356 217.308 73.2224 218.668 73.2224 218.668C71.5089 219.17 69.9432 221.594 69.9432 221.594C69.9432 221.594 48.7618 229.042 46.2212 229.161C42.2922 229.367 16.0592 219.702 16.0592 219.702C9.85539 221.062 11.2439 228.688 13.4004 230.018C15.5274 231.377 34.4046 238.235 45.6009 238.353C51.2729 238.412 71.8634 225.17 71.8634 225.17C71.8634 225.17 74.2859 224.077 76.1765 224.402C78.0672 224.757 82.4689 224.402 83.4143 222.865C84.3596 221.357 81.1691 220.323 80.0465 220.116Z" fill="#EE805F"/>
<path d="M29.623 224.49C29.623 224.49 27.2892 231.909 19.2243 233.624C19.2243 233.624 5.93056 229.515 12.5479 220.441C12.5184 220.441 19.0766 215.564 29.623 224.49Z" fill="#58418A"/>
<path d="M93.8137 220.646C93.8137 220.44 93.7842 220.233 93.7546 220.055C93.7546 220.055 91.864 217.04 91.2436 216.922C89.3529 216.538 89.3529 219.05 89.7665 220.646C90.0324 221.77 90.7709 222.834 91.3322 223.425L91.2436 225.789C94.4046 224.016 93.8137 220.646 93.8137 220.646Z" fill="#EE805F"/>
<path d="M299.418 215.563C302.904 221.711 307.306 224.134 307.306 224.134L325.74 224.253C325.74 224.253 296.76 210.863 299.418 215.563Z" fill="#151F2C"/>
<path d="M313.244 263.151C313.716 263.713 313.775 264.334 313.539 264.984C313.096 266.196 311.619 267.555 309.935 268.885C309.728 269.063 309.521 269.211 309.344 269.358C309.314 269.388 309.255 269.447 309.226 269.477C309.196 269.506 309.167 269.536 309.137 269.565C307.542 271.014 308.133 271.339 305.297 274.265C302.047 277.605 299.832 277.634 299.211 277.339C298.679 277.073 299.772 275.299 300.984 273.319C301.043 273.23 301.102 273.112 301.161 273.024C301.309 272.757 301.486 272.491 301.634 272.225C303.052 269.831 302.697 268.708 302.402 265.102C302.165 262.176 298 248.816 298 248.816L304.174 247.781C304.174 247.781 305.947 258.422 307.985 260.077C309.078 260.964 310.289 260.964 311.353 261.644C311.441 261.703 311.501 261.733 311.56 261.792C312.15 262.176 312.771 262.59 313.244 263.151Z" fill="#EE805F"/>
<path d="M313.246 263.15C313.719 263.712 313.778 264.332 313.542 264.983C312.98 266.195 311.562 267.525 309.938 268.884C309.731 269.062 309.524 269.209 309.376 269.357C309.347 269.387 309.288 269.446 309.258 269.475C309.229 269.505 309.199 269.535 309.169 269.564C307.574 271.012 308.165 271.338 305.329 274.264C302.079 277.604 299.864 277.633 299.243 277.338C298.712 277.072 299.805 275.298 301.016 273.318C301.636 273.081 304.561 271.929 306.806 269.121C308.756 266.667 310.085 263.475 311.415 261.643C311.503 261.702 311.562 261.731 311.621 261.79C312.153 262.175 312.774 262.589 313.246 263.15Z" fill="#FFC05C"/>
<path d="M263.471 258.924C263.087 260.816 260.369 260.491 257.326 259.722C254.283 258.954 255.022 259.841 250.679 259.338C246.366 258.836 245.066 257.21 244.948 256.56C244.83 255.998 246.957 255.791 249.261 255.555C249.557 255.525 249.852 255.496 250.118 255.466C252.718 255.17 254.608 253.515 256.972 252.156C259.217 250.885 262.555 245.594 262.555 245.594L268.493 246.096C268.493 246.096 265.361 250.796 264.121 252.835C263.412 254.047 263.441 255.643 263.5 256.885C263.559 257.565 263.589 258.274 263.471 258.924Z" fill="#EE805F"/>
<path d="M257.326 259.723C254.283 258.954 255.022 259.841 250.679 259.338C246.366 258.836 245.066 257.21 244.948 256.56C244.83 255.998 246.957 255.791 249.261 255.555L249.291 255.584C249.291 255.584 251.861 257.447 255.465 257.565C258.39 257.654 261.521 256.826 263.53 256.885C263.559 257.565 263.618 258.245 263.471 258.924C263.057 260.846 260.339 260.491 257.326 259.723Z" fill="#FFC05C"/>
<path d="M286.451 221.18L291.887 236.136L298.977 255.673C298.977 255.673 300.927 255.88 302.817 255.348C304.56 254.846 306.54 253.575 306.54 253.575C306.54 253.575 304.678 232.648 301.015 220.618C300.07 217.544 299.006 215.032 297.854 213.613C292.094 206.667 286.451 221.18 286.451 221.18Z" fill="#151F2C"/>
<path d="M292.243 197.533C295.877 196.38 306.216 197.976 316.615 200.075L318.831 196.498L341.312 194.902C341.312 194.902 348.609 211.395 344.473 221.859C343.853 223.396 342.376 224.046 340.367 224.046C340.367 224.046 326.955 224.282 322.612 224.253C311.445 224.164 299.038 216.391 297.413 216.065C294.784 215.504 293.691 220.795 291.002 226.322C288.314 231.849 266.01 250.707 266.01 250.707C266.01 250.707 262.613 250.707 261.195 250.175C259.688 249.584 259.127 248.845 259.127 248.845C259.127 248.845 284.031 200.104 292.243 197.533Z" fill="#384152"/>
<path d="M319.152 165.522C327.129 169.986 343.288 179.237 343.377 179.178C343.377 179.178 349.315 181.483 352.712 179.237C358.384 175.542 361.486 165.463 351.235 156.714C346.124 152.34 342.461 151.276 341.959 144.359C341.693 140.605 336.641 128.191 328.133 129.285C327.424 129.374 326.715 129.433 325.977 129.403C324.972 129.374 323.347 129.492 321.663 130.497C316.819 133.334 307.188 163.749 319.152 165.522Z" fill="#151F2C"/>
<path d="M325.896 161.828C325.867 161.857 329.825 163.247 332.484 162.064C334.995 160.971 336.915 156.892 336.886 156.862C335.763 156.803 334.522 155.798 333.607 149.266L333.134 149.443L324.98 152.31C324.98 152.31 325.542 154.941 325.926 157.424C326.192 159.552 326.339 161.532 325.896 161.828Z" fill="#EE805F"/>
<path d="M324.945 152.34C324.945 152.34 325.3 154.172 325.772 156.803C330.44 156.005 332.419 152.015 333.099 149.473L324.945 152.34Z" fill="#DE6B4D"/>
<path d="M323.704 154.91C323.704 154.91 334.842 153.492 333.867 146.575C332.892 139.659 333.66 134.811 326.481 135.402C319.332 136.023 318.328 138.861 318.092 141.255C317.855 143.649 320.78 155.117 323.704 154.91Z" fill="#EE805F"/>
<path d="M318.537 137.472C318.537 137.472 325.627 143.679 330.472 144.182C335.317 144.714 337.148 143.177 337.148 143.177C337.148 143.177 334.312 140.783 332.628 136.94C332.126 135.817 331.063 135.019 329.822 134.901C326.366 134.576 319.807 134.398 318.537 137.472Z" fill="#151F2C"/>
<path d="M322.995 136.941C322.995 136.941 320.603 139.217 319.835 140.931C319.096 142.586 318.86 146.517 319.421 148.084C319.421 148.084 315.758 140.842 317.885 137.325C320.13 133.66 322.995 136.941 322.995 136.941Z" fill="#151F2C"/>
<path d="M316.409 178.173C316.586 200.725 316.379 195.996 318.831 198.154C319.422 198.686 321.076 198.981 323.292 199.159C330.205 199.661 342.346 198.627 342.819 197.326C344.444 192.922 343.321 191.533 344.71 184.764C344.857 184.055 345.035 183.257 345.242 182.429C346.394 177.789 347.487 176.222 343.587 168.714C340.072 161.916 336.409 156.419 336.054 156.596C326.601 162.123 325.892 157.424 325.892 157.424C325.892 157.424 316.32 167.178 316.409 178.173Z" fill="#FFC05C"/>
<path d="M291.885 236.135L298.975 255.673C298.975 255.673 300.925 255.879 302.815 255.347C304.558 254.845 306.537 253.574 306.537 253.574C306.537 253.574 304.676 232.647 301.013 220.617L291.885 236.135Z" fill="#384152"/>
<path d="M325.859 157.453C325.859 157.453 316.169 159.02 314.988 163.187C313.835 167.355 306.952 191.829 306.952 191.829C306.952 191.829 311.856 192.745 314.16 190.499C316.465 188.252 322.225 169.454 322.225 169.454L325.859 157.453Z" fill="#FFC05C"/>
<path d="M323.266 199.159C330.178 199.662 342.32 198.627 342.793 197.327C344.417 192.923 343.295 191.533 344.683 184.765L341.404 175.365C341.404 175.365 341.877 185.829 338.775 188.548C335.673 191.267 326.131 193.78 324.595 196.056C323.916 197.179 323.413 198.272 323.266 199.159Z" fill="#FDB340"/>
<path d="M331.214 194.814C331.214 194.814 324.419 193.247 323.296 193.839C322.203 194.43 319.486 196.617 319.161 197.385C318.806 198.154 321.613 196.824 322.528 196.587C323.119 196.44 324.655 196.972 325.423 197.238C328.644 198.331 330.593 197.799 330.593 197.799L331.214 194.814Z" fill="#EE805F"/>
<path d="M336.054 156.625C336.054 156.625 345.212 157.246 348.344 161.709C352.745 167.975 361.431 194.547 356.32 198.065C350.589 201.996 330.323 198.922 330.323 198.922C330.323 198.922 329.673 195.759 330.619 194.252C331.564 192.744 346.837 190.38 347.546 189.67C348.255 188.961 338.831 175.867 338.861 173.768C338.89 171.611 336.054 156.625 336.054 156.625Z" fill="#FFC05C"/>
<path d="M322.967 195.731C322.967 195.731 321.519 197.563 321.046 197.77C320.574 197.977 320.278 197.918 320.278 197.918L321.253 196.204L322.967 195.731Z" fill="#EE805F"/>
<path d="M323.322 193.838L319.156 195.818C319.156 195.818 319.334 196.114 319.836 196.084C320.338 196.055 321.638 195.611 321.638 195.611L323.322 193.838Z" fill="#EE805F"/>
<path d="M321.931 200.754L289.11 200.548L279.391 175.897L312.182 176.104L321.931 200.754Z" fill="#151F2C"/>
<path d="M288.723 199.572L332.09 199.868V200.843L289.107 200.548L288.723 199.572Z" fill="#151F2C"/>
<path d="M297.468 188.311C297.231 187.454 297.733 186.744 298.59 186.744C299.447 186.744 300.363 187.454 300.599 188.311C300.835 189.168 300.333 189.877 299.476 189.877C298.62 189.877 297.704 189.168 297.468 188.311Z" fill="white"/>
<path d="M122.335 278.321L122.331 298.184L222.123 298.203L222.127 278.34L122.335 278.321Z" fill="#5B636F"/>
<path d="M122.327 298.206L107.645 291.94L99.1074 288.275L107.852 284.551L122.327 278.373C122.327 278.373 124.247 283.22 124.277 287.743C124.336 294.866 122.327 298.206 122.327 298.206Z" fill="#E9E9E9"/>
<path d="M233.728 284.965V291.231C233.728 295.103 230.597 298.206 226.727 298.206H222.118V278.344H227.14C230.774 278.373 233.728 281.329 233.728 284.965Z" fill="#E9E9E9"/>
<path d="M107.852 284.521C108.206 286.531 108.531 289.605 107.645 291.911L99.1074 288.246L107.852 284.521Z" fill="#151F2C"/>
<path d="M143.77 174.98C143.77 174.98 145.572 182.753 150.771 182.753C155.232 182.753 161.376 172.645 161.376 172.645L143.77 174.98Z" fill="#E5506B"/>
<path d="M203.627 289.603L200.289 291.909C200.289 291.909 184.189 274.736 180.289 258.272C179.61 255.346 179.314 252.449 179.61 249.671C179.61 249.671 179.373 248.932 178.96 247.602C178.93 247.543 178.93 247.484 178.901 247.425C178.724 246.833 178.517 246.154 178.251 245.385C177.483 242.902 176.39 239.503 175.179 235.631C172.372 226.705 165.932 206.606 163.185 198.241L182.948 191.088C182.948 191.088 185.193 196.201 188.413 210.123C188.915 211.926 189.418 213.936 189.861 216.153C190.392 218.636 190.865 221.355 191.279 224.281C191.958 229.247 192.431 234.833 192.46 240.952C192.46 243.434 192.401 246.035 192.254 248.696C192.135 250.646 192.431 253.247 192.992 256.203C195.533 269.77 203.627 289.603 203.627 289.603Z" fill="#384152"/>
<path d="M214.143 297.88H198.161C198.161 297.88 197.57 295.338 198.604 293.594C199.52 292.057 199.166 291.17 198.486 289.899C199.225 290.195 200.141 290.461 201.174 290.402C201.972 290.343 202.799 289.988 203.538 289.574C204.217 290.372 207.171 293.712 208.087 294.362C209.18 295.131 213.818 294.865 214.143 297.88Z" fill="#DA4560"/>
<path d="M191.307 224.312L178.9 247.485C178.723 246.894 178.516 246.214 178.25 245.446C177.482 242.963 176.389 239.564 175.178 235.692C172.371 226.765 165.931 206.666 163.184 198.301L182.947 191.148C182.947 191.148 185.192 196.262 188.412 210.183C188.914 211.986 189.417 213.996 189.86 216.213C190.421 218.666 190.894 221.386 191.307 224.312Z" fill="#1F2C3E"/>
<path d="M162.857 292.886C162.857 292.886 161.764 295.605 162.798 297.881H171.483C171.483 297.881 171.661 295.812 168.5 293.418C166.136 291.615 162.857 292.886 162.857 292.886Z" fill="#DA4560"/>
<path d="M172.343 116.101C172.343 115.658 172.579 110.988 179.669 110.574C179.669 110.574 176.183 111.077 175.622 112.614C175.622 112.614 177.955 110.663 179.905 111.224C181.855 111.786 183.066 115.156 183.125 116.279C183.155 117.402 182.18 121.008 180.969 121.363C180.496 121.481 179.964 121.481 179.492 121.392C179.817 121.895 180.171 122.456 180.496 123.077C183.48 128.811 180.91 135.58 178.487 135.018C176.951 134.664 176.006 137.324 176.006 137.324L161.117 124.525C161.058 124.525 166.257 113.057 172.343 116.101Z" fill="#151F2C"/>
<path d="M162.973 154.998C164.627 156.151 166.695 157.096 169.295 157.688C179.014 159.934 182.766 151.717 184.154 146.071C182.825 145.303 181.584 145.155 180.845 145.066C180.136 144.978 179.398 144.919 178.777 144.889C177.684 144.062 176.06 140.633 175.705 135.312L175.262 135.431L167.581 137.529C167.581 137.529 167.936 139.983 168.113 142.288C168.261 144.091 168.261 145.805 167.936 146.249C167.345 146.367 166.99 146.456 166.99 146.456C166.872 146.603 164.627 150.239 162.973 154.998Z" fill="#EE805F"/>
<path d="M167.585 137.501C167.585 137.501 167.939 139.925 168.117 142.26C172.459 141.816 174.468 137.678 175.266 135.402L167.585 137.501Z" fill="#DE6B4D"/>
<path d="M167.491 141.166C167.491 141.166 177.505 138.594 175.792 132.387C174.108 126.18 174.256 121.658 167.786 123.047C161.316 124.436 160.726 127.126 160.814 129.343C160.873 131.56 164.861 141.668 167.491 141.166Z" fill="#EE805F"/>
<path d="M160.163 125.798C161.197 123.522 162.467 123.611 163.265 123.995C167.873 119.502 172.6 122.96 172.6 122.96C174.49 127.217 178.39 128.901 178.39 128.901C178.39 128.901 176.883 130.527 172.393 130.586C171.034 130.616 169.646 130.025 168.375 129.167C170.857 131.532 173.722 132.951 173.722 132.951C168.08 132.005 164.18 125.621 163.767 124.941C163.294 125.65 162.437 127.158 162.378 128.428C162.319 130.143 162.999 133.453 161.994 133.601C162.024 133.631 158.626 129.256 160.163 125.798Z" fill="#151F2C"/>
<path d="M164.624 145.894C164.624 145.894 181.434 141.815 188.73 147.844L185.067 198.801L152.217 190.851C152.217 190.851 153.133 187.629 159.455 179.057C165.747 170.485 163 157.894 164.624 145.894Z" fill="#EE805F"/>
<path d="M174.405 193.127C174.405 193.127 174.375 193.305 174.345 193.63C174.316 193.777 174.316 193.955 174.286 194.132C174.139 195.462 173.873 197.975 173.518 201.285C172.602 209.916 171.214 223.808 170.239 234.744C169.471 243.316 168.998 250.085 169.264 251.178C170.032 254.459 169.264 293.593 169.264 293.593C166.458 294.923 162.233 293.593 162.233 293.593C162.233 293.593 154.789 258.302 155.823 253.395C156.857 248.488 155.114 244.291 155.114 244.291C149.324 217.364 149.974 202.467 151.126 195.314C151.451 193.245 151.835 191.827 152.101 190.94C152.337 190.201 152.485 189.876 152.485 189.876C165.306 186.506 174.405 193.127 174.405 193.127Z" fill="#384152"/>
<path d="M190.98 162.388C190.182 168.506 186.933 176.014 185.751 180.063C185.751 180.063 187.701 194.074 185.839 197.916C185.633 198.359 185.367 198.655 185.042 198.803C178.188 201.788 151.512 198.891 150.389 190.29C149.976 187.157 160.552 176.162 161.172 174.832C161.438 174.27 161.704 172.497 160.463 168.772C158.72 174.181 149.001 172.644 149.001 172.644C150.153 170.694 152.989 157.215 156.15 151.126C158.543 146.545 164.894 145.895 164.894 145.895C164.894 145.895 167.553 150.092 173.934 149.501C180.345 148.91 181.497 144.979 181.497 144.979C181.497 144.979 187.169 145.747 188.912 147.136C189.237 147.343 192.043 154.348 190.98 162.388Z" fill="#E6506B"/>
<path d="M185.78 180.036C185.78 180.036 187.73 194.046 185.869 197.888C180.876 195.376 176.947 188.607 177.863 181.04C178.542 175.454 179.517 174.183 182.53 170.991C184.716 168.656 189.798 168.508 189.414 169.631C188.202 172.971 186.4 177.907 185.78 180.036Z" fill="#DA4560"/>
<path d="M164.95 163.485L176.383 181.84H156.915L146.014 163.869L164.95 163.485Z" fill="#384152"/>
<path d="M175.793 180.923L175.97 180.273L165.158 162.893L164.951 163.484L175.793 180.923Z" fill="#EFDECE"/>
<path d="M165.157 162.893L146.811 163.425L146.014 163.868L164.95 163.484L165.157 162.893Z" fill="#E9E9E9"/>
<path d="M146.017 163.868L135.736 158.281L147.73 177.139L156.918 181.839L146.017 163.868Z" fill="#151F2C"/>
<path d="M200.462 176.725C199.369 177.227 196.533 180.567 195.529 180.893C190.979 182.4 171.659 178.38 171.659 178.38L172.25 174.981C172.25 174.981 191.216 175.484 193.284 174.922C193.668 174.804 195.736 171.611 196.504 171.139L200.462 176.725Z" fill="#EE805F"/>
<path d="M172.25 175.009C172.25 175.009 169.975 173.146 168.409 173.56C166.873 173.974 164.598 175.925 163.742 176.398C162.885 176.871 160.61 178.526 161.762 179.531C162.914 180.536 166.548 179.679 167.966 178.91C169.414 178.142 171.629 178.408 171.629 178.408L172.25 175.009Z" fill="#EE805F"/>
<path d="M168.855 173.503C168.855 173.503 166.078 173.178 165.31 173.178C164.542 173.207 164.749 173.355 165.163 173.946C165.576 174.537 167.024 174.774 167.083 174.981C167.201 175.188 168.855 173.503 168.855 173.503Z" fill="#EE805F"/>
<path d="M181.527 144.949C181.527 144.949 189.769 145.925 192.044 149.472C194.91 153.935 201.675 171.758 201.468 176.221C201.468 176.221 196.505 184.645 179.548 183.315C179.548 183.315 177.775 177.078 181.35 175.009C181.35 175.009 190.065 173.472 191.069 172.586L183.95 159.669L181.527 144.949Z" fill="#E5506B"/>
<path d="M148.645 170.576C148.379 169.542 146.134 170.192 145.366 170.783C145.188 170.931 144.982 171.168 144.775 171.463C144.745 171.286 144.716 171.109 144.716 170.99C144.686 170.488 144.095 169.631 143.977 170.281C143.83 170.931 143.593 173.68 143.593 173.68C143.564 175.897 144.982 176.813 145.897 176.074C146.813 175.394 148.911 171.611 148.645 170.576Z" fill="#EE805F"/>
</svg>
