<svg width="379" height="265" viewBox="0 0 379 265" fill="none" xmlns="http://www.w3.org/2000/svg">
<path d="M93.0572 226.563L92.2476 226.119C91.3857 225.649 91.0462 224.551 91.5424 223.663L95.3033 216.79C95.7734 215.928 96.8703 215.588 97.7583 216.085L98.9335 216.738C99.1163 216.843 99.1686 217.052 99.0641 217.209C98.9596 217.391 98.7507 217.444 98.594 217.339L97.4187 216.686C96.8964 216.398 96.2174 216.581 95.9301 217.13L92.1431 224.003C91.8558 224.525 92.0387 225.205 92.5871 225.492L93.3967 225.936C93.9191 226.224 94.5981 226.041 94.8854 225.492L97.3926 220.919C97.4971 220.736 97.706 220.684 97.8627 220.788C98.0456 220.893 98.0978 221.102 97.9933 221.259L95.4861 225.832C95.0421 226.72 93.9452 227.034 93.0572 226.563Z" fill="#384152"/>
<path d="M89.5818 233.775L88.1192 232.965C86.7612 232.208 86.2911 230.431 87.1007 228.967L92.7681 218.62C92.8725 218.437 93.0814 218.384 93.2382 218.489C93.421 218.593 93.4732 218.802 93.3687 218.959L87.7014 229.307C87.1007 230.431 87.4141 231.79 88.4326 232.338L89.8952 233.148C90.9138 233.697 92.2457 233.253 92.8464 232.129L99.2973 220.344C99.898 219.221 99.5845 217.862 98.566 217.313C98.3832 217.209 98.3309 216.999 98.4354 216.843C98.5399 216.66 98.7488 216.607 98.9055 216.712C100.264 217.47 100.734 219.247 99.9241 220.71L93.4732 232.495C92.6897 233.932 90.9399 234.533 89.5818 233.775Z" fill="#384152"/>
<path d="M231.006 188.308H50.7991C46.3593 188.308 42.7812 184.702 42.7812 180.286V28.9357C42.7812 24.4935 46.3854 20.9135 50.7991 20.9135H231.032C235.472 20.9135 239.05 24.5196 239.05 28.9357V180.286C239.023 184.728 235.445 188.308 231.006 188.308Z" fill="#F7F7F7"/>
<path d="M239.026 39.4926H42.7578V26.8975C42.7578 23.5789 45.4478 20.9135 48.7386 20.9135H233.019C236.336 20.9135 239 23.605 239 26.8975V39.4926H239.026Z" fill="#2148C0"/>
<path d="M50.6953 30.0855C50.6953 28.8573 51.6878 27.8643 52.9152 27.8643C54.1427 27.8643 55.1352 28.8573 55.1352 30.0855C55.1352 31.3136 54.1427 32.3066 52.9152 32.3066C51.6878 32.3066 50.6953 31.3136 50.6953 30.0855Z" fill="#DDE7FE"/>
<path d="M60.0156 30.0855C60.0156 28.8573 61.0081 27.8643 62.2356 27.8643C63.4631 27.8643 64.4555 28.8573 64.4555 30.0855C64.4555 31.3136 63.4631 32.3066 62.2356 32.3066C61.0081 32.3066 60.0156 31.3136 60.0156 30.0855Z" fill="#DDE7FE"/>
<path d="M69.3438 30.0855C69.3438 28.8573 70.3362 27.8643 71.5637 27.8643C72.7912 27.8643 73.7836 28.8573 73.7836 30.0855C73.7836 31.3136 72.7912 32.3066 71.5637 32.3066C70.3362 32.3066 69.3438 31.3136 69.3438 30.0855Z" fill="#DDE7FE"/>
<path d="M113.949 54.2304H58.3203V109.889H113.949V54.2304Z" fill="#D4D5D9"/>
<path d="M173.345 58.3852H129.076C127.927 58.3852 126.961 57.4445 126.961 56.2686C126.961 55.1188 127.901 54.152 129.076 54.152H173.318C174.468 54.152 175.434 55.0927 175.434 56.2686C175.434 57.4445 174.494 58.3852 173.345 58.3852Z" fill="#B8C0C7"/>
<path d="M226.256 58.0716H182.014C180.865 58.0716 179.898 57.1309 179.898 55.955C179.898 54.8053 180.839 53.8384 182.014 53.8384H226.256C227.405 53.8384 228.371 54.7791 228.371 55.955C228.371 57.1309 227.431 58.0716 226.256 58.0716Z" fill="#B8C0C7"/>
<g opacity="0.3">
<path d="M182.091 74.5602H128.342C127.585 74.5602 126.984 73.9592 126.984 73.2014C126.984 72.4436 127.585 71.8426 128.342 71.8426H182.091C182.848 71.8426 183.449 72.4436 183.449 73.2014C183.449 73.9592 182.848 74.5602 182.091 74.5602Z" fill="#B8C0C7"/>
<path d="M202.54 74.5602H188.358C187.601 74.5602 187 73.9592 187 73.2014C187 72.4436 187.601 71.8426 188.358 71.8426H202.54C203.297 71.8426 203.898 72.4436 203.898 73.2014C203.898 73.9592 203.297 74.5602 202.54 74.5602Z" fill="#B8C0C7"/>
<path d="M148.635 83.0266H128.342C127.585 83.0266 126.984 82.4256 126.984 81.6678C126.984 80.91 127.585 80.309 128.342 80.309H148.635C149.393 80.309 149.993 80.91 149.993 81.6678C149.993 82.4256 149.367 83.0266 148.635 83.0266Z" fill="#B8C0C7"/>
<path d="M181.493 83.0266H153.678C152.921 83.0266 152.32 82.4256 152.32 81.6678C152.32 80.91 152.921 80.309 153.678 80.309H181.467C182.224 80.309 182.825 80.91 182.825 81.6678C182.851 82.4256 182.224 83.0266 181.493 83.0266Z" fill="#B8C0C7"/>
<path d="M202.54 83.0266H188.358C187.601 83.0266 187 82.4256 187 81.6678C187 80.91 187.601 80.309 188.358 80.309H202.54C203.297 80.309 203.898 80.91 203.898 81.6678C203.898 82.4256 203.297 83.0266 202.54 83.0266Z" fill="#B8C0C7"/>
<path d="M155.87 90.3432H128.342C127.585 90.3432 126.984 89.7422 126.984 88.9844C126.984 88.2266 127.585 87.6256 128.342 87.6256H155.87C156.627 87.6256 157.228 88.2266 157.228 88.9844C157.228 89.7422 156.627 90.3432 155.87 90.3432Z" fill="#B8C0C7"/>
<path d="M208.42 90.3432H163.421C162.663 90.3432 162.062 89.7422 162.062 88.9844C162.062 88.2266 162.663 87.6256 163.421 87.6256H208.42C209.177 87.6256 209.778 88.2266 209.778 88.9844C209.778 89.7422 209.177 90.3432 208.42 90.3432Z" fill="#B8C0C7"/>
</g>
<g opacity="0.3">
<path d="M182.091 101.449H128.342C127.585 101.449 126.984 100.848 126.984 100.09C126.984 99.3322 127.585 98.7312 128.342 98.7312H182.091C182.848 98.7312 183.449 99.3322 183.449 100.09C183.449 100.822 182.848 101.449 182.091 101.449Z" fill="#B8C0C7"/>
<path d="M202.54 101.449H188.358C187.601 101.449 187 100.848 187 100.09C187 99.3322 187.601 98.7312 188.358 98.7312H202.54C203.297 98.7312 203.898 99.3322 203.898 100.09C203.898 100.822 203.297 101.449 202.54 101.449Z" fill="#B8C0C7"/>
<path d="M148.635 109.889H128.342C127.585 109.889 126.984 109.288 126.984 108.53C126.984 107.772 127.585 107.171 128.342 107.171H148.635C149.393 107.171 149.993 107.772 149.993 108.53C149.993 109.288 149.367 109.889 148.635 109.889Z" fill="#B8C0C7"/>
<path d="M181.493 109.889H153.678C152.921 109.889 152.32 109.288 152.32 108.53C152.32 107.772 152.921 107.171 153.678 107.171H181.467C182.224 107.171 182.825 107.772 182.825 108.53C182.851 109.288 182.224 109.889 181.493 109.889Z" fill="#B8C0C7"/>
</g>
<path d="M83.2661 62.5139H89.0118L104.525 98.078H97.9699L94.3919 89.5593H77.7032L74.073 98.078H67.7266L83.2661 62.5139ZM92.1458 84.0457L86.0345 69.935L79.9754 84.0457H92.1458Z" fill="#E9E9E9"/>
<path d="M89.3994 121.099H58.3203V127.109H89.3994V121.099Z" fill="#2A50C8"/>
<path d="M89.3994 127.109H58.3203V133.119H89.3994V127.109Z" fill="#384152"/>
<path d="M89.3994 133.119H58.3203V139.13H89.3994V133.119Z" fill="#083AD3"/>
<path d="M112.311 124.496H95.2043C94.4991 124.496 93.8984 123.921 93.8984 123.19C93.8984 122.484 94.473 121.883 95.2043 121.883H112.311C113.016 121.883 113.617 122.458 113.617 123.19C113.591 123.921 113.016 124.496 112.311 124.496Z" fill="#B8C0C7"/>
<path d="M106.539 129.069H95.2043C94.4991 129.069 93.8984 128.494 93.8984 127.763C93.8984 127.057 94.473 126.456 95.2043 126.456H106.539C107.244 126.456 107.845 127.031 107.845 127.763C107.845 128.494 107.27 129.069 106.539 129.069Z" fill="#B8C0C7"/>
<path d="M89.3994 152.143H58.3203V164.398H89.3994V152.143Z" fill="#0C35B4"/>
<path d="M89.3994 161.393H58.3203V170.173H89.3994V161.393Z" fill="#384152"/>
<path d="M58.3203 152.143L69.4722 161.524L58.3203 170.147V152.143Z" fill="#2148C0"/>
<path d="M112.311 155.54H95.2043C94.4991 155.54 93.8984 154.965 93.8984 154.233C93.8984 153.528 94.473 152.927 95.2043 152.927H112.311C113.016 152.927 113.617 153.501 113.617 154.233C113.591 154.965 113.016 155.54 112.311 155.54Z" fill="#B8C0C7"/>
<path d="M106.539 160.113H95.2043C94.4991 160.113 93.8984 159.538 93.8984 158.806C93.8984 158.101 94.473 157.5 95.2043 157.5H106.539C107.244 157.5 107.845 158.074 107.845 158.806C107.845 159.538 107.27 160.113 106.539 160.113Z" fill="#B8C0C7"/>
<path d="M241.011 36.0694C241.011 36.0694 241.821 45.7117 239.627 45.5811C237.433 45.4243 233.098 41.1911 224.323 41.8705C215.573 42.5499 204.839 44.4836 198.362 33.0121C191.885 21.5407 206.641 18.2482 206.641 18.2482L241.011 36.0694Z" fill="#151F2C"/>
<path d="M222.414 35.3639L266.526 38.9961L267.44 37.0363L225.131 5.78378L182.403 0.792786L181.594 2.54355L222.414 35.3639Z" fill="#384152"/>
<path d="M252.428 68.6285C252.167 67.7139 251.227 67.1913 250.313 67.4526C249.399 67.7139 248.876 68.6546 249.138 69.5692C249.399 70.4838 250.339 71.0064 251.253 70.7451C252.167 70.4838 252.689 69.5169 252.428 68.6285Z" fill="#2148C0"/>
<path d="M250.962 69.0988C252.738 68.9682 253.156 85.0648 253.156 85.0648C253.156 85.0648 252.007 85.6135 251.432 85.4829C250.857 85.3522 250.57 83.1834 250.57 83.1834L250.518 85.4568C250.518 85.4568 248.585 85.5352 247.906 85.0387C247.906 85.0648 248.167 69.3079 250.962 69.0988Z" fill="#2148C0"/>
<path d="M251.536 69.4647L251.223 34.2403L250.988 34.0835L227.953 17.0201L227.117 18.1437L249.943 35.0242L250.44 69.3863L251.536 69.4647Z" fill="#2148C0"/>
<path d="M281.282 235.526H184.336V198.682H281.595C289.456 198.682 295.829 205.058 295.829 212.923V220.971C295.829 229.02 289.326 235.526 281.282 235.526Z" fill="#E9E9E9"/>
<path d="M378.984 213.838V219.377C378.984 222.33 378.253 225.126 376.947 227.504C374.336 232.312 369.478 235.526 363.915 235.526H181.358C180.156 235.526 179.164 234.481 179.164 233.174V232.338C179.164 231.058 180.13 229.986 181.358 229.986H292.642C293.243 229.203 293.765 228.366 294.209 227.478C295.254 225.387 295.828 222.983 295.828 220.423V213.367C295.828 212.061 295.671 210.806 295.384 209.604C294.888 207.566 294 205.711 292.799 204.143H181.358C180.156 204.143 179.164 203.098 179.164 201.791V200.955C179.164 199.649 180.13 198.603 181.358 198.603H364.829C371.306 198.603 376.738 203.255 378.436 209.578C378.801 210.989 378.984 212.4 378.984 213.838Z" fill="#2148C0"/>
<path d="M378.436 209.657H295.384C294.888 207.618 294 205.763 292.799 204.195H181.358C180.156 204.195 179.164 203.15 179.164 201.844V201.007C179.164 199.701 180.13 198.656 181.358 198.656H364.829C371.306 198.682 376.738 203.333 378.436 209.657Z" fill="#1236A5"/>
<path d="M184.336 217.104L197.864 217.731L184.336 218.097V217.104Z" fill="#B8C0C7"/>
<path d="M184.336 222.879L216.486 223.506L184.336 223.872V222.879Z" fill="#B8C0C7"/>
<path d="M170.175 264.113H265.345V235.448H169.339C162.209 235.448 156.438 241.223 156.438 248.356V250.342C156.411 257.973 162.575 264.113 170.175 264.113Z" fill="#677282"/>
<path d="M260.752 264.113H369.216V235.448H260.465C253.204 235.448 247.328 241.327 247.328 248.592V250.682C247.328 258.103 253.335 264.113 260.752 264.113Z" fill="#E9E9E9"/>
<path d="M240.141 264.113H372.841C373.938 264.113 374.826 263.225 374.826 262.127V261.84C374.826 260.743 373.938 259.854 372.841 259.854H240.141C239.044 259.854 238.156 260.743 238.156 261.84V262.127C238.156 263.225 239.044 264.113 240.141 264.113Z" fill="#677282"/>
<path d="M240.141 239.733H372.841C373.938 239.733 374.826 238.845 374.826 237.747V237.46C374.826 236.362 373.938 235.474 372.841 235.474H240.141C239.044 235.474 238.156 236.362 238.156 237.46V237.747C238.156 238.845 239.044 239.733 240.141 239.733Z" fill="#677282"/>
<path d="M369.186 249.794L354.43 250.264L369.186 250.551V249.794Z" fill="#B8C0C7"/>
<path d="M369.185 243.183L334.031 243.679L369.185 243.966V243.183Z" fill="#B8C0C7"/>
<path d="M334.398 243.575C334.398 243.575 335.913 244.803 336.409 246.841C336.488 247.207 336.566 247.573 336.566 247.965C336.645 250.656 336.566 256.744 336.566 256.744L341.006 253.713L345.446 256.744V248.487C345.446 246.919 345.054 245.404 344.349 244.411C344.009 243.94 343.592 243.575 343.121 243.575H334.398Z" fill="#2148C0"/>
<path d="M334.398 243.575C334.398 243.575 335.913 244.803 336.409 246.841L345.315 246.972C345.315 246.972 344.976 244.071 343.121 243.601H334.398V243.575Z" fill="#1236A5"/>
<path d="M253.541 198.76H159.859V156.637H253.854C262.159 156.637 268.897 163.379 268.897 171.689V183.343C268.923 191.862 262.029 198.76 253.541 198.76Z" fill="#E9E9E9"/>
<path d="M268.977 172.995V182.063C268.951 185.93 267.149 189.301 264.537 191.078C263.231 191.966 261.743 192.463 260.15 192.463H157.014C155.813 192.463 154.82 193.638 154.82 195.076V196.147C154.82 197.584 155.813 198.76 157.014 198.76H335.183C340.302 198.76 344.821 195.729 347.537 191.078C349.26 188.151 350.279 184.571 350.279 180.73V173.57C350.279 170.931 349.783 168.422 348.869 166.201C346.57 160.531 341.713 156.637 336.098 156.637H157.014C155.813 156.637 154.82 157.813 154.82 159.25V160.322C154.82 161.759 155.813 162.935 157.014 162.935H260.463C262.944 162.935 265.164 164.189 266.731 166.201C268.115 168.004 268.951 170.382 268.977 172.995Z" fill="#A7ADB3"/>
<path d="M154.82 195.076V196.147C154.82 197.584 155.813 198.76 157.014 198.76H335.183C340.302 198.76 344.821 195.729 347.537 191.078H264.537C263.231 191.966 261.743 192.463 260.15 192.463H157.014C155.787 192.463 154.82 193.638 154.82 195.076Z" fill="#677282"/>
<path d="M159.859 177.699L173.101 178.404L159.859 178.848V177.699Z" fill="#B8C0C7"/>
<path d="M159.859 168.004L191.33 168.71L159.859 169.154V168.004Z" fill="#B8C0C7"/>
<path d="M190.992 168.579C190.992 168.579 188.929 169.912 188.223 172.107C188.093 172.499 188.014 172.891 188.014 173.335C187.91 176.261 188.014 182.846 188.014 182.846L181.877 179.554L175.766 182.846V173.91C175.766 172.211 176.288 170.565 177.254 169.494C177.724 168.971 178.299 168.579 178.952 168.579H190.992Z" fill="#2148C0"/>
<path d="M190.989 168.579C190.989 168.579 188.925 169.912 188.22 172.107L175.945 172.237C175.945 172.237 176.415 169.102 178.975 168.579H190.989Z" fill="#1236A5"/>
<path d="M34.4514 195.023C34.4514 195.023 53.6473 203.385 57.1469 203.229C60.6205 203.072 82.1147 196.696 82.1147 196.696L81.5662 200.38C81.5662 200.38 64.982 209.918 59.2102 210.467C53.5167 210.989 34.0074 205.345 32.127 204.143C30.1943 202.967 28.9668 196.252 34.4514 195.023Z" fill="#DE6B4D"/>
<path d="M31.5497 164.241C31.5497 164.241 24.472 162.882 20.9463 165.469C14.5476 170.147 14.2081 186.243 11.8054 188.621C9.4026 191.025 3.63077 190.006 3.13455 202.392C2.61221 214.804 5.43283 215.824 2.08987 221.363C-1.25309 226.903 3.50019 232.443 3.50019 232.443C3.50019 232.443 1.54142 229.386 2.37716 227.191C2.37716 227.191 3.18678 232.051 6.29469 233.201C9.37648 234.35 9.84659 235.187 10.3428 236.859C10.3428 236.859 36.7209 223.323 36.747 213.733C36.7731 204.143 41.9442 194.631 39.4109 190.477C39.4109 190.477 40.5339 192.254 40.6906 194.239C40.6906 194.239 42.2054 191.313 39.5676 188.621C36.9298 185.904 42.6494 180.286 41.8136 173.779C41.213 169.337 38.0789 164.45 31.5497 164.241Z" fill="#151F2C"/>
<path d="M36.7759 204.169C35.0783 205.345 32.9628 206.312 30.325 206.913C20.3745 209.212 16.5614 200.798 15.125 195.023C16.4831 194.239 17.7628 194.083 18.4941 193.978C19.2253 193.9 19.9566 193.848 20.5834 193.795C21.7065 192.933 23.3779 189.431 23.7436 183.996L24.2137 184.127L32.0487 186.27C32.0487 186.27 31.6831 188.752 31.5264 191.13C31.3958 192.985 31.3697 194.736 31.7092 195.18C32.3099 195.311 32.6755 195.389 32.6755 195.389C32.8061 195.598 35.0783 199.335 36.7759 204.169Z" fill="#EE805F"/>
<path d="M32.0694 186.296C32.0694 186.296 31.7038 188.778 31.5471 191.156C27.1072 190.712 25.044 186.479 24.2344 184.153L32.0694 186.296Z" fill="#DE6B4D"/>
<path d="M33.3776 188.647C33.3776 188.647 22.8264 188.073 23.2965 181.514C23.7666 174.955 22.7219 170.46 29.4601 170.539C36.2244 170.643 37.3474 173.23 37.713 175.451C38.1048 177.673 36.146 188.621 33.3776 188.647Z" fill="#EE805F"/>
<path d="M37.6889 171.767C36.2003 169.676 34.9467 170.016 34.2154 170.565C28.6786 166.985 24.6305 171.401 24.6305 171.401C23.5858 176.052 20.0078 178.509 20.0078 178.509C20.0078 178.509 21.836 179.841 26.3542 179.005C27.7384 178.744 29.0181 177.882 30.115 176.784C28.104 179.658 25.5185 181.644 25.5185 181.644C30.9769 179.58 33.6408 172.368 33.902 171.61C34.5027 172.237 35.6779 173.57 35.9913 174.85C36.4092 176.549 38.1329 179.24 39.1515 179.188C39.1254 179.214 39.9089 174.903 37.6889 171.767Z" fill="#151F2C"/>
<path d="M12.12 225.623C11.1798 220.762 8.07191 201.295 11.1798 195.023C12.3028 192.776 16.6644 192.567 21.4699 192.776C22.9585 193.743 28.652 197.375 31.0025 196.931C31.0286 196.931 31.0809 196.905 31.1331 196.905C32.23 196.617 32.6479 195.86 31.7338 195.18C31.7338 195.18 34.1104 194.945 37.0617 195.52C38.7331 195.833 43.2252 198.159 43.2252 198.159C43.2252 198.159 40.9531 202.262 37.6101 203.673C38.1847 208.768 37.3228 210.989 32.0733 222.748C27.6073 232.678 32.674 241.615 32.674 241.615C32.674 241.615 6.45266 262.702 6.32208 251.963C6.19149 243.862 13.3475 231.842 12.12 225.623Z" fill="#384152"/>
<path d="M33.9511 264.531C35.3875 264.375 36.6672 263.591 37.4508 262.389C37.5813 262.206 37.7119 261.997 37.8686 261.788C40.8459 257.267 42.0212 243.418 48.7332 228.68C50.3786 225.1 56.2288 224.447 57.848 220.396C57.848 220.396 61.7917 207.253 50.3003 206.861C38.8349 206.469 19.5607 243.47 19.2473 247.337C18.96 251.074 11.6734 267.04 33.9511 264.531Z" fill="#1236A5"/>
<path d="M79.5796 264.218H63.2304C63.2304 264.218 62.6297 261.605 63.7005 259.828C64.6407 258.26 64.2751 257.372 63.57 256.065C64.3012 256.379 65.2675 256.64 66.3122 256.588C67.1218 256.535 67.9837 256.17 68.7411 255.725C69.4462 256.535 72.4497 259.932 73.3899 260.612C74.4868 261.396 79.2662 261.134 79.5796 264.218Z" fill="#151F2C"/>
<path d="M58.2181 210.624C59.2106 217.992 63.0497 241.301 69.814 252.668C72.0078 256.326 64.3033 258.391 64.2772 258.365C63.2587 258.103 61.535 256.457 60.7253 255.725C55.2147 250.761 44.0628 236.728 44.0628 225.466C44.0628 219.978 43.9583 209.474 47.9542 206.808C50.4092 205.188 57.8264 207.697 58.2181 210.624Z" fill="#1236A5"/>
<path d="M24.2083 264.218C24.2083 264.218 24.809 263.382 25.8798 261.762C27.1334 259.854 28.5176 256.117 30.2152 251.309C31.9912 246.266 34.0805 240.073 36.7183 233.619C37.5279 231.633 38.3898 229.621 39.3039 227.609C40.9493 224.029 45.4414 224.525 47.0345 220.449C47.0345 220.449 53.2764 206.39 41.8111 205.998C30.3197 205.606 8.51209 243.627 7.25848 247.311C5.87429 251.335 -0.811635 268.085 24.2083 264.218Z" fill="#2148C0"/>
<path d="M67.5874 264.218H51.2382C51.2382 264.218 50.6376 261.605 51.7083 259.828C52.6486 258.26 52.2829 257.372 51.5778 256.065C52.309 256.379 53.2754 256.64 54.32 256.588C55.1297 256.535 55.9915 256.17 56.7489 255.725C57.4541 256.535 60.4575 259.932 61.3977 260.612C62.4946 261.396 67.2479 261.134 67.5874 264.218Z" fill="#384152"/>
<path d="M30.2196 251.335C31.9956 246.292 34.0849 240.099 36.7227 233.645C36.0437 228.758 34.555 224.473 32.0739 222.748C32.0739 222.722 26.0148 241.458 30.2196 251.335Z" fill="#1236A5"/>
<path d="M48.6807 210.101C49.6731 217.47 51.0573 241.301 57.8216 252.668C60.0154 256.326 52.3109 258.391 52.2848 258.365C51.2662 258.103 49.5425 256.457 48.7329 255.725C43.2222 250.761 32.0703 236.728 32.0703 225.466C32.0703 219.978 38.5212 209.918 42.4909 207.253C44.9459 205.633 48.2889 207.174 48.6807 210.101Z" fill="#2148C0"/>
<path d="M35.3599 184.859C35.3599 184.859 34.3675 184.467 31.5469 184.702C31.5469 184.702 31.7036 185.799 33.7668 185.904C34.9421 185.956 35.3599 184.859 35.3599 184.859Z" fill="white"/>
<path d="M84.1481 188.987L80.7529 182.873L73.4141 203.307L77.7495 207.958L84.1481 188.987Z" fill="#151F2C"/>
<path d="M66.4388 192.567L59.6484 212.035L77.7474 207.958L84.1461 188.987L66.4388 192.567Z" fill="#151F2C"/>
<path d="M59.9853 211.042L59.6719 210.493L66.1227 192.071L66.4361 192.567L59.9853 211.042Z" fill="#EFDECE"/>
<path d="M66.125 192.071L83.2838 188.726L84.1456 188.987L66.4384 192.567L66.125 192.071Z" fill="#E9E9E9"/>
<path d="M84.1475 188.987L80.465 183.16L78.1406 189.719L83.2857 188.726L84.1475 188.987Z" fill="#EFDECE"/>
<path d="M71.6652 195.389C71.0645 195.285 69.8109 194.788 68.5312 194.449C68.923 194.161 69.3408 193.795 69.4453 193.403C69.6803 192.672 69.837 192.463 69.0535 192.672C68.2962 192.907 65.6322 194.109 65.6322 194.109C64.1175 194.553 62.7333 196.696 62.7333 196.696C62.7333 196.696 44.0075 203.281 41.7614 203.385C38.2879 203.568 15.0961 195.023 15.0961 195.023C9.61153 196.225 10.839 202.967 12.7456 204.143C14.626 205.345 31.3146 211.407 41.2129 211.512C46.2274 211.564 64.4309 199.858 64.4309 199.858C64.4309 199.858 66.5724 198.891 68.2439 199.178C69.9154 199.492 73.8068 199.178 74.6426 197.819C75.4783 196.487 72.6577 195.572 71.6652 195.389Z" fill="#EE805F"/>
<path d="M27.0876 199.257C27.0876 199.257 25.0243 205.815 17.8944 207.331C17.8944 207.331 6.14183 203.699 11.992 195.677C11.9659 195.677 17.7638 191.365 27.0876 199.257Z" fill="#384152"/>
<path d="M83.8364 195.86C83.8364 195.677 83.8103 195.494 83.7842 195.337C83.7842 195.337 82.1127 192.672 81.5642 192.567C79.8928 192.227 79.8928 194.449 80.2584 195.86C80.4935 196.853 81.1464 197.793 81.6426 198.316L81.5642 200.406C84.3588 198.839 83.8364 195.86 83.8364 195.86Z" fill="#EE805F"/>
<path d="M265.606 191.365C268.687 196.8 272.579 198.943 272.579 198.943L288.876 199.048C288.876 199.048 263.255 187.21 265.606 191.365Z" fill="#151F2C"/>
<path d="M277.828 233.436C278.246 233.932 278.298 234.481 278.089 235.056C277.697 236.127 276.391 237.329 274.903 238.505C274.72 238.662 274.537 238.793 274.38 238.923C274.354 238.949 274.302 239.002 274.276 239.028C274.25 239.054 274.224 239.08 274.198 239.106C272.787 240.387 273.31 240.674 270.802 243.261C267.93 246.214 265.971 246.24 265.422 245.979C264.952 245.743 265.919 244.176 266.989 242.425C267.042 242.346 267.094 242.242 267.146 242.163C267.277 241.928 267.433 241.693 267.564 241.458C268.818 239.341 268.504 238.348 268.243 235.16C268.034 232.573 264.352 220.762 264.352 220.762L269.81 219.848C269.81 219.848 271.377 229.255 273.179 230.718C274.145 231.502 275.216 231.502 276.156 232.103C276.235 232.155 276.287 232.181 276.339 232.234C276.862 232.573 277.41 232.939 277.828 233.436Z" fill="#EE805F"/>
<path d="M277.83 233.436C278.247 233.932 278.3 234.481 278.091 235.056C277.594 236.127 276.341 237.303 274.904 238.505C274.722 238.662 274.539 238.793 274.408 238.923C274.382 238.949 274.33 239.002 274.304 239.028C274.278 239.054 274.252 239.08 274.225 239.106C272.815 240.387 273.337 240.674 270.83 243.261C267.957 246.214 265.999 246.24 265.45 245.979C264.98 245.743 265.946 244.176 267.017 242.425C267.566 242.216 270.151 241.197 272.136 238.714C273.86 236.545 275.035 233.723 276.21 232.103C276.289 232.155 276.341 232.181 276.393 232.234C276.863 232.573 277.412 232.939 277.83 233.436Z" fill="#151F2C"/>
<path d="M233.825 229.699C233.485 231.371 231.082 231.084 228.392 230.405C225.702 229.725 226.355 230.509 222.516 230.065C218.703 229.621 217.554 228.183 217.449 227.609C217.345 227.112 219.225 226.929 221.263 226.72C221.524 226.694 221.785 226.668 222.02 226.642C224.318 226.38 225.99 224.917 228.079 223.715C230.064 222.591 233.015 217.914 233.015 217.914L238.265 218.358C238.265 218.358 235.496 222.513 234.399 224.316C233.773 225.387 233.799 226.799 233.851 227.896C233.903 228.497 233.929 229.124 233.825 229.699Z" fill="#EE805F"/>
<path d="M228.392 230.405C225.702 229.725 226.355 230.509 222.516 230.065C218.703 229.621 217.554 228.183 217.449 227.609C217.345 227.112 219.225 226.929 221.263 226.72L221.289 226.746C221.289 226.746 223.561 228.393 226.747 228.497C229.333 228.575 232.101 227.844 233.877 227.896C233.903 228.497 233.955 229.098 233.825 229.699C233.459 231.398 231.056 231.084 228.392 230.405Z" fill="#151F2C"/>
<path d="M254.141 196.33L258.946 209.552L265.214 226.825C265.214 226.825 266.938 227.008 268.609 226.537C270.15 226.093 271.9 224.969 271.9 224.969C271.9 224.969 270.255 206.469 267.016 195.833C266.18 193.116 265.24 190.895 264.222 189.64C259.129 183.5 254.141 196.33 254.141 196.33Z" fill="#151F2C"/>
<path d="M259.261 175.425C262.474 174.406 271.615 175.817 280.808 177.673L282.767 174.511L302.642 173.1C302.642 173.1 309.092 187.681 305.436 196.931C304.888 198.29 303.582 198.865 301.806 198.865C301.806 198.865 289.949 199.074 286.11 199.048C276.237 198.969 265.268 192.097 263.832 191.809C261.507 191.313 260.541 195.99 258.164 200.877C255.788 205.763 236.07 222.435 236.07 222.435C236.07 222.435 233.066 222.435 231.813 221.964C230.481 221.442 229.984 220.788 229.984 220.788C229.984 220.788 252.001 177.699 259.261 175.425Z" fill="#384152"/>
<path d="M283.051 147.126C290.103 151.071 304.389 159.25 304.467 159.198C304.467 159.198 309.717 161.236 312.72 159.25C317.735 155.984 320.477 147.073 311.414 139.339C306.896 135.471 303.658 134.53 303.214 128.416C302.978 125.097 298.513 114.122 290.991 115.089C290.364 115.168 289.737 115.22 289.084 115.194C288.196 115.168 286.76 115.272 285.271 116.16C280.988 118.669 272.474 145.558 283.051 147.126Z" fill="#151F2C"/>
<path d="M289.013 143.859C288.987 143.885 292.486 145.113 294.837 144.068C297.057 143.101 298.754 139.495 298.728 139.469C297.736 139.417 296.639 138.529 295.829 132.754L295.411 132.91L288.203 135.445C288.203 135.445 288.699 137.771 289.039 139.966C289.274 141.847 289.405 143.598 289.013 143.859Z" fill="#EE805F"/>
<path d="M288.172 135.471C288.172 135.471 288.485 137.091 288.903 139.417C293.03 138.711 294.779 135.184 295.38 132.937L288.172 135.471Z" fill="#DE6B4D"/>
<path d="M287.076 137.745C287.076 137.745 296.922 136.49 296.06 130.376C295.198 124.261 295.877 119.976 289.531 120.498C283.21 121.047 282.322 123.556 282.113 125.672C281.904 127.789 284.49 137.928 287.076 137.745Z" fill="#EE805F"/>
<path d="M282.508 122.327C282.508 122.327 288.776 127.815 293.059 128.259C297.342 128.729 298.961 127.371 298.961 127.371C298.961 127.371 296.454 125.254 294.966 121.857C294.522 120.864 293.581 120.159 292.484 120.054C289.429 119.767 283.631 119.61 282.508 122.327Z" fill="#151F2C"/>
<path d="M286.449 121.857C286.449 121.857 284.334 123.869 283.655 125.385C283.002 126.848 282.793 130.323 283.289 131.708C283.289 131.708 280.05 125.306 281.931 122.197C283.916 118.956 286.449 121.857 286.449 121.857Z" fill="#151F2C"/>
<path d="M280.626 158.31C280.782 178.247 280.599 174.066 282.767 175.974C283.289 176.444 284.752 176.706 286.711 176.862C292.822 177.307 303.556 176.392 303.974 175.242C305.41 171.349 304.418 170.121 305.646 164.137C305.776 163.51 305.933 162.804 306.116 162.072C307.134 157.97 308.1 156.585 304.653 149.948C301.545 143.938 298.307 139.077 297.993 139.234C289.636 144.121 289.009 139.966 289.009 139.966C289.009 139.966 280.547 148.589 280.626 158.31Z" fill="#2148C0"/>
<path d="M258.945 209.552L265.213 226.825C265.213 226.825 266.937 227.008 268.609 226.537C270.149 226.093 271.899 224.969 271.899 224.969C271.899 224.969 270.254 206.469 267.015 195.833L258.945 209.552Z" fill="#384152"/>
<path d="M288.98 139.992C288.98 139.992 280.414 141.377 279.369 145.061C278.351 148.746 272.266 170.382 272.266 170.382C272.266 170.382 276.601 171.192 278.638 169.206C280.675 167.22 285.768 150.601 285.768 150.601L288.98 139.992Z" fill="#2148C0"/>
<path d="M286.688 176.862C292.799 177.307 303.533 176.392 303.951 175.242C305.387 171.349 304.395 170.121 305.622 164.137L302.723 155.827C302.723 155.827 303.141 165.077 300.399 167.482C297.657 169.886 289.221 172.107 287.863 174.119C287.262 175.112 286.818 176.079 286.688 176.862Z" fill="#1236A5"/>
<path d="M293.714 173.021C293.714 173.021 287.707 171.636 286.715 172.159C285.748 172.682 283.346 174.615 283.058 175.295C282.745 175.974 285.226 174.798 286.036 174.589C286.558 174.458 287.916 174.929 288.595 175.164C291.442 176.131 293.166 175.66 293.166 175.66L293.714 173.021Z" fill="#EE805F"/>
<path d="M297.994 139.26C297.994 139.26 306.09 139.809 308.858 143.755C312.75 149.294 320.428 172.786 315.91 175.896C310.843 179.371 292.927 176.653 292.927 176.653C292.927 176.653 292.352 173.857 293.188 172.525C294.024 171.192 307.526 169.102 308.153 168.474C308.78 167.847 300.449 156.271 300.475 154.416C300.501 152.509 297.994 139.26 297.994 139.26Z" fill="#2148C0"/>
<path d="M286.424 173.831C286.424 173.831 285.144 175.451 284.726 175.634C284.308 175.817 284.047 175.765 284.047 175.765L284.909 174.249L286.424 173.831Z" fill="#EE805F"/>
<path d="M286.737 172.159L283.055 173.91C283.055 173.91 283.211 174.171 283.655 174.145C284.099 174.119 285.249 173.727 285.249 173.727L286.737 172.159Z" fill="#EE805F"/>
<path d="M285.507 178.274L256.491 178.091L247.898 156.297L276.888 156.48L285.507 178.274Z" fill="#151F2C"/>
<path d="M256.148 177.228L294.488 177.49V178.352L256.488 178.091L256.148 177.228Z" fill="#151F2C"/>
<path d="M263.88 167.272C263.671 166.515 264.115 165.888 264.872 165.888C265.63 165.888 266.439 166.515 266.648 167.272C266.857 168.03 266.413 168.657 265.656 168.657C264.898 168.657 264.089 168.03 263.88 167.272Z" fill="white"/>
<path d="M109.05 246.846L109.047 264.406L197.27 264.423L197.273 246.863L109.05 246.846Z" fill="#414752"/>
<path d="M109.044 264.427L96.0634 258.887L88.5156 255.647L96.2462 252.355L109.044 246.893C109.044 246.893 110.741 251.179 110.767 255.177C110.819 261.474 109.044 264.427 109.044 264.427Z" fill="#E9E9E9"/>
<path d="M207.53 252.72V258.26C207.53 261.683 204.761 264.427 201.34 264.427H197.266V246.867H201.705C204.918 246.893 207.53 249.506 207.53 252.72Z" fill="#E9E9E9"/>
<path d="M96.2462 252.328C96.5596 254.105 96.8469 256.823 96.0634 258.861L88.5156 255.621L96.2462 252.328Z" fill="#151F2C"/>
<path d="M128 155.487C128 155.487 129.593 162.36 134.19 162.36C138.133 162.36 143.566 153.423 143.566 153.423L128 155.487Z" fill="#2148C0"/>
<path d="M180.918 256.823L177.967 258.861C177.967 258.861 163.733 243.679 160.286 229.124C159.685 226.537 159.424 223.976 159.685 221.52C159.685 221.52 159.476 220.867 159.11 219.691C159.084 219.639 159.084 219.586 159.058 219.534C158.902 219.012 158.719 218.411 158.484 217.731C157.805 215.536 156.838 212.531 155.768 209.108C153.286 201.216 147.593 183.447 145.164 176.052L162.636 169.729C162.636 169.729 164.621 174.249 167.468 186.557C167.912 188.151 168.356 189.928 168.748 191.888C169.218 194.083 169.636 196.487 170.001 199.074C170.602 203.464 171.02 208.402 171.046 213.811C171.046 216.006 170.994 218.306 170.863 220.658C170.759 222.382 171.02 224.682 171.516 227.295C173.762 239.289 180.918 256.823 180.918 256.823Z" fill="#384152"/>
<path d="M190.215 264.14H176.086C176.086 264.14 175.564 261.892 176.478 260.351C177.287 258.992 176.974 258.208 176.373 257.084C177.026 257.345 177.836 257.581 178.75 257.528C179.455 257.476 180.186 257.163 180.839 256.797C181.44 257.502 184.052 260.455 184.861 261.03C185.828 261.709 189.928 261.474 190.215 264.14Z" fill="#151F2C"/>
<path d="M170.027 199.1L159.058 219.586C158.902 219.064 158.719 218.463 158.484 217.783C157.805 215.588 156.838 212.583 155.768 209.16C153.286 201.269 147.593 183.5 145.164 176.105L162.636 169.781C162.636 169.781 164.621 174.302 167.468 186.609C167.912 188.203 168.356 189.98 168.748 191.94C169.244 194.109 169.662 196.513 170.027 199.1Z" fill="#151F2C"/>
<path d="M144.875 259.723C144.875 259.723 143.909 262.127 144.823 264.14H152.501C152.501 264.14 152.658 262.31 149.863 260.194C147.774 258.6 144.875 259.723 144.875 259.723Z" fill="#151F2C"/>
<path d="M153.261 103.435C153.261 103.043 153.47 98.9141 159.738 98.5483C159.738 98.5483 156.656 98.9925 156.16 100.351C156.16 100.351 158.223 98.6267 159.947 99.1232C161.67 99.6197 162.741 102.599 162.793 103.592C162.82 104.585 161.958 107.773 160.887 108.086C160.469 108.191 159.999 108.191 159.581 108.112C159.868 108.556 160.182 109.053 160.469 109.602C163.107 114.671 160.835 120.655 158.693 120.159C157.335 119.845 156.499 122.197 156.499 122.197L143.336 110.882C143.284 110.882 147.881 100.743 153.261 103.435Z" fill="#151F2C"/>
<path d="M144.977 137.823C146.439 138.842 148.267 139.678 150.566 140.201C159.158 142.187 162.475 134.922 163.702 129.931C162.527 129.252 161.43 129.121 160.777 129.043C160.15 128.965 159.498 128.912 158.949 128.886C157.983 128.155 156.546 125.123 156.233 120.42L155.841 120.524L149.051 122.38C149.051 122.38 149.364 124.549 149.521 126.587C149.651 128.181 149.651 129.696 149.364 130.088C148.842 130.193 148.528 130.271 148.528 130.271C148.424 130.402 146.439 133.616 144.977 137.823Z" fill="#EE805F"/>
<path d="M149.055 122.354C149.055 122.354 149.368 124.496 149.525 126.561C153.364 126.169 155.14 122.51 155.845 120.498L149.055 122.354Z" fill="#DE6B4D"/>
<path d="M148.972 125.594C148.972 125.594 157.825 123.32 156.31 117.833C154.822 112.345 154.952 108.347 149.233 109.576C143.513 110.804 142.991 113.182 143.069 115.141C143.121 117.101 146.647 126.038 148.972 125.594Z" fill="#EE805F"/>
<path d="M142.493 112.006C143.407 109.994 144.53 110.072 145.236 110.412C149.31 106.44 153.489 109.497 153.489 109.497C155.16 113.26 158.607 114.749 158.607 114.749C158.607 114.749 157.275 116.187 153.306 116.239C152.104 116.265 150.877 115.742 149.754 114.985C151.948 117.075 154.481 118.329 154.481 118.329C149.493 117.493 146.045 111.849 145.68 111.248C145.262 111.875 144.504 113.208 144.452 114.331C144.4 115.847 145.001 118.774 144.113 118.904C144.139 118.93 141.135 115.063 142.493 112.006Z" fill="#151F2C"/>
<path d="M146.438 129.775C146.438 129.775 161.298 126.169 167.749 131.499L164.511 176.549L135.469 169.52C135.469 169.52 136.278 166.671 141.867 159.093C147.43 151.516 145.001 140.384 146.438 129.775Z" fill="#EE805F"/>
<path d="M155.083 171.532C155.083 171.532 155.057 171.689 155.031 171.976C155.005 172.107 155.005 172.263 154.979 172.42C154.848 173.596 154.613 175.817 154.3 178.744C153.49 186.374 152.262 198.656 151.401 208.324C150.722 215.902 150.304 221.886 150.539 222.853C151.218 225.753 150.539 260.351 150.539 260.351C148.058 261.526 144.323 260.351 144.323 260.351C144.323 260.351 137.741 229.15 138.655 224.813C139.57 220.475 138.029 216.764 138.029 216.764C132.91 192.959 133.484 179.789 134.503 173.465C134.79 171.636 135.13 170.382 135.365 169.598C135.574 168.945 135.704 168.657 135.704 168.657C147.039 165.678 155.083 171.532 155.083 171.532Z" fill="#384152"/>
<path d="M169.737 144.356C169.032 149.765 166.159 156.402 165.114 159.982C165.114 159.982 166.838 172.368 165.193 175.765C165.01 176.157 164.775 176.418 164.488 176.549C158.428 179.188 134.845 176.627 133.852 169.023C133.487 166.253 142.837 156.533 143.385 155.357C143.62 154.86 143.855 153.292 142.758 150C141.217 154.782 132.625 153.423 132.625 153.423C133.644 151.698 136.151 139.783 138.945 134.4C141.061 130.35 146.676 129.775 146.676 129.775C146.676 129.775 149.026 133.485 154.668 132.963C160.335 132.44 161.354 128.965 161.354 128.965C161.354 128.965 166.368 129.644 167.909 130.872C168.196 131.055 170.677 137.248 169.737 144.356Z" fill="#2148C0"/>
<path d="M165.141 159.956C165.141 159.956 166.864 172.342 165.219 175.739C160.805 173.518 157.332 167.534 158.141 160.844C158.742 155.906 159.604 154.782 162.268 151.96C164.2 149.895 168.692 149.765 168.353 150.758C167.282 153.711 165.689 158.074 165.141 159.956Z" fill="#1236A5"/>
<path d="M146.725 145.323L156.833 161.55H139.621L129.984 145.662L146.725 145.323Z" fill="#384152"/>
<path d="M156.311 160.74L156.468 160.165L146.909 144.8L146.727 145.323L156.311 160.74Z" fill="#EFDECE"/>
<path d="M146.908 144.8L130.69 145.27L129.984 145.662L146.725 145.323L146.908 144.8Z" fill="#E9E9E9"/>
<path d="M129.987 145.662L120.898 140.723L131.502 157.395L139.624 161.55L129.987 145.662Z" fill="#151F2C"/>
<path d="M178.12 157.029C177.154 157.473 174.647 160.426 173.759 160.714C169.737 162.046 152.656 158.492 152.656 158.492L153.179 155.487C153.179 155.487 169.946 155.932 171.774 155.435C172.113 155.331 173.942 152.509 174.621 152.09L178.12 157.029Z" fill="#EE805F"/>
<path d="M153.179 155.514C153.179 155.514 151.168 153.867 149.783 154.233C148.425 154.599 146.414 156.324 145.657 156.742C144.899 157.16 142.888 158.623 143.907 159.512C144.926 160.4 148.138 159.642 149.392 158.963C150.671 158.283 152.63 158.519 152.63 158.519L153.179 155.514Z" fill="#EE805F"/>
<path d="M150.177 154.181C150.177 154.181 147.722 153.893 147.043 153.893C146.364 153.92 146.547 154.05 146.913 154.573C147.278 155.095 148.558 155.305 148.61 155.487C148.715 155.67 150.177 154.181 150.177 154.181Z" fill="#EE805F"/>
<path d="M161.381 128.938C161.381 128.938 168.667 129.801 170.678 132.937C173.211 136.882 179.192 152.639 179.009 156.585C179.009 156.585 174.622 164.032 159.631 162.856C159.631 162.856 158.064 157.343 161.224 155.514C161.224 155.514 168.928 154.155 169.816 153.371L163.522 141.952L161.381 128.938Z" fill="#2148C0"/>
<path d="M132.31 151.594C132.075 150.679 130.09 151.254 129.411 151.777C129.254 151.908 129.072 152.117 128.889 152.378C128.863 152.221 128.837 152.064 128.837 151.96C128.81 151.516 128.288 150.758 128.184 151.333C128.053 151.907 127.844 154.338 127.844 154.338C127.818 156.297 129.072 157.108 129.881 156.454C130.691 155.853 132.545 152.509 132.31 151.594Z" fill="#EE805F"/>
</svg>
