<svg width="331" height="167" viewBox="0 0 331 167" fill="none" xmlns="http://www.w3.org/2000/svg">
<rect width="330.547" height="166.429" rx="8" fill="#F8E199"/>
<mask id="mask0_7893_6292" style="mask-type:alpha" maskUnits="userSpaceOnUse" x="0" y="0" width="331" height="167">
<rect width="330.547" height="166.429" rx="8" fill="#BFD1EF"/>
</mask>
<g mask="url(#mask0_7893_6292)">
<ellipse cx="234" cy="113" rx="109" ry="108" fill="#FBEECE"/>
</g>
<path d="M22.092 38.8027V25.7118H27.0011C28.0067 25.7118 28.8505 25.8993 29.5323 26.2743C30.2184 26.6493 30.7362 27.1649 31.0856 27.8212C31.4393 28.4732 31.6161 29.2147 31.6161 30.0456C31.6161 30.8851 31.4393 31.6309 31.0856 32.2828C30.7319 32.9348 30.2099 33.4483 29.5195 33.8233C28.8292 34.1941 27.979 34.3794 26.9691 34.3794H23.7156V32.4299H26.6495C27.2376 32.4299 27.7191 32.3276 28.0941 32.123C28.4691 31.9185 28.7461 31.6373 28.9251 31.2793C29.1083 30.9213 29.1999 30.5101 29.1999 30.0456C29.1999 29.5811 29.1083 29.1721 28.9251 28.8184C28.7461 28.4647 28.467 28.1898 28.0877 27.9938C27.7127 27.7935 27.229 27.6934 26.6367 27.6934H24.4634V38.8027H22.092ZM36.2232 39.0009C35.601 39.0009 35.0407 38.8901 34.5421 38.6685C34.0478 38.4426 33.6557 38.1103 33.3659 37.6713C33.0804 37.2324 32.9377 36.6912 32.9377 36.0478C32.9377 35.4938 33.04 35.0357 33.2445 34.6735C33.449 34.3113 33.7282 34.0215 34.0819 33.8042C34.4355 33.5868 34.834 33.4228 35.2772 33.312C35.7246 33.1969 36.187 33.1138 36.6642 33.0627C37.2395 33.003 37.7061 32.9498 38.0641 32.9029C38.4221 32.8517 38.682 32.775 38.8439 32.6728C39.0101 32.5662 39.0932 32.4022 39.0932 32.1806V32.1422C39.0932 31.6607 38.9505 31.2878 38.665 31.0236C38.3794 30.7594 37.9682 30.6273 37.4313 30.6273C36.8645 30.6273 36.415 30.7509 36.0826 30.998C35.7544 31.2452 35.5328 31.5371 35.4178 31.8738L33.2573 31.5669C33.4277 30.9703 33.709 30.4718 34.101 30.0712C34.4931 29.6664 34.9725 29.3638 35.5392 29.1635C36.106 28.959 36.7324 28.8567 37.4185 28.8567C37.8915 28.8567 38.3624 28.9121 38.8311 29.0229C39.2999 29.1337 39.7282 29.3169 40.1159 29.5726C40.5037 29.824 40.8148 30.1671 41.0492 30.6017C41.2878 31.0364 41.4071 31.5797 41.4071 32.2317V38.8027H39.1827V37.454H39.106C38.9654 37.7267 38.7672 37.9824 38.5115 38.2211C38.2601 38.4554 37.9426 38.6451 37.5591 38.79C37.1799 38.9306 36.7346 39.0009 36.2232 39.0009ZM36.824 37.3006C37.2885 37.3006 37.6912 37.209 38.0321 37.0257C38.373 36.8382 38.6351 36.5911 38.8184 36.2843C39.0059 35.9775 39.0996 35.6429 39.0996 35.2807V34.1238C39.0272 34.1834 38.9036 34.2388 38.7289 34.2899C38.5584 34.3411 38.3667 34.3858 38.1536 34.4242C37.9405 34.4625 37.7296 34.4966 37.5208 34.5265C37.312 34.5563 37.1309 34.5819 36.9775 34.6032C36.6323 34.65 36.3233 34.7267 36.0506 34.8333C35.7779 34.9398 35.5627 35.089 35.405 35.2807C35.2473 35.4682 35.1685 35.7111 35.1685 36.0094C35.1685 36.4355 35.324 36.7573 35.6351 36.9746C35.9462 37.1919 36.3425 37.3006 36.824 37.3006ZM43.7338 38.8027V28.9846H45.9775V30.6209H46.0797C46.2587 30.0542 46.5655 29.6174 47.0002 29.3105C47.4391 28.9995 47.9398 28.8439 48.5023 28.8439C48.6301 28.8439 48.7729 28.8503 48.9306 28.8631C49.0925 28.8716 49.2267 28.8865 49.3333 28.9078V31.0364C49.2353 31.0023 49.0797 30.9725 48.8667 30.9469C48.6578 30.9171 48.4554 30.9022 48.2594 30.9022C47.8375 30.9022 47.4583 30.9938 47.1216 31.177C46.7892 31.356 46.5272 31.6053 46.3354 31.9249C46.1436 32.2445 46.0478 32.6131 46.0478 33.0307V38.8027H43.7338ZM56.3006 28.9846V30.7743H50.6564V28.9846H56.3006ZM52.0499 26.6323H54.3638V35.8496C54.3638 36.1607 54.4107 36.3993 54.5044 36.5655C54.6025 36.7275 54.7303 36.8382 54.888 36.8979C55.0456 36.9576 55.2203 36.9874 55.4121 36.9874C55.557 36.9874 55.6891 36.9767 55.8084 36.9554C55.932 36.9341 56.0257 36.915 56.0897 36.8979L56.4796 38.7069C56.356 38.7495 56.1792 38.7963 55.949 38.8475C55.7232 38.8986 55.4462 38.9284 55.1181 38.937C54.5385 38.954 54.0165 38.8667 53.552 38.6749C53.0875 38.4789 52.7189 38.1763 52.4462 37.7672C52.1777 37.3581 52.0456 36.8468 52.0499 36.2331V26.6323ZM58.2358 38.8027V28.9846H60.5497V38.8027H58.2358ZM59.3991 27.5911C59.0327 27.5911 58.7173 27.4696 58.4531 27.2267C58.1889 26.9796 58.0568 26.6834 58.0568 26.3382C58.0568 25.9888 58.1889 25.6926 58.4531 25.4498C58.7173 25.2026 59.0327 25.079 59.3991 25.079C59.7699 25.079 60.0852 25.2026 60.3452 25.4498C60.6094 25.6926 60.7415 25.9888 60.7415 26.3382C60.7415 26.6834 60.6094 26.9796 60.3452 27.2267C60.0852 27.4696 59.7699 27.5911 59.3991 27.5911ZM67.2118 38.9945C66.2317 38.9945 65.3901 38.7793 64.687 38.3489C63.9881 37.9185 63.449 37.324 63.0698 36.5655C62.6948 35.8027 62.5073 34.9249 62.5073 33.932C62.5073 32.9348 62.699 32.0549 63.0826 31.2921C63.4661 30.525 64.0073 29.9284 64.7061 29.5023C65.4093 29.0719 66.2402 28.8567 67.199 28.8567C67.9959 28.8567 68.7012 29.0037 69.3148 29.2978C69.9327 29.5875 70.4249 29.9988 70.7914 30.5314C71.1578 31.0598 71.3667 31.6777 71.4178 32.3851H69.2061C69.1167 31.9121 68.9036 31.5179 68.5669 31.2026C68.2346 30.883 67.7892 30.7232 67.231 30.7232C66.758 30.7232 66.3425 30.851 65.9846 31.1067C65.6266 31.3581 65.3475 31.7203 65.1472 32.1934C64.9512 32.6664 64.8532 33.2331 64.8532 33.8936C64.8532 34.5627 64.9512 35.138 65.1472 35.6195C65.3432 36.0968 65.6181 36.4654 65.9718 36.7253C66.3297 36.981 66.7495 37.1088 67.231 37.1088C67.5719 37.1088 67.8766 37.0449 68.1451 36.9171C68.4178 36.785 68.6458 36.5953 68.829 36.3482C69.0123 36.101 69.138 35.8006 69.2061 35.4469H71.4178C71.3624 36.1415 71.1578 36.7573 70.8042 37.2942C70.4505 37.8269 69.9689 38.2445 69.3596 38.5471C68.7502 38.8453 68.0343 38.9945 67.2118 38.9945ZM73.3178 38.8027V28.9846H75.6317V38.8027H73.3178ZM74.4812 27.5911C74.1147 27.5911 73.7994 27.4696 73.5352 27.2267C73.271 26.9796 73.1388 26.6834 73.1388 26.3382C73.1388 25.9888 73.271 25.6926 73.5352 25.4498C73.7994 25.2026 74.1147 25.079 74.4812 25.079C74.8519 25.079 75.1673 25.2026 75.4272 25.4498C75.6914 25.6926 75.8235 25.9888 75.8235 26.3382C75.8235 26.6834 75.6914 26.9796 75.4272 27.2267C75.1673 27.4696 74.8519 27.5911 74.4812 27.5911ZM78.0112 42.4846V28.9846H80.2868V30.6081H80.421C80.5403 30.3695 80.7086 30.1159 80.926 29.8475C81.1433 29.5748 81.4373 29.3425 81.8081 29.1507C82.1788 28.9547 82.6518 28.8567 83.2271 28.8567C83.9856 28.8567 84.6696 29.0506 85.2789 29.4384C85.8926 29.8219 86.3784 30.3908 86.7363 31.1451C87.0985 31.8951 87.2797 32.8155 87.2797 33.9064C87.2797 34.9846 87.1028 35.9007 86.7491 36.655C86.3954 37.4093 85.9139 37.9846 85.3045 38.3809C84.6951 38.7772 84.0048 38.9753 83.2335 38.9753C82.671 38.9753 82.2044 38.8816 81.8336 38.6941C81.4629 38.5066 81.1646 38.2807 80.9387 38.0165C80.7172 37.748 80.5446 37.4945 80.421 37.2559H80.3251V42.4846H78.0112ZM80.2804 33.8936C80.2804 34.5286 80.3699 35.0847 80.5488 35.562C80.7321 36.0392 80.9941 36.4121 81.3351 36.6806C81.6802 36.9448 82.0978 37.0769 82.5879 37.0769C83.0993 37.0769 83.5275 36.9405 83.8727 36.6678C84.2179 36.3908 84.4778 36.0137 84.6525 35.5364C84.8315 35.0549 84.921 34.5073 84.921 33.8936C84.921 33.2843 84.8336 32.7431 84.6589 32.2701C84.4842 31.7971 84.2243 31.4263 83.8791 31.1578C83.5339 30.8894 83.1035 30.7551 82.5879 30.7551C82.0936 30.7551 81.6738 30.8851 81.3287 31.1451C80.9835 31.405 80.7214 31.7694 80.5424 32.2381C80.3677 32.7069 80.2804 33.2587 80.2804 33.8936ZM92.0865 39.0009C91.4643 39.0009 90.9039 38.8901 90.4054 38.6685C89.911 38.4426 89.519 38.1103 89.2292 37.6713C88.9437 37.2324 88.801 36.6912 88.801 36.0478C88.801 35.4938 88.9032 35.0357 89.1078 34.6735C89.3123 34.3113 89.5914 34.0215 89.9451 33.8042C90.2988 33.5868 90.6973 33.4228 91.1404 33.312C91.5879 33.1969 92.0502 33.1138 92.5275 33.0627C93.1028 33.003 93.5694 32.9498 93.9274 32.9029C94.2853 32.8517 94.5453 32.775 94.7072 32.6728C94.8734 32.5662 94.9565 32.4022 94.9565 32.1806V32.1422C94.9565 31.6607 94.8137 31.2878 94.5282 31.0236C94.2427 30.7594 93.8315 30.6273 93.2946 30.6273C92.7278 30.6273 92.2782 30.7509 91.9458 30.998C91.6177 31.2452 91.3961 31.5371 91.2811 31.8738L89.1206 31.5669C89.291 30.9703 89.5723 30.4718 89.9643 30.0712C90.3564 29.6664 90.8358 29.3638 91.4025 29.1635C91.9693 28.959 92.5957 28.8567 93.2818 28.8567C93.7548 28.8567 94.2257 28.9121 94.6944 29.0229C95.1632 29.1337 95.5914 29.3169 95.9792 29.5726C96.367 29.824 96.6781 30.1671 96.9125 30.6017C97.1511 31.0364 97.2704 31.5797 97.2704 32.2317V38.8027H95.046V37.454H94.9693C94.8287 37.7267 94.6305 37.9824 94.3748 38.2211C94.1234 38.4554 93.8059 38.6451 93.4224 38.79C93.0431 38.9306 92.5978 39.0009 92.0865 39.0009ZM92.6873 37.3006C93.1518 37.3006 93.5545 37.209 93.8954 37.0257C94.2363 36.8382 94.4984 36.5911 94.6816 36.2843C94.8691 35.9775 94.9629 35.6429 94.9629 35.2807V34.1238C94.8904 34.1834 94.7669 34.2388 94.5922 34.2899C94.4217 34.3411 94.2299 34.3858 94.0169 34.4242C93.8038 34.4625 93.5929 34.4966 93.3841 34.5265C93.1752 34.5563 92.9941 34.5819 92.8407 34.6032C92.4956 34.65 92.1866 34.7267 91.9139 34.8333C91.6412 34.9398 91.426 35.089 91.2683 35.2807C91.1106 35.4682 91.0318 35.7111 91.0318 36.0094C91.0318 36.4355 91.1873 36.7573 91.4984 36.9746C91.8095 37.1919 92.2058 37.3006 92.6873 37.3006ZM104.5 28.9846V30.7743H98.8556V28.9846H104.5ZM100.249 26.6323H102.563V35.8496C102.563 36.1607 102.61 36.3993 102.704 36.5655C102.802 36.7275 102.93 36.8382 103.087 36.8979C103.245 36.9576 103.42 36.9874 103.611 36.9874C103.756 36.9874 103.888 36.9767 104.008 36.9554C104.131 36.9341 104.225 36.915 104.289 36.8979L104.679 38.7069C104.555 38.7495 104.378 38.7963 104.148 38.8475C103.922 38.8986 103.645 38.9284 103.317 38.937C102.738 38.954 102.216 38.8667 101.751 38.6749C101.287 38.4789 100.918 38.1763 100.645 37.7672C100.377 37.3581 100.245 36.8468 100.249 36.2331V26.6323ZM110.676 38.9945C109.692 38.9945 108.842 38.79 108.126 38.3809C107.414 37.9675 106.866 37.3837 106.483 36.6294C106.099 35.8709 105.908 34.9782 105.908 33.9512C105.908 32.9412 106.099 32.0549 106.483 31.2921C106.871 30.525 107.412 29.9284 108.107 29.5023C108.801 29.0719 109.617 28.8567 110.555 28.8567C111.16 28.8567 111.731 28.9547 112.268 29.1507C112.809 29.3425 113.286 29.6408 113.7 30.0456C114.117 30.4505 114.445 30.9661 114.684 31.5925C114.923 32.2147 115.042 32.9561 115.042 33.8169V34.5265H106.994V32.9668H112.824C112.82 32.5236 112.724 32.1294 112.536 31.7843C112.349 31.4348 112.087 31.16 111.75 30.9597C111.418 30.7594 111.03 30.6593 110.587 30.6593C110.114 30.6593 109.698 30.7743 109.34 31.0044C108.982 31.2303 108.703 31.5286 108.503 31.8993C108.307 32.2658 108.207 32.6685 108.202 33.1074V34.4689C108.202 35.04 108.307 35.53 108.516 35.9391C108.724 36.3439 109.016 36.655 109.391 36.8723C109.766 37.0854 110.205 37.1919 110.708 37.1919C111.045 37.1919 111.349 37.1451 111.622 37.0513C111.895 36.9533 112.131 36.8105 112.332 36.623C112.532 36.4355 112.683 36.2033 112.786 35.9263L114.946 36.1692C114.81 36.7402 114.55 37.2388 114.166 37.665C113.787 38.0868 113.301 38.415 112.709 38.6493C112.116 38.8794 111.439 38.9945 110.676 38.9945ZM121.464 38.8027V28.9846H123.778V38.8027H121.464ZM122.628 27.5911C122.261 27.5911 121.946 27.4696 121.682 27.2267C121.417 26.9796 121.285 26.6834 121.285 26.3382C121.285 25.9888 121.417 25.6926 121.682 25.4498C121.946 25.2026 122.261 25.079 122.628 25.079C122.998 25.079 123.314 25.2026 123.574 25.4498C123.838 25.6926 123.97 25.9888 123.97 26.3382C123.97 26.6834 123.838 26.9796 123.574 27.2267C123.314 27.4696 122.998 27.5911 122.628 27.5911ZM128.472 33.0499V38.8027H126.158V28.9846H128.369V30.6529H128.484C128.71 30.1032 129.07 29.6664 129.565 29.3425C130.063 29.0186 130.679 28.8567 131.412 28.8567C132.089 28.8567 132.68 29.0016 133.183 29.2914C133.69 29.5811 134.082 30.0009 134.359 30.5506C134.64 31.1003 134.778 31.7672 134.774 32.5513V38.8027H132.46V32.9093C132.46 32.253 132.29 31.7395 131.949 31.3688C131.612 30.998 131.146 30.8127 130.549 30.8127C130.144 30.8127 129.784 30.9022 129.469 31.0811C129.158 31.2559 128.913 31.5094 128.734 31.8418C128.559 32.1742 128.472 32.5769 128.472 33.0499ZM22.092 60.8027V47.7118H30.6062V49.6998H24.4634V53.2537H30.1651V55.2417H24.4634V58.8148H30.6573V60.8027H22.092ZM41.6932 50.9846L38.1967 60.8027H35.6399L32.1435 50.9846H34.6108L36.8672 58.2779H36.9695L39.2322 50.9846H41.6932ZM47.307 60.9945C46.3226 60.9945 45.4725 60.79 44.7566 60.3809C44.0449 59.9675 43.4973 59.3837 43.1138 58.6294C42.7303 57.8709 42.5385 56.9782 42.5385 55.9512C42.5385 54.9412 42.7303 54.0549 43.1138 53.2921C43.5016 52.525 44.0428 51.9284 44.7374 51.5023C45.432 51.0719 46.248 50.8567 47.1855 50.8567C47.7907 50.8567 48.3617 50.9547 48.8986 51.1507C49.4398 51.3425 49.9171 51.6408 50.3304 52.0456C50.748 52.4505 51.0762 52.9661 51.3148 53.5925C51.5534 54.2147 51.6728 54.9561 51.6728 55.8169V56.5265H43.6252V54.9668H49.4547C49.4505 54.5236 49.3546 54.1294 49.1671 53.7843C48.9796 53.4348 48.7175 53.16 48.3809 52.9597C48.0485 52.7594 47.6607 52.6593 47.2175 52.6593C46.7445 52.6593 46.329 52.7743 45.9711 53.0044C45.6131 53.2303 45.334 53.5286 45.1337 53.8993C44.9377 54.2658 44.8375 54.6685 44.8333 55.1074V56.4689C44.8333 57.04 44.9377 57.53 45.1465 57.9391C45.3553 58.3439 45.6472 58.655 46.0222 58.8723C46.3972 59.0854 46.8361 59.1919 47.339 59.1919C47.6756 59.1919 47.9803 59.1451 48.253 59.0513C48.5257 58.9533 48.7623 58.8105 48.9625 58.623C49.1628 58.4355 49.3141 58.2033 49.4164 57.9263L51.5769 58.1692C51.4405 58.7402 51.1806 59.2388 50.7971 59.665C50.4178 60.0868 49.932 60.415 49.3397 60.6493C48.7473 60.8794 48.0698 60.9945 47.307 60.9945ZM55.9442 55.0499V60.8027H53.6303V50.9846H55.842V52.6529H55.957C56.1829 52.1032 56.543 51.6664 57.0373 51.3425C57.5359 51.0186 58.1516 50.8567 58.8846 50.8567C59.5621 50.8567 60.1523 51.0016 60.6552 51.2914C61.1623 51.5811 61.5543 52.0009 61.8313 52.5506C62.1126 53.1003 62.2511 53.7672 62.2468 54.5513V60.8027H59.9329V54.9093C59.9329 54.253 59.7624 53.7395 59.4215 53.3688C59.0849 52.998 58.6183 52.8127 58.0217 52.8127C57.6168 52.8127 57.2567 52.9022 56.9414 53.0811C56.6303 53.2559 56.3853 53.5094 56.2063 53.8418C56.0316 54.1742 55.9442 54.5769 55.9442 55.0499ZM69.5018 50.9846V52.7743H63.8576V50.9846H69.5018ZM65.2511 48.6323H67.565V57.8496C67.565 58.1607 67.6119 58.3993 67.7056 58.5655C67.8036 58.7275 67.9315 58.8382 68.0891 58.8979C68.2468 58.9576 68.4215 58.9874 68.6133 58.9874C68.7582 58.9874 68.8903 58.9767 69.0096 58.9554C69.1332 58.9341 69.2269 58.915 69.2908 58.8979L69.6808 60.7069C69.5572 60.7495 69.3803 60.7963 69.1502 60.8475C68.9244 60.8986 68.6474 60.9284 68.3192 60.937C67.7397 60.954 67.2177 60.8667 66.7532 60.6749C66.2887 60.4789 65.9201 60.1763 65.6474 59.7672C65.3789 59.3581 65.2468 58.8468 65.2511 58.2331V48.6323ZM79.0563 53.5797L76.9469 53.8098C76.8873 53.5968 76.7828 53.3965 76.6337 53.209C76.4888 53.0215 76.2928 52.8702 76.0456 52.7551C75.7985 52.6401 75.4959 52.5826 75.138 52.5826C74.6564 52.5826 74.2516 52.687 73.9235 52.8958C73.5996 53.1046 73.4398 53.3752 73.4441 53.7076C73.4398 53.9931 73.5442 54.2253 73.7573 54.4043C73.9746 54.5833 74.3326 54.7303 74.8311 54.8453L76.5059 55.2033C77.4348 55.4036 78.1252 55.7211 78.5769 56.1557C79.0328 56.5904 79.263 57.1593 79.2672 57.8624C79.263 58.4803 79.0819 59.0257 78.7239 59.4988C78.3702 59.9675 77.878 60.334 77.2473 60.5982C76.6167 60.8624 75.8922 60.9945 75.074 60.9945C73.8723 60.9945 72.905 60.7431 72.1721 60.2402C71.4391 59.7331 71.0023 59.0279 70.8617 58.1245L73.1181 57.9071C73.2203 58.3503 73.4377 58.6848 73.7701 58.9107C74.1025 59.1365 74.535 59.2495 75.0676 59.2495C75.6174 59.2495 76.0584 59.1365 76.3908 58.9107C76.7275 58.6848 76.8958 58.4057 76.8958 58.0733C76.8958 57.7921 76.7871 57.5598 76.5698 57.3766C76.3567 57.1934 76.0243 57.0527 75.5726 56.9547L73.8979 56.6032C72.9561 56.4071 72.2594 56.0769 71.8077 55.6124C71.356 55.1436 71.1323 54.5513 71.1365 53.8354C71.1323 53.2303 71.2963 52.7061 71.6287 52.263C71.9654 51.8155 72.432 51.4703 73.0286 51.2274C73.6294 50.9803 74.3219 50.8567 75.106 50.8567C76.2566 50.8567 77.1621 51.1017 77.8226 51.5918C78.4874 52.0819 78.8986 52.7445 79.0563 53.5797Z" fill="#685200"/>
<path d="M211.358 116.886H195.275C194.877 116.886 194.555 116.477 194.555 115.972V114.045C194.555 113.54 194.877 113.131 195.275 113.131H211.358C211.755 113.131 212.078 113.54 212.078 114.045V115.972C212.077 116.477 211.755 116.886 211.358 116.886Z" fill="#FFF8E2" stroke="#F4E2A9" stroke-width="5" stroke-miterlimit="10"/>
<path d="M232.984 116.886H221.208C220.312 116.886 219.586 116.374 219.586 115.742V114.275C219.586 113.643 220.312 113.131 221.208 113.131H232.984C233.88 113.131 234.606 113.643 234.606 114.275V115.742C234.606 116.374 233.88 116.886 232.984 116.886Z" fill="#FFF8E2" stroke="#F4E2A9" stroke-width="3.75" stroke-miterlimit="10"/>
<path d="M208.628 63.0658H201.759C201.236 63.0658 200.812 62.7243 200.812 62.303V61.3253C200.812 60.904 201.236 60.5625 201.759 60.5625H208.628C209.15 60.5625 209.574 60.904 209.574 61.3253V62.303C209.573 62.7243 209.15 63.0658 208.628 63.0658Z" fill="#9C7E1F" stroke="#F4E2A9" stroke-width="5" stroke-miterlimit="10"/>
<path d="M227.401 63.0658H220.532C220.009 63.0658 219.586 62.7243 219.586 62.303V61.3253C219.586 60.904 220.009 60.5625 220.532 60.5625H227.401C227.924 60.5625 228.347 60.904 228.347 61.3253V62.303C228.347 62.7243 227.924 63.0658 227.401 63.0658Z" fill="#9C7E1F" stroke="#F4E2A9" stroke-width="5" stroke-miterlimit="10"/>
<path d="M267.472 99.3111H258.652C257.981 99.3111 257.438 98.7672 257.438 98.0962V96.5391C257.438 95.8681 257.981 95.3242 258.652 95.3242H267.472C268.143 95.3242 268.687 95.8681 268.687 96.5391V98.0962C268.687 98.7672 268.143 99.3111 267.472 99.3111Z" fill="#9C7E1F" stroke="#F4E2A9" stroke-width="5" stroke-miterlimit="10"/>
<path d="M309.697 45.668V46.8163C310.083 46.8163 310.516 46.9209 310.807 47.6976C311.125 48.5505 311.14 49.8954 310.849 51.4868C310.521 53.2778 309.816 55.3445 308.81 57.4622C306.738 61.8285 303.515 66.189 299.617 69.9342L299.039 57.1766L302.443 52.464H305.313C306.404 52.464 307.292 51.5758 307.292 50.4842V47.7973C307.309 47.7709 307.38 47.679 307.6 47.5509C308.644 46.9444 309.317 46.8173 309.699 46.8173L309.697 45.668ZM309.696 45.668C308.961 45.668 308.068 45.9487 307.02 46.5571C306.54 46.8358 306.141 47.2291 306.141 47.7836V50.4833C306.141 50.942 305.768 51.3147 305.31 51.3147H301.853L297.871 56.8284L298.578 72.4363C311.953 60.8299 315.098 45.668 309.696 45.668Z" fill="#FBC343"/>
<path d="M268.541 45.668V46.8163C268.922 46.8163 269.595 46.9434 270.639 47.5499C270.858 47.677 270.93 47.77 270.947 47.7964V50.4833C270.947 51.5749 271.835 52.463 272.927 52.463H275.796L279.2 57.1756L278.621 69.9333C274.724 66.188 271.502 61.8275 269.428 57.4612C268.423 55.3436 267.717 53.2768 267.39 51.4858C267.098 49.8954 267.113 48.5495 267.432 47.6966C267.721 46.92 268.156 46.8153 268.542 46.8153V45.668M268.541 45.668C263.14 45.668 266.283 60.8299 279.657 72.4353L280.365 56.8274L276.383 51.3137H272.926C272.467 51.3137 272.094 50.941 272.094 50.4823V47.7827C272.094 47.2281 271.695 46.8349 271.215 46.5561C270.169 45.9487 269.276 45.668 268.541 45.668Z" fill="#FBC343"/>
<path d="M300.376 100.133H277.863V111.816H300.376V100.133Z" fill="#6F3428"/>
<path d="M296.933 100.132H281.312V96.3204C281.312 94.6174 282.693 93.2383 284.395 93.2383H293.85C295.553 93.2383 296.932 94.6184 296.932 96.3204V100.132H296.933Z" fill="#FBC343"/>
<path d="M293.986 93.2373H284.262V90.8644C284.262 89.8041 285.121 88.9453 286.181 88.9453H292.067C293.127 88.9453 293.986 89.8041 293.986 90.8644V93.2373Z" fill="#FBC343"/>
<path d="M291.832 87.7449L292.136 88.9451H286.105L286.406 87.7449C286.807 86.1506 286.807 84.5435 286.406 82.9492L286.105 81.748H292.136L291.832 82.9492C291.7 83.4744 291.612 84.0007 291.568 84.5289C291.475 85.6028 291.563 86.6768 291.832 87.7449Z" fill="#FBC343"/>
<path opacity="0.3" d="M292.136 81.75L291.832 82.9511C291.7 83.4764 291.612 84.0026 291.568 84.5308C291.239 82.3339 286.105 81.751 286.105 81.751H292.136V81.75Z" fill="#6F3428"/>
<path d="M293.987 77.459V79.8309C293.987 80.0266 293.958 80.2144 293.904 80.3934C293.664 81.1778 292.933 81.75 292.067 81.75H286.181C285.122 81.75 284.262 80.8922 284.262 79.8309V77.459H293.987Z" fill="#FBC343"/>
<path opacity="0.3" d="M293.987 77.459V79.8309C293.987 80.0266 293.958 80.2144 293.904 80.3934C291.307 78.0067 284.712 77.9363 284.262 77.9334V77.459H293.987Z" fill="#6F3428"/>
<path d="M304.224 48.7944L301.437 60.9671L298.343 74.477C297.881 76.4997 296.081 77.9327 294.008 77.9327H284.233C282.167 77.9327 280.375 76.5095 279.902 74.4975C279.9 74.4897 279.9 74.4858 279.897 74.4779L274.017 48.7954C273.896 48.2721 274.229 47.7488 274.757 47.6461C284.333 45.7534 293.909 45.7534 303.483 47.6461C304.012 47.7478 304.344 48.2701 304.224 48.7944Z" fill="#FBC343"/>
<path opacity="0.6" d="M282.715 56.1283C282.929 57.882 282.578 59.3678 281.933 59.447C281.286 59.5263 280.59 58.1676 280.375 56.4139C280.161 54.6601 280.512 53.1743 281.158 53.0951C281.804 53.0159 282.501 54.3745 282.715 56.1283Z" fill="white"/>
<path opacity="0.1" d="M301.437 60.9668L298.343 74.4766C297.881 76.4994 296.081 77.9323 294.008 77.9323H284.233C282.168 77.9323 280.375 76.5092 279.902 74.4972C290.645 73.8193 297.79 67.0096 301.437 60.9668Z" fill="#6F3428"/>
<g opacity="0.3">
<path d="M286.102 88.9459C286.596 88.8217 287.097 88.7484 287.601 88.6955C288.105 88.6408 288.61 88.6183 289.116 88.6095C290.127 88.6065 291.15 88.675 292.132 88.9459C291.622 88.9596 291.122 88.9587 290.62 88.9616L289.119 88.9763C288.117 88.9812 287.117 88.9968 286.102 88.9459Z" fill="#6F3428"/>
</g>
<g opacity="0.3">
<path d="M284.258 93.2384C285.872 93.0193 287.495 92.9352 289.119 92.9088C289.931 92.901 290.745 92.9098 291.558 92.9538C292.369 92.9949 293.185 93.0702 293.982 93.2394C293.169 93.212 292.361 93.2335 291.552 93.2404L289.124 93.2756C287.505 93.2903 285.885 93.3079 284.258 93.2384Z" fill="#6F3428"/>
</g>
<path d="M284.753 29.3888L285.76 36.6347C285.818 37.0543 285.255 37.248 285.043 36.8812L281.385 30.5459C281.161 30.1576 281.347 29.6617 281.772 29.5159L283.814 28.8146C284.239 28.6689 284.692 28.9447 284.753 29.3888Z" fill="#FBC343"/>
<path d="M294.866 25.0511L290.907 37.4898C290.677 38.2107 289.623 38.0885 289.564 37.3343L288.555 24.3194C288.493 23.5213 289.176 22.8679 289.971 22.9598L293.798 23.4029C294.595 23.4958 295.109 24.2881 294.866 25.0511Z" fill="#FBC343"/>
<path d="M299.491 32.6725L294.768 37.1767C294.494 37.4379 294.061 37.1308 294.216 36.7865L296.899 30.8365C297.064 30.4717 297.52 30.3494 297.847 30.5803L299.419 31.6943C299.746 31.9242 299.782 32.3957 299.491 32.6725Z" fill="#FBC343"/>
<path d="M193.249 69.4619C195.368 70.7823 197.618 69.0745 197.864 67.623C198.231 65.4633 196.264 62.9769 193.249 64.8207C193.249 64.8207 190.635 61.764 188.096 64.7903C188.096 64.7903 183.764 66.9706 186.168 70.7608C188.565 74.5393 191.59 69.3924 191.59 69.3924L193.249 69.4619Z" fill="#6C372C"/>
<path d="M194.789 70.4082C195.951 71.9673 196.462 72.5816 196.297 73.0687C196.134 73.5568 194.972 73.5959 194.972 73.5959L194.789 70.4082Z" fill="#E28B6D"/>
<path d="M192.984 75.2239L192.319 76.8867L189.747 83.3208L185.598 78.4077L189.515 72.6152L191.853 74.3729L192.984 75.2239Z" fill="#F9B384"/>
<path d="M192.986 75.2251L192.321 76.8879C191.414 75.991 190.531 74.8192 190.172 74.3008L191.854 74.3741L192.986 75.2251Z" fill="#E28B6D"/>
<path d="M195.392 74.3917C195.355 75.2672 195.181 75.9489 194.754 76.2531C193.524 77.1236 189.007 73.4117 189.007 73.4117L188.699 68.1855L195.05 68.6374C195.062 69.4757 195.153 70.4196 195.238 71.3517C195.335 72.4404 195.431 73.5134 195.392 74.3917Z" fill="#F9B384"/>
<path d="M189.291 70.751C190.845 71.0415 191.244 69.3249 191.244 69.3249C192.908 68.3057 194.283 70.66 195.78 69.7827L196.01 66.7779L189.428 66.4414L187.055 67.9692L187.728 69.8032L189.291 70.751Z" fill="#6C372C"/>
<path d="M190.259 70.7844C189.423 69.8346 188.072 70.2415 187.943 71.2607C187.814 72.2799 188.656 73.9985 190.023 73.0018L190.259 70.7844Z" fill="#F9B384"/>
<path d="M195.393 74.3926C195.261 74.4317 195.119 74.4513 194.972 74.4513C194.109 74.4513 193.41 73.7519 193.41 72.8882C193.41 72.0275 194.11 71.3281 194.972 71.3281C195.062 71.3281 195.153 71.3359 195.238 71.3526C195.336 72.4412 195.432 73.5142 195.393 74.3926Z" fill="#F9B384"/>
<path d="M189.693 71.4616C189.644 71.3501 189.557 71.2582 189.461 71.1838C189.362 71.1114 189.255 71.0479 189.141 71.0195C189.028 70.9862 188.913 70.9843 188.813 71.0293C188.71 71.0704 188.629 71.1633 188.555 71.2699L188.488 71.2425C188.522 71.1065 188.602 70.9686 188.74 70.8865C188.878 70.8063 189.048 70.8033 189.191 70.8444C189.332 70.8904 189.462 70.9637 189.564 71.0674C189.665 71.1691 189.752 71.2973 189.765 71.4479L189.693 71.4616Z" fill="#E28B6D"/>
<path d="M195.777 87.236C197.15 85.6416 197.286 83.3646 197.805 82.897C198.773 82.0265 198.331 84.686 198.331 84.686C198.331 84.686 198.961 82.8951 200.474 82.4901C201.465 82.2241 201.642 83.1464 201.556 83.9172C201.413 85.1976 200.993 86.6628 199.958 87.5138C199.518 87.8757 198.954 88.1525 198.636 88.6405C198.456 88.9183 198.3 89.2323 198.212 89.5541L195.777 87.236Z" fill="#F9B384"/>
<path d="M195.559 87.2895L196.196 86.4297L198.789 88.7361L198.065 89.7827L195.559 87.2895Z" fill="#CC9F41"/>
<path d="M187.359 95.7451L195.611 86.5469L198.674 89.5536C196.483 94.5352 193.581 97.7327 188.928 100.177L187.359 95.7451Z" fill="#868819"/>
<path d="M199.098 84.6122C199.261 84.5789 199.418 84.6171 199.564 84.6631C199.711 84.709 199.847 84.7775 199.978 84.8518C200.109 84.9271 200.231 85.0142 200.346 85.113C200.458 85.2186 200.571 85.3067 200.642 85.4827L200.553 85.517C200.472 85.4407 200.33 85.3614 200.218 85.2851C200.097 85.2088 199.977 85.1335 199.855 85.0611C199.733 84.9878 199.609 84.9193 199.486 84.8528C199.361 84.7912 199.235 84.7335 199.104 84.7061L199.098 84.6122Z" fill="#E28B6D"/>
<path d="M198.311 85.1699C198.477 85.2345 198.644 85.3303 198.762 85.4917C198.881 85.6512 198.925 85.8644 198.901 86.0571C198.878 86.2517 198.8 86.4288 198.692 86.5804C198.583 86.729 198.452 86.8679 198.253 86.9257L198.223 86.8347C198.341 86.7486 198.434 86.6019 198.51 86.4659C198.586 86.3261 198.641 86.1764 198.66 86.0287C198.68 85.88 198.655 85.7372 198.588 85.6042C198.517 85.4712 198.395 85.3655 198.267 85.256L198.311 85.1699Z" fill="#E28B6D"/>
<path d="M169.722 95.744L160.934 93.3486C161.112 92.6972 161.784 92.3128 162.435 92.4908L168.864 94.2436C169.516 94.4206 169.899 95.0926 169.722 95.744Z" fill="#F4E2A9"/>
<path d="M166.332 143.774C166.332 143.774 168.129 147.596 173.298 146.368L170.805 143.061L166.332 143.774Z" fill="#6C372C"/>
<path d="M168.078 143.305L166.238 147.444L168.246 150.61L170.731 148.589L171.829 144.034L168.078 143.305Z" fill="#F9B384"/>
<path d="M166.244 147.443L170.736 148.59L173.284 154.896C173.523 155.485 172.91 156.06 172.336 155.783L164.366 151.929C163.789 151.65 163.54 150.962 163.805 150.378L163.876 150.223C164.39 149.093 165.21 148.13 166.244 147.443Z" fill="#868819"/>
<path d="M166.244 147.443L170.736 148.59L173.284 154.896C173.523 155.485 172.91 156.06 172.336 155.783L164.366 151.929C163.789 151.65 163.54 150.962 163.805 150.378L163.876 150.223C164.39 149.093 165.21 148.13 166.244 147.443Z" fill="#868819"/>
<path d="M171.547 150.651L170.434 151.275L170.553 151.489L171.667 150.865L171.547 150.651Z" fill="#B7B948"/>
<path d="M172.109 152.041L170.996 152.666L171.116 152.879L172.229 152.254L172.109 152.041Z" fill="#B7B948"/>
<path d="M172.314 101.1C171.445 103.145 170.265 106.291 172.243 110.068C173.048 111.606 173.318 113.366 172.929 115.057L166.332 143.773L173.298 146.367L187.553 104.783L172.314 101.1Z" fill="#6C372C"/>
<path d="M190.947 80.4199C192.355 84.4615 192.395 91.3612 189.719 98.6404L185.594 99.8171L187.252 86.3337L190.947 80.4199Z" fill="#CC9F41"/>
<path d="M186.418 76.9503L187.548 74.4492C187.548 74.4492 190.749 76.6803 192.43 79.3398L190.469 83.0303L186.418 76.9503Z" fill="#CC9F41"/>
<path d="M187.248 98.1077C176.289 97.7556 170.552 103.898 170.594 103.659C172.357 97.6773 174.017 93.2044 175.504 89.867C178.199 83.8095 180.317 81.4718 181.417 80.5915C181.955 80.1582 182.25 80.075 182.25 80.075L187.241 75.8965C187.674 76.1185 188.085 76.4364 188.456 76.7866C189.863 78.107 190.667 79.9312 190.858 81.8484C191.606 89.3535 187.248 98.1077 187.248 98.1077Z" fill="#868819"/>
<path d="M184.089 80.8275C182.49 81.6765 179.711 86.1113 175.508 89.8673C178.203 83.8098 180.32 81.4721 181.421 80.5918L184.089 80.8275Z" fill="#6B6C12"/>
<path d="M166.071 90.1367L164.308 92.6427C164.308 92.6427 164.09 93.6668 163.617 94.0737C163.617 94.0737 163.828 95.1232 164.654 95.491C165.596 95.9116 166.758 95.8891 167.512 94.8131C168.265 93.7372 168.364 90.5485 168.364 90.5485L166.071 90.1367Z" fill="#F9B384"/>
<path d="M164.853 90.6506C164.853 90.8139 164.527 91.7099 164.527 91.7099L168.362 92.24V90.5488L164.853 90.6506Z" fill="#CC9F41"/>
<path d="M187.244 75.8964C187.244 75.8964 179.943 74.8019 174.011 77.8752C173.175 78.3085 172.412 78.8719 171.735 79.5272C168.872 82.3012 166.315 85.0331 164.379 90.8343L168.938 91.5797L173.534 84.7876C173.93 84.2066 174.531 83.7958 175.217 83.6393C177.65 83.0837 183.486 81.7192 184.401 81.1851L187.244 75.8964Z" fill="#868819"/>
<path d="M193.641 119.563C193.641 119.563 196.386 123.221 200.934 121.383L197.9 118.16L193.641 119.563Z" fill="#6C372C"/>
<path d="M195.321 118.602L193.48 122.74L195.49 125.907L197.973 123.886L199.071 119.331L195.321 118.602Z" fill="#F9B384"/>
<path d="M193.486 122.74L197.978 123.887L200.526 130.193C200.765 130.782 200.152 131.357 199.579 131.08L191.608 127.226C191.031 126.947 190.782 126.259 191.047 125.675L191.118 125.52C191.632 124.391 192.453 123.428 193.486 122.74Z" fill="#868819"/>
<path d="M198.77 125.835L197.656 126.459L197.776 126.672L198.889 126.048L198.77 125.835Z" fill="#B7B948"/>
<path d="M199.332 127.226L198.219 127.852L198.338 128.065L199.451 127.44L199.332 127.226Z" fill="#B7B948"/>
<path d="M172.309 101.1C173.806 100.063 183.359 97.5581 189.424 97.742C196.164 97.9455 201.573 98.7113 203.772 103.647C205.971 108.583 200.934 121.383 200.934 121.383L193.641 119.563L195.399 107.695C195.399 107.695 186.164 108.859 181.762 108.908L172.309 101.1Z" fill="#6C372C"/>
<path d="M187.546 108.594C186.794 108.598 186.073 108.786 185.33 108.938C184.587 109.091 183.821 109.151 183.063 109.142C182.304 109.126 181.55 109.055 180.8 108.956C180.427 108.902 180.055 108.837 179.682 108.777C179.313 108.701 178.942 108.629 178.574 108.549L178.592 108.455C178.965 108.501 179.337 108.558 179.71 108.609C180.082 108.654 180.455 108.705 180.828 108.745C181.573 108.826 182.32 108.887 183.067 108.9C183.814 108.922 184.556 108.858 185.294 108.736C185.664 108.676 186.032 108.599 186.409 108.547C186.787 108.499 187.169 108.485 187.548 108.499L187.546 108.594Z" fill="#784237"/>
<path d="M173.623 101.496L171.306 109.993L171.035 110.983C170.75 112.03 169.669 112.649 168.62 112.362L153.452 108.228C152.402 107.941 151.784 106.861 152.07 105.812L153.596 100.219L154.657 96.3261C154.943 95.2776 156.024 94.6584 157.071 94.945L172.242 99.0796C173.29 99.3652 173.906 100.446 173.623 101.496Z" fill="#EDB540"/>
<path d="M159.586 98.3047L160.932 93.3681C161.11 92.7167 161.782 92.3323 162.433 92.5103L160.766 98.6265L159.586 98.3047Z" fill="#F4E2A9"/>
<path d="M167.277 100.071L168.866 94.2441C169.517 94.4222 169.902 95.0941 169.724 95.7456L168.457 100.393L167.277 100.071Z" fill="#F4E2A9"/>
<path d="M160.084 99.8373C160.665 99.8373 161.136 99.3661 161.136 98.7849C161.136 98.2036 160.665 97.7324 160.084 97.7324C159.502 97.7324 159.031 98.2036 159.031 98.7849C159.031 99.3661 159.502 99.8373 160.084 99.8373Z" fill="#6C372C"/>
<path d="M167.795 101.544C168.376 101.544 168.847 101.073 168.847 100.492C168.847 99.9107 168.376 99.4395 167.795 99.4395C167.213 99.4395 166.742 99.9107 166.742 100.492C166.742 101.073 167.213 101.544 167.795 101.544Z" fill="#6C372C"/>
<path opacity="0.15" d="M171.31 109.992L171.039 110.982C170.754 112.029 169.673 112.648 168.623 112.361L153.456 108.227C152.406 107.94 151.788 106.859 152.074 105.811L154.099 98.3867C153.587 105.409 164.529 109.968 171.31 109.992Z" fill="#102048"/>
<path opacity="0.2" d="M303.448 112.139V122.522L189.53 165.908H162.773V155.921H189.29L189.32 150.419L189.352 144.903H215.988V133.887H242.505V123.147H269.025V112.129L303.448 112.139Z" fill="#DEB432"/>
<path d="M242.216 134.172H216.063C215.771 134.172 215.531 133.932 215.531 133.64C215.531 133.347 215.771 133.107 216.063 133.107H242.216C242.509 133.107 242.749 133.347 242.749 133.64C242.749 133.932 242.509 134.172 242.216 134.172Z" fill="#F9D175"/>
<path d="M268.791 123.576H242.638C242.345 123.576 242.105 123.336 242.105 123.044C242.105 122.751 242.345 122.512 242.638 122.512H268.791C269.083 122.512 269.323 122.751 269.323 123.044C269.323 123.336 269.083 123.576 268.791 123.576Z" fill="#F9D175"/>
<path d="M303.462 112.416H268.973C268.681 112.416 268.441 112.176 268.441 111.884C268.441 111.591 268.681 111.352 268.973 111.352H303.462C303.755 111.352 303.994 111.591 303.994 111.884C303.994 112.176 303.755 112.416 303.462 112.416Z" fill="#F9D175"/>
<path d="M215.681 145.127H189.528C189.236 145.127 188.996 144.887 188.996 144.595C188.996 144.302 189.236 144.062 189.528 144.062H215.681C215.974 144.062 216.213 144.302 216.213 144.595C216.213 144.887 215.974 145.127 215.681 145.127Z" fill="#F9D175"/>
<path d="M189.037 156.142H162.884C162.591 156.142 162.352 155.903 162.352 155.61C162.352 155.318 162.591 155.078 162.884 155.078H189.037C189.329 155.078 189.569 155.318 189.569 155.61C189.569 155.903 189.329 156.142 189.037 156.142Z" fill="#F9D175"/>
<path d="M218.239 97.5954L218.094 95.9512L220.715 95.7194C234.328 94.5153 245.778 85.3161 249.887 72.2826L253.241 61.6445L254.814 62.1404L251.46 72.7785C247.15 86.4497 235.139 96.0989 220.861 97.3627L218.239 97.5954Z" fill="#F9D175"/>
<path d="M254.074 71.7367L253.357 63.9058L248.035 70.0739L246.785 68.996L254.646 59.8867L255.717 71.5861L254.074 71.7367Z" fill="#F9D175"/>
<path d="M193.046 40.5118C193.046 40.7935 192.94 41.0645 192.74 41.3188H162.839C162.725 41.0645 162.664 40.7935 162.664 40.5118C162.664 39.0114 164.407 37.7956 166.558 37.7956C167.24 37.7956 167.88 37.9188 168.437 38.134C168.73 36.0036 171.65 34.3301 175.208 34.3301C178.919 34.3301 181.933 36.1474 182.005 38.404C183.169 38.0254 184.656 37.7956 186.275 37.7956C190.014 37.7956 193.046 39.0114 193.046 40.5118Z" fill="#F4E2A9"/>
<path d="M245.163 20.3995C245.163 20.736 245.035 21.0607 244.798 21.3649H209.01C208.873 21.0607 208.801 20.736 208.801 20.3995C208.801 18.6037 210.887 17.1482 213.461 17.1482C214.277 17.1482 215.043 17.2949 215.71 17.5532C216.061 15.0032 219.556 13 223.815 13C228.256 13 231.863 15.1744 231.95 17.8759C233.343 17.4221 235.122 17.1482 237.06 17.1482C241.535 17.1482 245.163 18.6037 245.163 20.3995Z" fill="#F4E2A9"/>
</svg>
