<svg width="331" height="167" viewBox="0 0 331 167" fill="none" xmlns="http://www.w3.org/2000/svg">
<rect width="330.547" height="166.429" rx="8" fill="#D1D3FF"/>
<mask id="mask0_7893_6400" style="mask-type:alpha" maskUnits="userSpaceOnUse" x="0" y="0" width="331" height="167">
<rect width="330.547" height="166.429" rx="8" fill="#FEC7BA"/>
</mask>
<g mask="url(#mask0_7893_6400)">
<ellipse cx="237" cy="117" rx="108" ry="107" fill="#E3E5FF"/>
</g>
<path d="M22.0959 38.8027V25.7118H27.005C28.0107 25.7118 28.8544 25.8993 29.5362 26.2743C30.2223 26.6493 30.7401 27.1649 31.0895 27.8212C31.4432 28.4732 31.62 29.2147 31.62 30.0456C31.62 30.8851 31.4432 31.6309 31.0895 32.2828C30.7358 32.9348 30.2138 33.4483 29.5234 33.8233C28.8331 34.1941 27.983 34.3794 26.973 34.3794H23.7195V32.4299H26.6534C27.2415 32.4299 27.723 32.3276 28.098 32.123C28.473 31.9185 28.75 31.6373 28.929 31.2793C29.1122 30.9213 29.2038 30.5101 29.2038 30.0456C29.2038 29.5811 29.1122 29.1721 28.929 28.8184C28.75 28.4647 28.4709 28.1898 28.0916 27.9938C27.7166 27.7935 27.233 27.6934 26.6406 27.6934H24.4673V38.8027H22.0959ZM39.8354 34.6735V28.9846H42.1493V38.8027H39.9057V37.0577H39.8034C39.5819 37.6074 39.2175 38.057 38.7104 38.4064C38.2076 38.7559 37.5875 38.9306 36.8503 38.9306C36.2069 38.9306 35.638 38.7878 35.1436 38.5023C34.6536 38.2125 34.2701 37.7928 33.9931 37.2431C33.7161 36.6891 33.5776 36.0201 33.5776 35.236V28.9846H35.8915V34.878C35.8915 35.5002 36.062 35.9945 36.4029 36.361C36.7438 36.7275 37.1912 36.9107 37.7452 36.9107C38.0861 36.9107 38.4164 36.8276 38.736 36.6614C39.0556 36.4952 39.3176 36.248 39.5222 35.9199C39.731 35.5875 39.8354 35.1721 39.8354 34.6735ZM44.631 38.8027V25.7118H46.945V30.6081H47.0408C47.1602 30.3695 47.3285 30.1159 47.5458 29.8475C47.7631 29.5748 48.0572 29.3425 48.4279 29.1507C48.7987 28.9547 49.2717 28.8567 49.8469 28.8567C50.6055 28.8567 51.2894 29.0506 51.8988 29.4384C52.5124 29.8219 52.9982 30.3908 53.3562 31.1451C53.7184 31.8951 53.8995 32.8155 53.8995 33.9064C53.8995 34.9846 53.7227 35.9007 53.369 36.655C53.0153 37.4093 52.5337 37.9846 51.9244 38.3809C51.315 38.7772 50.6246 38.9753 49.8533 38.9753C49.2908 38.9753 48.8242 38.8816 48.4535 38.6941C48.0827 38.5066 47.7844 38.2807 47.5586 38.0165C47.337 37.748 47.1644 37.4945 47.0408 37.2559H46.9066V38.8027H44.631ZM46.9002 33.8936C46.9002 34.5286 46.9897 35.0847 47.1687 35.562C47.3519 36.0392 47.614 36.4121 47.9549 36.6806C48.3001 36.9448 48.7177 37.0769 49.2077 37.0769C49.7191 37.0769 50.1474 36.9405 50.4925 36.6678C50.8377 36.3908 51.0977 36.0137 51.2724 35.5364C51.4513 35.0549 51.5408 34.5073 51.5408 33.8936C51.5408 33.2843 51.4535 32.7431 51.2788 32.2701C51.104 31.7971 50.8441 31.4263 50.4989 31.1578C50.1538 30.8894 49.7234 30.7551 49.2077 30.7551C48.7134 30.7551 48.2937 30.8851 47.9485 31.1451C47.6033 31.405 47.3413 31.7694 47.1623 32.2381C46.9876 32.7069 46.9002 33.2587 46.9002 33.8936ZM58.1806 25.7118V38.8027H55.8667V25.7118H58.1806ZM60.56 38.8027V28.9846H62.8739V38.8027H60.56ZM61.7234 27.5911C61.3569 27.5911 61.0415 27.4696 60.7773 27.2267C60.5131 26.9796 60.381 26.6834 60.381 26.3382C60.381 25.9888 60.5131 25.6926 60.7773 25.4498C61.0415 25.2026 61.3569 25.079 61.7234 25.079C62.0941 25.079 62.4094 25.2026 62.6694 25.4498C62.9336 25.6926 63.0657 25.9888 63.0657 26.3382C63.0657 26.6834 62.9336 26.9796 62.6694 27.2267C62.4094 27.4696 62.0941 27.5911 61.7234 27.5911ZM73.0133 31.5797L70.9039 31.8098C70.8443 31.5968 70.7399 31.3965 70.5907 31.209C70.4458 31.0215 70.2498 30.8702 70.0027 30.7551C69.7555 30.6401 69.4529 30.5826 69.095 30.5826C68.6135 30.5826 68.2086 30.687 67.8805 30.8958C67.5566 31.1046 67.3968 31.3752 67.4011 31.7076C67.3968 31.9931 67.5012 32.2253 67.7143 32.4043C67.9316 32.5833 68.2896 32.7303 68.7882 32.8453L70.4629 33.2033C71.3919 33.4036 72.0822 33.7211 72.5339 34.1557C72.9899 34.5904 73.22 35.1593 73.2243 35.8624C73.22 36.4803 73.0389 37.0257 72.6809 37.4988C72.3272 37.9675 71.835 38.334 71.2044 38.5982C70.5737 38.8624 69.8493 38.9945 69.0311 38.9945C67.8294 38.9945 66.862 38.7431 66.1291 38.2402C65.3961 37.7331 64.9593 37.0279 64.8187 36.1245L67.0751 35.9071C67.1774 36.3503 67.3947 36.6848 67.7271 36.9107C68.0595 37.1365 68.492 37.2495 69.0247 37.2495C69.5744 37.2495 70.0154 37.1365 70.3478 36.9107C70.6845 36.6848 70.8528 36.4057 70.8528 36.0733C70.8528 35.7921 70.7441 35.5598 70.5268 35.3766C70.3137 35.1934 69.9814 35.0527 69.5297 34.9547L67.8549 34.6032C66.9132 34.4071 66.2164 34.0769 65.7647 33.6124C65.313 33.1436 65.0893 32.5513 65.0936 31.8354C65.0893 31.2303 65.2534 30.7061 65.5858 30.263C65.9224 29.8155 66.389 29.4703 66.9856 29.2274C67.5865 28.9803 68.2789 28.8567 69.063 28.8567C70.2136 28.8567 71.1191 29.1017 71.7797 29.5918C72.4444 30.0819 72.8556 30.7445 73.0133 31.5797ZM77.4462 33.0499V38.8027H75.1323V25.7118H77.3951V30.6529H77.5101C77.7402 30.0989 78.0961 29.6621 78.5776 29.3425C79.0634 29.0186 79.6813 28.8567 80.4313 28.8567C81.1131 28.8567 81.7076 28.9995 82.2147 29.285C82.7218 29.5705 83.1138 29.9881 83.3908 30.5378C83.6721 31.0875 83.8127 31.7587 83.8127 32.5513V38.8027H81.4988V32.9093C81.4988 32.2488 81.3283 31.7353 80.9874 31.3688C80.6507 30.998 80.1777 30.8127 79.5684 30.8127C79.1593 30.8127 78.7928 30.9022 78.4689 31.0811C78.1493 31.2559 77.8979 31.5094 77.7147 31.8418C77.5357 32.1742 77.4462 32.5769 77.4462 33.0499ZM90.7385 38.8027V25.7118H95.6476C96.6532 25.7118 97.497 25.8993 98.1788 26.2743C98.8649 26.6493 99.3826 27.1649 99.7321 27.8212C100.086 28.4732 100.263 29.2147 100.263 30.0456C100.263 30.8851 100.086 31.6309 99.7321 32.2828C99.3784 32.9348 98.8564 33.4483 98.166 33.8233C97.4757 34.1941 96.6255 34.3794 95.6156 34.3794H92.362V32.4299H95.296C95.8841 32.4299 96.3656 32.3276 96.7406 32.123C97.1156 31.9185 97.3926 31.6373 97.5716 31.2793C97.7548 30.9213 97.8464 30.5101 97.8464 30.0456C97.8464 29.5811 97.7548 29.1721 97.5716 28.8184C97.3926 28.4647 97.1135 28.1898 96.7342 27.9938C96.3592 27.7935 95.8755 27.6934 95.2832 27.6934H93.1099V38.8027H90.7385ZM104.87 39.0009C104.248 39.0009 103.687 38.8901 103.189 38.6685C102.694 38.4426 102.302 38.1103 102.012 37.6713C101.727 37.2324 101.584 36.6912 101.584 36.0478C101.584 35.4938 101.686 35.0357 101.891 34.6735C102.096 34.3113 102.375 34.0215 102.728 33.8042C103.082 33.5868 103.48 33.4228 103.924 33.312C104.371 33.1969 104.833 33.1138 105.311 33.0627C105.886 33.003 106.353 32.9498 106.711 32.9029C107.069 32.8517 107.328 32.775 107.49 32.6728C107.657 32.5662 107.74 32.4022 107.74 32.1806V32.1422C107.74 31.6607 107.597 31.2878 107.311 31.0236C107.026 30.7594 106.615 30.6273 106.078 30.6273C105.511 30.6273 105.061 30.7509 104.729 30.998C104.401 31.2452 104.179 31.5371 104.064 31.8738L101.904 31.5669C102.074 30.9703 102.355 30.4718 102.748 30.0712C103.14 29.6664 103.619 29.3638 104.186 29.1635C104.752 28.959 105.379 28.8567 106.065 28.8567C106.538 28.8567 107.009 28.9121 107.478 29.0229C107.946 29.1337 108.375 29.3169 108.762 29.5726C109.15 29.824 109.461 30.1671 109.696 30.6017C109.934 31.0364 110.054 31.5797 110.054 32.2317V38.8027H107.829V37.454H107.752C107.612 37.7267 107.414 37.9824 107.158 38.2211C106.907 38.4554 106.589 38.6451 106.206 38.79C105.826 38.9306 105.381 39.0009 104.87 39.0009ZM105.471 37.3006C105.935 37.3006 106.338 37.209 106.679 37.0257C107.02 36.8382 107.282 36.5911 107.465 36.2843C107.652 35.9775 107.746 35.6429 107.746 35.2807V34.1238C107.674 34.1834 107.55 34.2388 107.375 34.2899C107.205 34.3411 107.013 34.3858 106.8 34.4242C106.587 34.4625 106.376 34.4966 106.167 34.5265C105.958 34.5563 105.777 34.5819 105.624 34.6032C105.279 34.65 104.97 34.7267 104.697 34.8333C104.424 34.9398 104.209 35.089 104.051 35.2807C103.894 35.4682 103.815 35.7111 103.815 36.0094C103.815 36.4355 103.971 36.7573 104.282 36.9746C104.593 37.1919 104.989 37.3006 105.471 37.3006ZM112.38 42.4846V28.9846H114.656V30.6081H114.79C114.909 30.3695 115.078 30.1159 115.295 29.8475C115.512 29.5748 115.806 29.3425 116.177 29.1507C116.548 28.9547 117.021 28.8567 117.596 28.8567C118.355 28.8567 119.039 29.0506 119.648 29.4384C120.262 29.8219 120.748 30.3908 121.105 31.1451C121.468 31.8951 121.649 32.8155 121.649 33.9064C121.649 34.9846 121.472 35.9007 121.118 36.655C120.765 37.4093 120.283 37.9846 119.674 38.3809C119.064 38.7772 118.374 38.9753 117.603 38.9753C117.04 38.9753 116.574 38.8816 116.203 38.6941C115.832 38.5066 115.534 38.2807 115.308 38.0165C115.086 37.748 114.914 37.4945 114.79 37.2559H114.694V42.4846H112.38ZM114.65 33.8936C114.65 34.5286 114.739 35.0847 114.918 35.562C115.101 36.0392 115.363 36.4121 115.704 36.6806C116.049 36.9448 116.467 37.0769 116.957 37.0769C117.468 37.0769 117.897 36.9405 118.242 36.6678C118.587 36.3908 118.847 36.0137 119.022 35.5364C119.201 35.0549 119.29 34.5073 119.29 33.8936C119.29 33.2843 119.203 32.7431 119.028 32.2701C118.853 31.7971 118.593 31.4263 118.248 31.1578C117.903 30.8894 117.473 30.7551 116.957 30.7551C116.463 30.7551 116.043 30.8851 115.698 31.1451C115.353 31.405 115.091 31.7694 114.912 32.2381C114.737 32.7069 114.65 33.2587 114.65 33.8936ZM127.977 38.9945C126.993 38.9945 126.142 38.79 125.426 38.3809C124.715 37.9675 124.167 37.3837 123.784 36.6294C123.4 35.8709 123.208 34.9782 123.208 33.9512C123.208 32.9412 123.4 32.0549 123.784 31.2921C124.172 30.525 124.713 29.9284 125.407 29.5023C126.102 29.0719 126.918 28.8567 127.855 28.8567C128.461 28.8567 129.032 28.9547 129.569 29.1507C130.11 29.3425 130.587 29.6408 131 30.0456C131.418 30.4505 131.746 30.9661 131.985 31.5925C132.223 32.2147 132.343 32.9561 132.343 33.8169V34.5265H124.295V32.9668H130.125C130.12 32.5236 130.025 32.1294 129.837 31.7843C129.65 31.4348 129.387 31.16 129.051 30.9597C128.718 30.7594 128.331 30.6593 127.887 30.6593C127.414 30.6593 126.999 30.7743 126.641 31.0044C126.283 31.2303 126.004 31.5286 125.804 31.8993C125.608 32.2658 125.507 32.6685 125.503 33.1074V34.4689C125.503 35.04 125.608 35.53 125.816 35.9391C126.025 36.3439 126.317 36.655 126.692 36.8723C127.067 37.0854 127.506 37.1919 128.009 37.1919C128.346 37.1919 128.65 37.1451 128.923 37.0513C129.196 36.9533 129.432 36.8105 129.632 36.623C129.833 36.4355 129.984 36.2033 130.086 35.9263L132.247 36.1692C132.11 36.7402 131.85 37.2388 131.467 37.665C131.088 38.0868 130.602 38.415 130.01 38.6493C129.417 38.8794 128.74 38.9945 127.977 38.9945ZM134.3 38.8027V28.9846H136.544V30.6209H136.646C136.825 30.0542 137.132 29.6174 137.567 29.3105C138.006 28.9995 138.506 28.8439 139.069 28.8439C139.197 28.8439 139.339 28.8503 139.497 28.8631C139.659 28.8716 139.793 28.8865 139.9 28.9078V31.0364C139.802 31.0023 139.646 30.9725 139.433 30.9469C139.224 30.9171 139.022 30.9022 138.826 30.9022C138.404 30.9022 138.025 30.9938 137.688 31.177C137.356 31.356 137.094 31.6053 136.902 31.9249C136.71 32.2445 136.614 32.6131 136.614 33.0307V38.8027H134.3ZM149.197 31.5797L147.088 31.8098C147.028 31.5968 146.923 31.3965 146.774 31.209C146.629 31.0215 146.433 30.8702 146.186 30.7551C145.939 30.6401 145.637 30.5826 145.279 30.5826C144.797 30.5826 144.392 30.687 144.064 30.8958C143.74 31.1046 143.58 31.3752 143.585 31.7076C143.58 31.9931 143.685 32.2253 143.898 32.4043C144.115 32.5833 144.473 32.7303 144.972 32.8453L146.646 33.2033C147.575 33.4036 148.266 33.7211 148.718 34.1557C149.173 34.5904 149.404 35.1593 149.408 35.8624C149.404 36.4803 149.222 37.0257 148.865 37.4988C148.511 37.9675 148.019 38.334 147.388 38.5982C146.757 38.8624 146.033 38.9945 145.215 38.9945C144.013 38.9945 143.046 38.7431 142.313 38.2402C141.58 37.7331 141.143 37.0279 141.002 36.1245L143.259 35.9071C143.361 36.3503 143.578 36.6848 143.911 36.9107C144.243 37.1365 144.676 37.2495 145.208 37.2495C145.758 37.2495 146.199 37.1365 146.531 36.9107C146.868 36.6848 147.036 36.4057 147.036 36.0733C147.036 35.7921 146.928 35.5598 146.71 35.3766C146.497 35.1934 146.165 35.0527 145.713 34.9547L144.039 34.6032C143.097 34.4071 142.4 34.0769 141.948 33.6124C141.497 33.1436 141.273 32.5513 141.277 31.8354C141.273 31.2303 141.437 30.7061 141.769 30.263C142.106 29.8155 142.573 29.4703 143.169 29.2274C143.77 28.9803 144.463 28.8567 145.247 28.8567C146.397 28.8567 147.303 29.1017 147.963 29.5918C148.628 30.0819 149.039 30.7445 149.197 31.5797ZM24.4673 47.7118V60.8027H22.0959V47.7118H24.4673ZM29.247 55.0499V60.8027H26.9331V50.9846H29.1447V52.6529H29.2598C29.4856 52.1032 29.8457 51.6664 30.34 51.3425C30.8386 51.0186 31.4544 50.8567 32.1873 50.8567C32.8649 50.8567 33.4551 51.0016 33.9579 51.2914C34.465 51.5811 34.8571 52.0009 35.1341 52.5506C35.4153 53.1003 35.5538 53.7672 35.5495 54.5513V60.8027H33.2356V54.9093C33.2356 54.253 33.0652 53.7395 32.7243 53.3688C32.3876 52.998 31.921 52.8127 31.3244 52.8127C30.9196 52.8127 30.5595 52.9022 30.2441 53.0811C29.9331 53.2559 29.688 53.5094 29.5091 53.8418C29.3343 54.1742 29.247 54.5769 29.247 55.0499ZM47.6337 47.7118H49.986V56.9164C49.9817 57.7601 49.8027 58.4867 49.449 59.0961C49.0953 59.7012 48.601 60.1678 47.9661 60.4959C47.3354 60.8198 46.6003 60.9817 45.7608 60.9817C44.9938 60.9817 44.3034 60.8453 43.6898 60.5726C43.0804 60.2956 42.5968 59.8865 42.2388 59.3453C41.8809 58.8042 41.7019 58.1309 41.7019 57.3255H44.0605C44.0648 57.6792 44.1415 57.9838 44.2907 58.2395C44.4441 58.4952 44.655 58.6912 44.9235 58.8276C45.1919 58.964 45.5009 59.0321 45.8503 59.0321C46.2296 59.0321 46.5513 58.9533 46.8155 58.7956C47.0797 58.6337 47.28 58.3951 47.4164 58.0797C47.557 57.7644 47.6294 57.3766 47.6337 56.9164V47.7118ZM56.7392 60.9945C55.7804 60.9945 54.9494 60.7836 54.2463 60.3617C53.5431 59.9398 52.9977 59.3496 52.6099 58.5911C52.2264 57.8326 52.0346 56.9462 52.0346 55.932C52.0346 54.9178 52.2264 54.0293 52.6099 53.2665C52.9977 52.5037 53.5431 51.9114 54.2463 51.4895C54.9494 51.0676 55.7804 50.8567 56.7392 50.8567C57.698 50.8567 58.5289 51.0676 59.2321 51.4895C59.9352 51.9114 60.4785 52.5037 60.862 53.2665C61.2498 54.0293 61.4437 54.9178 61.4437 55.932C61.4437 56.9462 61.2498 57.8326 60.862 58.5911C60.4785 59.3496 59.9352 59.9398 59.2321 60.3617C58.5289 60.7836 57.698 60.9945 56.7392 60.9945ZM56.752 59.1408C57.2718 59.1408 57.7065 58.998 58.0559 58.7125C58.4054 58.4228 58.6653 58.035 58.8358 57.5492C59.0105 57.0634 59.0978 56.5222 59.0978 55.9256C59.0978 55.3248 59.0105 54.7814 58.8358 54.2956C58.6653 53.8056 58.4054 53.4157 58.0559 53.1259C57.7065 52.8361 57.2718 52.6912 56.752 52.6912C56.2193 52.6912 55.7761 52.8361 55.4224 53.1259C55.073 53.4157 54.8109 53.8056 54.6362 54.2956C54.4657 54.7814 54.3805 55.3248 54.3805 55.9256C54.3805 56.5222 54.4657 57.0634 54.6362 57.5492C54.8109 58.035 55.073 58.4228 55.4224 58.7125C55.7761 58.998 56.2193 59.1408 56.752 59.1408ZM69.6655 56.6735V50.9846H71.9794V60.8027H69.7358V59.0577H69.6335C69.4119 59.6074 69.0476 60.057 68.5405 60.4064C68.0376 60.7559 67.4176 60.9306 66.6804 60.9306C66.0369 60.9306 65.468 60.7878 64.9737 60.5023C64.4837 60.2125 64.1001 59.7928 63.8232 59.2431C63.5462 58.6891 63.4077 58.0201 63.4077 57.236V50.9846H65.7216V56.878C65.7216 57.5002 65.892 57.9945 66.233 58.361C66.5739 58.7275 67.0213 58.9107 67.5753 58.9107C67.9162 58.9107 68.2464 58.8276 68.5661 58.6614C68.8857 58.4952 69.1477 58.248 69.3523 57.9199C69.5611 57.5875 69.6655 57.1721 69.6655 56.6735ZM74.3588 60.8027V50.9846H76.6025V52.6209H76.7047C76.8837 52.0542 77.1905 51.6174 77.6252 51.3105C78.0641 50.9995 78.5648 50.8439 79.1273 50.8439C79.2551 50.8439 79.3979 50.8503 79.5556 50.8631C79.7175 50.8716 79.8517 50.8865 79.9583 50.9078V53.0364C79.8603 53.0023 79.7047 52.9725 79.4917 52.9469C79.2828 52.9171 79.0804 52.9022 78.8844 52.9022C78.4625 52.9022 78.0833 52.9938 77.7466 53.177C77.4142 53.356 77.1522 53.6053 76.9604 53.9249C76.7686 54.2445 76.6728 54.6131 76.6728 55.0307V60.8027H74.3588ZM83.8095 55.0499V60.8027H81.4956V50.9846H83.7072V52.6529H83.8223C84.0481 52.1032 84.4082 51.6664 84.9025 51.3425C85.4011 51.0186 86.0169 50.8567 86.7498 50.8567C87.4274 50.8567 88.0176 51.0016 88.5204 51.2914C89.0275 51.5811 89.4196 52.0009 89.6966 52.5506C89.9778 53.1003 90.1163 53.7672 90.112 54.5513V60.8027H87.7981V54.9093C87.7981 54.253 87.6277 53.7395 87.2868 53.3688C86.9501 52.998 86.4835 52.8127 85.8869 52.8127C85.4821 52.8127 85.122 52.9022 84.8066 53.0811C84.4956 53.2559 84.2505 53.5094 84.0716 53.8418C83.8968 54.1742 83.8095 54.5769 83.8095 55.0499ZM95.2896 61.0009C94.6674 61.0009 94.1071 60.8901 93.6085 60.6685C93.1142 60.4426 92.7221 60.1103 92.4324 59.6713C92.1468 59.2324 92.0041 58.6912 92.0041 58.0478C92.0041 57.4938 92.1064 57.0357 92.3109 56.6735C92.5154 56.3113 92.7946 56.0215 93.1483 55.8042C93.502 55.5868 93.9004 55.4228 94.3436 55.312C94.791 55.1969 95.2534 55.1138 95.7306 55.0627C96.3059 55.003 96.7725 54.9498 97.1305 54.9029C97.4885 54.8517 97.7484 54.775 97.9103 54.6728C98.0765 54.5662 98.1596 54.4022 98.1596 54.1806V54.1422C98.1596 53.6607 98.0169 53.2878 97.7314 53.0236C97.4458 52.7594 97.0346 52.6273 96.4977 52.6273C95.9309 52.6273 95.4814 52.7509 95.149 52.998C94.8208 53.2452 94.5993 53.5371 94.4842 53.8738L92.3237 53.5669C92.4941 52.9703 92.7754 52.4718 93.1674 52.0712C93.5595 51.6664 94.0389 51.3638 94.6056 51.1635C95.1724 50.959 95.7988 50.8567 96.4849 50.8567C96.9579 50.8567 97.4288 50.9121 97.8976 51.0229C98.3663 51.1337 98.7946 51.3169 99.1824 51.5726C99.5701 51.824 99.8812 52.1671 100.116 52.6017C100.354 53.0364 100.474 53.5797 100.474 54.2317V60.8027H98.2491V59.454H98.1724C98.0318 59.7267 97.8336 59.9824 97.5779 60.2211C97.3265 60.4554 97.0091 60.6451 96.6255 60.79C96.2463 60.9306 95.801 61.0009 95.2896 61.0009ZM95.8904 59.3006C96.3549 59.3006 96.7576 59.209 97.0985 59.0257C97.4395 58.8382 97.7015 58.5911 97.8848 58.2843C98.0723 57.9775 98.166 57.6429 98.166 57.2807V56.1238C98.0936 56.1834 97.97 56.2388 97.7953 56.2899C97.6248 56.3411 97.4331 56.3858 97.22 56.4242C97.0069 56.4625 96.796 56.4966 96.5872 56.5265C96.3784 56.5563 96.1973 56.5819 96.0439 56.6032C95.6987 56.65 95.3897 56.7267 95.117 56.8333C94.8443 56.9398 94.6291 57.089 94.4714 57.2807C94.3137 57.4682 94.2349 57.7111 94.2349 58.0094C94.2349 58.4355 94.3904 58.7573 94.7015 58.9746C95.0126 59.1919 95.4089 59.3006 95.8904 59.3006ZM105.114 47.7118V60.8027H102.8V47.7118H105.114ZM115.254 53.5797L113.144 53.8098C113.085 53.5968 112.98 53.3965 112.831 53.209C112.686 53.0215 112.49 52.8702 112.243 52.7551C111.996 52.6401 111.693 52.5826 111.335 52.5826C110.854 52.5826 110.449 52.687 110.121 52.8958C109.797 53.1046 109.637 53.3752 109.641 53.7076C109.637 53.9931 109.741 54.2253 109.955 54.4043C110.172 54.5833 110.53 54.7303 111.028 54.8453L112.703 55.2033C113.632 55.4036 114.322 55.7211 114.774 56.1557C115.23 56.5904 115.46 57.1593 115.464 57.8624C115.46 58.4803 115.279 59.0257 114.921 59.4988C114.567 59.9675 114.075 60.334 113.445 60.5982C112.814 60.8624 112.089 60.9945 111.271 60.9945C110.07 60.9945 109.102 60.7431 108.369 60.2402C107.636 59.7331 107.2 59.0279 107.059 58.1245L109.315 57.9071C109.418 58.3503 109.635 58.6848 109.967 58.9107C110.3 59.1365 110.732 59.2495 111.265 59.2495C111.815 59.2495 112.256 59.1365 112.588 58.9107C112.925 58.6848 113.093 58.4057 113.093 58.0733C113.093 57.7921 112.984 57.5598 112.767 57.3766C112.554 57.1934 112.222 57.0527 111.77 56.9547L110.095 56.6032C109.153 56.4071 108.457 56.0769 108.005 55.6124C107.553 55.1436 107.33 54.5513 107.334 53.8354C107.33 53.2303 107.494 52.7061 107.826 52.263C108.163 51.8155 108.629 51.4703 109.226 51.2274C109.827 50.9803 110.519 50.8567 111.303 50.8567C112.454 50.8567 113.359 51.1017 114.02 51.5918C114.685 52.0819 115.096 52.7445 115.254 53.5797Z" fill="#292C76"/>
<path d="M196.317 21.804C186.168 23.3504 176.096 30.323 174.302 40.4301C172.327 51.5578 180.561 62.1038 180.78 73.4055C180.944 81.9385 176.535 89.8549 171.721 96.9077C166.911 103.957 161.464 110.839 159.061 119.027C156.662 127.219 158.18 137.312 165.174 142.205C172.446 147.294 182.292 145.051 191.124 145.887C202.161 146.931 211.976 152.974 221.818 158.073C231.661 163.172 242.837 167.543 253.613 164.931C265.552 162.037 273.796 151.442 280.946 141.456C290.559 128.03 300.07 114.287 305.939 98.8511C311.807 83.4152 313.765 65.914 308.06 50.4154C303.72 38.6295 293.645 27.8467 281.099 27.2476C273.044 26.8645 265.441 30.6364 257.562 32.3604C234.583 37.3896 219.265 18.3072 196.317 21.804Z" fill="#ECEDFF"/>
<path d="M293.784 152.904L278.793 127.396C278.16 126.319 277.08 125.602 275.868 125.417C277.425 124.836 278.536 123.342 278.536 121.583V62.9981C278.536 60.7343 276.7 58.9023 274.44 58.9023H189.518C187.254 58.9023 185.422 60.7378 185.422 62.9981V121.583C185.422 123.22 186.384 124.627 187.773 125.285C186.391 125.372 185.137 126.138 184.447 127.354L170.101 152.632C169.771 153.214 169.816 153.865 170.112 154.374V156.178C170.112 157.146 170.896 157.933 171.864 157.936L292.216 158.473C293.191 158.476 293.986 157.689 293.986 156.714V154.144C294.069 153.74 294.02 153.304 293.784 152.904Z" fill="black"/>
<path d="M173.234 151.058V153.04C173.234 154.008 174.018 154.795 174.986 154.799L295.339 155.335C296.314 155.339 297.108 154.552 297.108 153.576V150.783C297.108 150.783 173.234 151.407 173.234 151.058Z" fill="#D1D3DD"/>
<path d="M277.557 122.544H192.635C190.371 122.544 188.539 120.708 188.539 118.448V59.8634C188.539 57.5995 190.375 55.7676 192.635 55.7676H277.557C279.82 55.7676 281.652 57.603 281.652 59.8634V118.448C281.652 120.712 279.82 122.544 277.557 122.544Z" fill="url(#paint0_linear_7893_6400)"/>
<path d="M187.567 124.219L173.222 149.497C172.563 150.661 173.399 152.103 174.737 152.106L295.396 152.402C296.747 152.406 297.59 150.936 296.907 149.773L281.917 124.264C281.179 123.007 279.831 122.234 278.372 122.234L191.151 122.133C189.668 122.129 188.299 122.927 187.567 124.219Z" fill="#E4E6ED"/>
<path d="M278.334 60.0195H192.688V116.633H278.334V60.0195Z" fill="#D0D7E1"/>
<path d="M192.397 126.276L187.239 136.906C186.964 137.474 187.378 138.132 188.005 138.132H283.118C283.765 138.132 284.176 137.435 283.866 136.868L277.9 126.025C277.211 124.775 275.898 123.998 274.47 124.002C262.552 124.033 208.174 124.166 195.936 124.079C194.434 124.065 193.055 124.921 192.397 126.276Z" fill="#C2C4CE"/>
<path d="M216.933 140.421L215.306 149.052C215.191 149.665 215.662 150.229 216.282 150.229H255.735C256.414 150.229 256.891 149.564 256.679 148.923L253.75 140.132C253.614 139.725 253.231 139.45 252.799 139.453C248.184 139.488 222.84 139.673 217.919 139.613C217.434 139.606 217.02 139.948 216.933 140.421Z" fill="#C2C4CE"/>
<path d="M269.801 116.623L272.538 55.7676H269.804C269.804 55.7676 269.801 117.048 269.801 116.623Z" fill="black"/>
<path d="M202.046 116.623L199.309 55.7676H202.043C202.046 55.7676 202.046 117.048 202.046 116.623Z" fill="black"/>
<path d="M269.798 40.088V116.623H202.043V40.088C202.043 38.9979 202.928 38.1133 204.021 38.1133H267.823C268.913 38.1133 269.798 38.9979 269.798 40.088Z" fill="white"/>
<path d="M269.798 40.088V43.4281H202.043V40.088C202.043 38.9979 202.928 38.1133 204.021 38.1133H267.823C268.913 38.1133 269.798 38.9979 269.798 40.088Z" fill="#E1E4EA"/>
<path d="M207.344 41.133C207.344 41.7181 206.87 42.1918 206.285 42.1918C205.7 42.1918 205.227 41.7181 205.227 41.133C205.227 40.5479 205.7 40.0742 206.285 40.0742C206.87 40.0742 207.344 40.5479 207.344 41.133Z" fill="#F9544A"/>
<path d="M213.243 41.133C213.243 41.7181 212.769 42.1918 212.184 42.1918C211.599 42.1918 211.125 41.7181 211.125 41.133C211.125 40.5479 211.599 40.0742 212.184 40.0742C212.769 40.0742 213.243 40.5479 213.243 41.133Z" fill="#9ADEBD"/>
<path d="M210.289 41.133C210.289 41.7181 209.816 42.1918 209.231 42.1918C208.646 42.1918 208.172 41.7181 208.172 41.133C208.172 40.5479 208.646 40.0742 209.231 40.0742C209.816 40.0742 210.289 40.5479 210.289 41.133Z" fill="#FCB747"/>
<path d="M267.367 46.4746H205.289V48.2926H267.367V46.4746Z" fill="#E1E4EA"/>
<path d="M267.367 50.3359H205.289V52.154H267.367V50.3359Z" fill="#E1E4EA"/>
<path d="M267.367 54.1953H205.289V56.0133H267.367V54.1953Z" fill="#E1E4EA"/>
<path d="M267.524 61.4551H237.258V63.2731H267.524V61.4551Z" fill="#E1E4EA"/>
<path d="M267.524 65.3164H237.258V67.1344H267.524V65.3164Z" fill="#E1E4EA"/>
<path d="M267.524 69.1758H237.258V70.9938H267.524V69.1758Z" fill="#E1E4EA"/>
<path d="M267.524 72.7285H237.258V74.5466H267.524V72.7285Z" fill="#E1E4EA"/>
<path d="M267.524 76.5879H237.258V78.4059H267.524V76.5879Z" fill="#E1E4EA"/>
<path d="M267.524 80.4492H237.258V82.2672H267.524V80.4492Z" fill="#E1E4EA"/>
<path d="M235.558 58.752H205.445V84.7652H235.558V58.752Z" fill="#E1E4EA"/>
<path d="M205.445 110.943H235.711V109.125H205.445V110.943Z" fill="#E1E4EA"/>
<path d="M205.445 107.082H235.711V105.264H205.445V107.082Z" fill="#E1E4EA"/>
<path d="M205.445 103.223H235.711V101.405H205.445V103.223Z" fill="#E1E4EA"/>
<path d="M205.445 99.668H235.711V97.8499H205.445V99.668Z" fill="#E1E4EA"/>
<path d="M205.445 95.8086H235.711V93.9906H205.445V95.8086Z" fill="#E1E4EA"/>
<path d="M205.445 91.9473H235.711V90.1292H205.445V91.9473Z" fill="#E1E4EA"/>
<path d="M237.411 113.643H267.523V87.6293H237.411V113.643Z" fill="#E1E4EA"/>
<path d="M278.385 26.5473L277.291 34.5055L252.406 19L278.385 26.5473Z" fill="#E4A133"/>
<path d="M285.664 22.7197L278.385 26.5473L252.406 19L285.664 22.7197Z" fill="#FCB747"/>
<path d="M275.825 27.7593L252.406 19L268.163 31.8098L275.825 27.7593Z" fill="#FCB747"/>
<path d="M277.291 34.506L275.824 27.7598L270.75 30.445L277.291 34.506Z" fill="#F9C266"/>
<path d="M277.352 47.629L272.859 77.4043L297.748 81.1597L302.241 51.3845L277.352 47.629Z" fill="black"/>
<path d="M303.127 50.6128L278.238 46.8574L273.745 76.6327L298.634 80.3881L303.127 50.6128Z" fill="white"/>
<path d="M298.624 71.3474L276.828 68.0586L276.65 69.2398L298.446 72.5286L298.624 71.3474Z" fill="#E1E4EA"/>
<path d="M298.245 73.8591L276.449 70.5703L276.271 71.7515L298.067 75.0403L298.245 73.8591Z" fill="#E1E4EA"/>
<path d="M297.866 76.3689L276.07 73.0801L275.892 74.2613L297.688 77.5501L297.866 76.3689Z" fill="#E1E4EA"/>
<path d="M301.331 52.9982L279.648 49.7266L277.287 65.3787L298.969 68.6504L301.331 52.9982Z" fill="#E1E4EA"/>
<path d="M277.289 65.3744L285.529 54.9434L290.235 67.3074L277.289 65.3744Z" fill="white"/>
<path d="M286.734 65.5888L293.909 59.957L298.973 68.6467L286.821 66.8147L286.734 65.5888Z" fill="white"/>
<path d="M299.257 56.5852C299.051 57.9539 297.773 58.8978 296.401 58.6923C295.032 58.4868 294.088 57.2086 294.294 55.8364C294.499 54.4676 295.777 53.5238 297.15 53.7293C298.522 53.9382 299.462 55.2164 299.257 56.5852Z" fill="white"/>
<path d="M292.767 102.456C292.767 96.8281 288.204 92.2656 282.576 92.2656C278.118 92.2656 274.332 95.1285 272.949 99.1129C272.476 100.29 272.211 101.575 272.211 102.92C272.211 108.548 276.773 113.11 282.402 113.11C286.86 113.11 290.646 110.247 292.028 106.263C292.505 105.089 292.767 103.804 292.767 102.456Z" fill="black"/>
<path d="M282.941 112.493C288.569 112.493 293.131 107.93 293.131 102.302C293.131 96.6739 288.569 92.1113 282.941 92.1113C277.313 92.1113 272.75 96.6739 272.75 102.302C272.75 107.93 277.313 112.493 282.941 112.493Z" fill="#474759"/>
<path d="M283.117 112.03C288.745 112.03 293.307 107.467 293.307 101.839C293.307 96.211 288.745 91.6484 283.117 91.6484C277.488 91.6484 272.926 96.211 272.926 101.839C272.926 107.467 277.488 112.03 283.117 112.03Z" fill="#585972"/>
<path opacity="0.5" d="M288.9 102.431L288.019 102.111C287.935 102.079 287.879 102.003 287.872 101.916C287.858 101.707 287.831 101.498 287.789 101.296C287.771 101.212 287.803 101.129 287.865 101.076L288.848 100.293C289.245 99.9757 289.311 99.4011 288.994 99.004L287.858 97.5796C287.542 97.1825 286.967 97.1163 286.57 97.4333L285.741 98.095C285.668 98.1542 285.57 98.1577 285.49 98.1124C285.354 98.0358 285.219 97.9627 285.076 97.9C284.996 97.8651 284.943 97.785 284.943 97.698V96.5312C284.943 96.0262 284.532 95.6152 284.027 95.6152H282.206C281.701 95.6152 281.29 96.0262 281.29 96.5312V97.698C281.29 97.785 281.238 97.8651 281.158 97.9035H281.154C281.074 97.9383 280.983 97.9278 280.917 97.8721L279.963 97.0711C279.576 96.7437 278.995 96.7959 278.671 97.1825L277.501 98.5791C277.173 98.9657 277.225 99.5473 277.612 99.8712L278.493 100.61C278.563 100.669 278.587 100.763 278.563 100.85C278.559 100.857 278.559 100.86 278.559 100.867C278.535 100.947 278.469 101.01 278.385 101.024L277.173 101.237C276.675 101.324 276.341 101.801 276.428 102.299L276.745 104.092C276.832 104.59 277.309 104.925 277.807 104.838L278.838 104.657C278.929 104.639 279.019 104.685 279.068 104.761C279.085 104.792 279.106 104.82 279.124 104.848C279.169 104.918 279.172 105.008 279.131 105.082L278.57 106.053C278.316 106.492 278.465 107.053 278.904 107.307L280.482 108.22C280.921 108.474 281.481 108.324 281.736 107.885L282.199 107.084C282.244 107.004 282.335 106.962 282.425 106.976C282.491 106.987 282.558 106.994 282.624 107.001C282.711 107.011 282.784 107.063 282.812 107.147L283.153 108.087C283.327 108.564 283.853 108.808 284.33 108.634L286.044 108.011C286.521 107.836 286.765 107.311 286.591 106.833L286.291 106.008C286.26 105.924 286.284 105.827 286.35 105.768C286.41 105.715 286.465 105.66 286.521 105.601C286.584 105.538 286.674 105.517 286.758 105.545L287.656 105.872C288.134 106.046 288.66 105.799 288.834 105.325L289.457 103.612C289.621 103.131 289.377 102.605 288.9 102.431ZM282.955 104.622C281.589 104.622 280.482 103.514 280.482 102.149C280.482 100.784 281.589 99.6762 282.955 99.6762C284.32 99.6762 285.427 100.784 285.427 102.149C285.427 103.514 284.32 104.622 282.955 104.622Z" fill="black"/>
<path d="M288.978 102.142L288.096 101.822C288.013 101.79 287.957 101.714 287.95 101.627C287.936 101.418 287.908 101.209 287.867 101.007C287.849 100.923 287.88 100.839 287.943 100.787L288.925 100.004C289.322 99.6867 289.389 99.112 289.072 98.715L287.936 97.2905C287.619 96.8934 287.045 96.8273 286.648 97.1442L285.819 97.8059C285.745 97.8652 285.648 97.8686 285.568 97.8234C285.432 97.7467 285.296 97.6736 285.153 97.6109C285.073 97.5761 285.021 97.496 285.021 97.4089V96.2422C285.021 95.7371 284.61 95.3262 284.105 95.3262H282.284C281.779 95.3262 281.368 95.7371 281.368 96.2422V97.4089C281.368 97.496 281.315 97.5761 281.235 97.6144H281.232C281.152 97.6492 281.061 97.6388 280.995 97.583L280.041 96.782C279.654 96.4546 279.072 96.5068 278.748 96.8934L277.578 98.2901C277.251 98.6767 277.303 99.2583 277.69 99.5822L278.571 100.321C278.641 100.38 278.665 100.474 278.641 100.561C278.637 100.568 278.637 100.571 278.634 100.578C278.609 100.658 278.543 100.721 278.459 100.735L277.247 100.947C276.749 101.035 276.415 101.512 276.502 102.01L276.819 103.803C276.906 104.301 277.383 104.636 277.881 104.549L278.912 104.368C279.003 104.35 279.093 104.395 279.142 104.472C279.159 104.503 279.18 104.531 279.198 104.559C279.243 104.629 279.247 104.719 279.205 104.792L278.644 105.764C278.39 106.203 278.54 106.764 278.978 107.018L280.556 107.931C280.995 108.185 281.556 108.035 281.81 107.596L282.273 106.795C282.318 106.715 282.409 106.673 282.499 106.687C282.566 106.698 282.632 106.705 282.698 106.712C282.785 106.722 282.858 106.774 282.886 106.858L283.227 107.798C283.402 108.275 283.927 108.519 284.405 108.345L286.118 107.722C286.595 107.547 286.839 107.021 286.665 106.544L286.365 105.719C286.334 105.635 286.358 105.538 286.425 105.479C286.484 105.426 286.54 105.371 286.595 105.311C286.658 105.249 286.749 105.228 286.832 105.256L287.731 105.583C288.208 105.757 288.734 105.51 288.908 105.036L289.531 103.323C289.702 102.842 289.455 102.316 288.978 102.142ZM283.032 104.333C281.667 104.333 280.56 103.225 280.56 101.86C280.56 100.495 281.667 99.3871 283.032 99.3871C284.398 99.3871 285.505 100.495 285.505 101.86C285.509 103.225 284.401 104.333 283.032 104.333Z" fill="white"/>
<path d="M203.35 53.4767C198.759 49.0709 191.466 49.2241 187.064 53.8145C183.146 57.8964 182.836 64.1132 186.044 68.5399L186.04 68.5434L183.355 71.3436L182.926 70.9326L171.785 82.5478C170.771 83.6066 170.806 85.2853 171.862 86.3023C172.92 87.3158 174.599 87.281 175.616 86.2257L186.758 74.6105L186.329 74.1995L189.018 71.3958C193.57 74.4154 199.769 73.8477 203.688 69.7659C208.09 65.1755 207.94 57.8825 203.35 53.4767ZM194.315 53.7518C194.406 53.7414 194.493 53.7309 194.584 53.724C194.493 53.7344 194.406 53.7414 194.315 53.7518ZM193.601 53.8772C193.681 53.8598 193.758 53.8459 193.838 53.8319C193.758 53.8493 193.678 53.8598 193.601 53.8772ZM187.277 61.4802C187.284 61.3444 187.287 61.2051 187.297 61.0692C187.287 61.2051 187.284 61.3409 187.277 61.4802ZM187.489 59.9234C187.517 59.805 187.541 59.69 187.573 59.5716C187.541 59.6866 187.517 59.805 187.489 59.9234ZM187.994 58.4432C188.043 58.3387 188.085 58.2307 188.137 58.1263C188.085 58.2307 188.039 58.3387 187.994 58.4432ZM203.103 59.3313C203.078 59.2477 203.043 59.1711 203.012 59.0875C203.043 59.1676 203.078 59.2477 203.103 59.3313ZM189.345 67.2025C189.262 67.1119 189.182 67.0179 189.102 66.9239C189.178 67.0179 189.262 67.1119 189.345 67.2025ZM188.826 66.5651C188.764 66.4781 188.698 66.391 188.638 66.3004C188.698 66.391 188.76 66.4781 188.826 66.5651ZM191.097 68.6827C191.076 68.6688 191.052 68.6583 191.031 68.6444C191.055 68.6548 191.076 68.6688 191.097 68.6827ZM192.95 54.0513C192.936 54.0548 192.919 54.0583 192.905 54.0618C192.919 54.0583 192.933 54.0548 192.95 54.0513ZM191.999 54.4205C192.076 54.3857 192.149 54.3474 192.226 54.316C192.149 54.3509 192.072 54.3857 191.999 54.4205ZM191.56 54.633C191.526 54.6504 191.487 54.6678 191.452 54.6852C191.491 54.6678 191.526 54.6539 191.56 54.633ZM187.949 65.0501C187.924 64.9909 187.9 64.9352 187.879 64.876C187.9 64.9352 187.921 64.9944 187.949 65.0501ZM187.691 64.3779C187.667 64.3083 187.646 64.2386 187.621 64.169C187.642 64.2386 187.667 64.3083 187.691 64.3779ZM187.329 62.8072C187.318 62.7306 187.315 62.6504 187.304 62.5738C187.315 62.6504 187.322 62.7306 187.329 62.8072ZM191.641 68.9857C191.71 69.0205 191.78 69.0588 191.853 69.0937C191.78 69.0588 191.71 69.024 191.641 68.9857ZM192.344 69.3096C192.41 69.334 192.473 69.3653 192.539 69.3862C192.473 69.3619 192.407 69.334 192.344 69.3096ZM193.96 69.7763C194.012 69.7868 194.065 69.7902 194.117 69.7972C194.068 69.7902 194.016 69.7868 193.96 69.7763ZM200.072 68.3971C199.989 68.4563 199.902 68.5155 199.815 68.5713C199.902 68.512 199.989 68.4563 200.072 68.3971ZM199.439 68.8046C199.351 68.8568 199.261 68.9056 199.17 68.9544C199.261 68.9056 199.348 68.8568 199.439 68.8046ZM198.759 69.1529C198.676 69.1912 198.589 69.233 198.505 69.2678C198.589 69.233 198.676 69.1947 198.759 69.1529ZM197.986 69.4629C197.931 69.4803 197.875 69.5046 197.819 69.5221C197.878 69.5046 197.931 69.4838 197.986 69.4629ZM197.126 69.7067C197.056 69.7206 196.983 69.731 196.914 69.745C196.983 69.7345 197.056 69.7241 197.126 69.7067Z" fill="black"/>
<path d="M190.776 68.4134L187.801 65.5586L183.063 70.497L186.038 73.3519L190.776 68.4134Z" fill="#404057"/>
<path d="M172.204 84.7955C171.145 83.782 171.11 82.0998 172.127 81.041L183.269 69.4258L187.1 73.1002L175.958 84.7154C174.942 85.7742 173.263 85.809 172.204 84.7955Z" fill="#575770"/>
<path opacity="0.5" d="M186.383 67.0352L188.264 71.0265L189.622 69.6159L186.383 67.0352Z" fill="black"/>
<path d="M203.696 51.9728C199.106 47.567 191.813 47.7202 187.41 52.3106C183.004 56.901 183.158 64.194 187.748 68.5963C192.338 73.0021 199.632 72.8488 204.034 68.2585C208.44 63.6681 208.286 56.3785 203.696 51.9728ZM190.106 66.1374C186.874 63.0377 186.766 57.904 189.869 54.6685C192.969 51.4364 198.103 51.3284 201.338 54.4316C204.57 57.5314 204.678 62.665 201.575 65.9006C198.472 69.1327 193.338 69.2371 190.106 66.1374Z" fill="#FCB747"/>
<path opacity="0.5" d="M201.572 65.9007C198.96 68.6207 194.91 69.1292 191.765 67.3704C191.173 67.0395 190.615 66.6286 190.103 66.1375C190.016 66.0539 189.933 65.9703 189.853 65.8833C189.49 65.5071 189.173 65.1031 188.902 64.6817C188.031 63.3303 187.596 61.7735 187.61 60.2167C187.624 58.221 188.376 56.2254 189.867 54.672C192.447 51.9798 196.439 51.4574 199.57 53.1431C200.197 53.4844 200.796 53.9128 201.336 54.4352C201.959 55.0342 202.467 55.7064 202.854 56.4309C203.101 56.8836 203.3 57.3608 203.453 57.8449C203.697 58.6216 203.822 59.4296 203.826 60.2376C203.843 62.2681 203.094 64.3125 201.572 65.9007Z" fill="#C7D4F9"/>
<path opacity="0.2" d="M202.854 56.4269L188.902 64.6812C188.031 63.3298 187.596 61.773 187.61 60.2162L199.57 53.1426C200.197 53.4839 200.796 53.9123 201.336 54.4347C201.959 55.0303 202.467 55.7059 202.854 56.4269Z" fill="white"/>
<path opacity="0.2" d="M203.828 60.2341L191.764 67.3704C191.172 67.0395 190.614 66.6285 190.102 66.1375C190.015 66.0539 189.932 65.9703 189.852 65.8832L203.452 57.8379C203.699 58.618 203.825 59.4261 203.828 60.2341Z" fill="white"/>
<path opacity="0.5" d="M200.766 55.0236C203.901 58.0293 204.096 62.9471 201.278 66.1896C201.376 66.0955 201.473 66.0015 201.571 65.9005C204.67 62.6684 204.566 57.5348 201.334 54.4316C198.102 51.3318 192.968 51.4363 189.865 54.6684C189.771 54.7659 189.677 54.8669 189.59 54.9714C192.714 52.0249 197.632 52.018 200.766 55.0236Z" fill="black"/>
<path d="M253.274 105.813V105.632C253.274 104.368 252.25 103.344 250.985 103.344H235.313C234.452 103.344 233.756 102.647 233.756 101.787V100.227C233.756 99.213 232.934 98.3945 231.924 98.3945H214.527C213.514 98.3945 212.695 99.2165 212.695 100.227V103.344V108.153V111.556C211.629 112.148 210.95 113.336 211.093 114.645C211.675 119.898 212.061 129.047 212.222 133.439C212.27 134.814 213.402 135.905 214.778 135.905C222.172 135.908 244.082 136.1 251.748 136.169C253.159 136.183 254.312 135.055 254.329 133.644C254.406 127.793 255.872 116.512 256.749 110.25C257.063 108.032 255.454 106.036 253.274 105.813Z" fill="black"/>
<path d="M235.838 102.25V100.689C235.838 99.6759 235.016 98.8574 234.006 98.8574H216.609C215.596 98.8574 214.777 99.6794 214.777 100.689V103.807V108.616V132.665H255.359V106.095C255.359 104.83 254.335 103.807 253.071 103.807H237.398C236.535 103.807 235.838 103.11 235.838 102.25Z" fill="#FCB747"/>
<path d="M252.564 105.523H215.848V132.063H252.564V105.523Z" fill="#E9E9E9"/>
<path d="M253.423 104.492H216.707V131.031H253.423V104.492Z" fill="#F4F4F4"/>
<path d="M214.3 133.904C214.14 129.512 213.753 120.363 213.172 115.111C212.966 113.254 214.419 111.628 216.285 111.628H226.292C228.078 111.628 229.802 110.963 231.129 109.761L233.456 107.651C234.445 106.752 235.737 106.254 237.074 106.254H254.948C257.331 106.254 259.159 108.358 258.832 110.715C257.954 116.978 256.488 128.258 256.411 134.11C256.394 135.52 255.237 136.645 253.83 136.635C246.165 136.565 224.254 136.373 216.86 136.37C215.481 136.366 214.352 135.28 214.3 133.904Z" fill="#FCB747"/>
<defs>
<linearGradient id="paint0_linear_7893_6400" x1="188.54" y1="89.1566" x2="281.653" y2="89.1566" gradientUnits="userSpaceOnUse">
<stop stop-color="#2A2E38"/>
<stop offset="1" stop-color="#2C2F3A"/>
</linearGradient>
</defs>
</svg>
