<svg width="209" height="147" viewBox="0 0 209 147" fill="none" xmlns="http://www.w3.org/2000/svg">
<g id="Group 1000011097">
<g id="Group 1000011095">
<path id="path44" d="M176.797 71.3574C176.532 71.3574 176.316 71.1423 176.316 70.8764V66.9479C176.316 66.682 176.532 66.4669 176.797 66.4669C177.063 66.4669 177.278 66.682 177.278 66.9479V70.8764C177.278 71.1423 177.063 71.3574 176.797 71.3574Z" fill="white"/>
<path id="path48" d="M178.763 69.3887H174.834C174.569 69.3887 174.354 69.1735 174.354 68.9077C174.354 68.6419 174.569 68.4267 174.834 68.4267H178.763C179.028 68.4267 179.244 68.6419 179.244 68.9077C179.244 69.1735 179.028 69.3887 178.763 69.3887Z" fill="white"/>
<g id="Group 1000011091">
<path id="path20" d="M182.318 94.5943C178.163 101.7 172.548 107.827 165.863 112.98C163.342 114.93 160.671 116.735 157.866 118.402C157.59 118.569 157.311 118.733 157.032 118.893C152.553 121.494 147.749 123.748 142.702 125.659C142.176 125.861 141.644 126.056 141.112 126.249C140.705 126.396 140.297 126.541 139.887 126.682C139.852 126.694 139.813 126.707 139.775 126.72C138.037 127.323 136.273 127.887 134.487 128.41C133.904 128.583 133.32 128.75 132.73 128.91C131.662 129.208 130.585 129.49 129.501 129.757C128.927 129.901 128.35 130.039 127.773 130.173C123.486 131.174 119.099 131.959 114.649 132.533C66.4617 138.754 11.2139 120.147 0.901874 78.0809C-2.16994 65.5564 3.01495 57.8961 10.2616 53.0639C13.8657 50.659 17.986 48.9532 21.8499 47.6994C22.0166 47.6417 22.1865 47.5872 22.3533 47.5359C22.3597 47.5327 22.3661 47.5327 22.3725 47.5295C25.6848 46.481 28.7823 45.7563 31.1775 45.1984C31.1775 45.1984 31.2994 44.9162 31.5527 44.4C34.4417 38.5 54.2899 1.81462 102.047 0.0414276C132.076 -1.07442 133.766 20.8195 145.579 30.5031H145.582C148.714 33.0714 152.559 34.7805 157.834 34.9729H157.837C158.052 34.9825 158.273 34.9857 158.491 34.9889H158.494C158.786 34.9921 159.081 34.9921 159.382 34.9857C159.53 34.9857 159.684 34.9793 159.835 34.9729C159.886 34.9729 159.934 34.9729 159.985 34.9697C159.988 34.9729 159.992 34.9729 159.995 34.9697C160.21 34.9633 160.425 34.9505 160.646 34.9376C160.649 34.9408 160.652 34.9376 160.652 34.9376C160.797 34.9312 160.944 34.9184 161.088 34.9088C161.476 34.8799 161.874 34.8446 162.278 34.7998H162.281C162.316 34.7998 162.352 34.7933 162.387 34.7901C162.704 34.7549 163.015 34.726 163.326 34.6971H163.33C163.961 34.6458 164.58 34.6138 165.193 34.5945H165.196C168.684 34.4951 171.881 34.9537 174.754 35.9028C192.958 41.8957 198.181 67.4674 182.318 94.5943Z" fill="#EFF3FF"/>
<path id="path40" d="M162.93 59.583C161.805 59.583 160.888 58.6659 160.888 57.5404C160.888 56.415 161.805 55.4979 162.93 55.4979C164.056 55.4979 164.973 56.415 164.973 57.5404C164.973 58.6659 164.056 59.583 162.93 59.583ZM162.93 54.536C161.276 54.536 159.926 55.8827 159.926 57.5404C159.926 59.195 161.276 60.5449 162.93 60.5449C164.588 60.5449 165.935 59.195 165.935 57.5404C165.935 55.8827 164.588 54.536 162.93 54.536Z" fill="white"/>
<path id="path40_2" d="M135.753 113.177C134.627 113.177 133.71 112.26 133.71 111.134C133.71 110.009 134.627 109.092 135.753 109.092C136.878 109.092 137.795 110.009 137.795 111.134C137.795 112.26 136.878 113.177 135.753 113.177ZM135.753 108.13C134.098 108.13 132.748 109.476 132.748 111.134C132.748 112.789 134.098 114.139 135.753 114.139C137.41 114.139 138.757 112.789 138.757 111.134C138.757 109.476 137.41 108.13 135.753 108.13Z" fill="white"/>
<path id="path52" d="M32.8311 82.737C32.7028 83.266 32.379 83.7149 31.914 84.0003C30.9521 84.5903 29.6919 84.2857 29.1052 83.327C28.5184 82.365 28.8198 81.1081 29.7785 80.5181C30.7405 79.9313 31.9974 80.2327 32.5874 81.1946C32.8728 81.6596 32.9593 82.2047 32.8311 82.737ZM33.4083 80.6912C32.5425 79.2772 30.6892 78.8347 29.2751 79.6972C28.3516 80.2648 27.8418 81.2524 27.8418 82.2656C27.8418 82.8011 27.9861 83.3398 28.2843 83.8304C28.7043 84.5134 29.3649 84.9943 30.1441 85.1803C30.3781 85.238 30.6154 85.2637 30.8527 85.2637C31.3978 85.2637 31.9365 85.113 32.4142 84.8212C33.1004 84.4011 33.5782 83.7406 33.7674 82.9614C33.9534 82.1822 33.8251 81.3742 33.4083 80.6912Z" fill="white"/>
<path id="path56" d="M14.1082 81.959C13.9462 81.959 13.7881 81.8772 13.6977 81.7294L11.6453 78.3799C11.5064 78.1532 11.5773 77.8572 11.804 77.7181C12.0307 77.5799 12.3266 77.6507 12.4652 77.8771L14.5176 81.2266C14.6565 81.4533 14.5856 81.7493 14.3589 81.8881C14.2807 81.9362 14.1938 81.959 14.1082 81.959Z" fill="white"/>
<path id="path56_2" d="M110.438 118.455C110.276 118.455 110.118 118.373 110.028 118.225L107.975 114.876C107.836 114.649 107.907 114.353 108.134 114.214C108.361 114.076 108.657 114.147 108.795 114.373L110.848 117.723C110.987 117.949 110.916 118.245 110.689 118.384C110.611 118.432 110.524 118.455 110.438 118.455Z" fill="white"/>
<path id="path60" d="M11.4053 81.3105C11.2434 81.3105 11.0853 81.2288 10.9949 81.081C10.856 80.8543 10.9269 80.5583 11.1536 80.4195L14.5034 78.3667C14.7298 78.2285 15.0261 78.2993 15.1646 78.5254C15.3034 78.7521 15.2326 79.0481 15.0059 79.1872L11.656 81.2397C11.5778 81.2878 11.4909 81.3105 11.4053 81.3105Z" fill="white"/>
<path id="path60_2" d="M107.739 117.807C107.577 117.807 107.419 117.725 107.329 117.577C107.19 117.35 107.261 117.054 107.488 116.916L110.837 114.863C111.064 114.725 111.36 114.795 111.499 115.021C111.637 115.248 111.567 115.544 111.34 115.683L107.99 117.736C107.912 117.784 107.825 117.807 107.739 117.807Z" fill="white"/>
<path id="path64" d="M36.4434 56.1302C36.4434 56.1302 44.7357 53.9879 45.8986 54.4897C47.0613 54.9915 48.914 62.7467 48.3519 62.9375C47.7898 63.128 45.1175 60.4596 45.1175 60.4596C45.1175 60.4596 44.4586 61.7794 43.4216 61.3404C42.3843 60.9011 41.2592 59.066 41.2592 59.066C41.2592 59.066 40.9674 59.9654 39.9003 59.5864C38.8332 59.2071 37.4249 57.1524 37.4249 57.1524L36.4434 56.1302Z" fill="white"/>
<path id="path68" d="M15.6709 45.0129C15.6709 45.0129 11.3223 37.6344 10.1452 37.1669C8.96809 36.6997 2.17419 40.8733 2.43712 41.4056C2.69973 41.9378 6.47633 41.9404 6.47633 41.9404C6.47633 41.9404 6.00882 43.3397 7.05253 43.7627C8.09625 44.1853 10.1898 43.6838 10.1898 43.6838C10.1898 43.6838 9.76009 44.5258 10.7826 45.0122C11.8052 45.4986 14.254 45.0417 14.254 45.0417L15.6709 45.0129Z" fill="#F3F6FF"/>
<path id="path72" d="M40.984 50.0336L33.973 64.0809C33.7649 64.4981 33.258 64.6684 32.8395 64.4596L10.6385 53.379C10.2213 53.1709 10.053 52.6633 10.2611 52.2464L17.2724 38.1991C17.3195 38.1046 17.383 38.0221 17.458 37.9545C17.7062 37.7243 18.0817 37.6585 18.4043 37.8195L40.6053 48.9005C40.9279 49.0614 41.1014 49.4007 41.0677 49.7383C41.0587 49.8387 41.0311 49.9391 40.984 50.0336Z" fill="#FFD200"/>
<path id="path76" d="M11.4141 52.4634L24.5389 51.2446C25.2023 51.183 25.8439 51.5004 26.1972 52.0651L33.2804 63.377L26.7709 51.4126C26.4191 50.7187 25.6544 50.3368 24.8884 50.4731L11.4141 52.4634Z" fill="#F09227"/>
<path id="path80" d="M41.0257 49.8223L24.9622 52.4629L17.416 38.0385C17.6879 37.7602 18.0807 37.6601 18.4033 37.8211L40.6044 48.9021C40.9269 49.0631 41.0831 49.4369 41.0257 49.8223Z" fill="#FFE03D"/>
<path id="path84" d="M17.8848 38.9345L24.4494 51.4244C24.7723 52.0449 25.4113 52.3672 26.1014 52.2575L39.9265 50.061L25.8612 53.2355C25.0599 53.442 24.2952 53.0604 23.9787 52.296L17.8848 38.9345Z" fill="#F09227"/>
<g id="Group 1000011096">
<path id="path88" d="M196.861 64.096C196.861 64.096 200.927 57.7773 201.975 57.408C203.023 57.0386 208.835 60.9308 208.586 61.3885C208.338 61.8459 205.027 61.7184 205.027 61.7184C205.027 61.7184 205.389 62.9612 204.459 63.296C203.53 63.6307 201.712 63.1191 201.712 63.1191C201.712 63.1191 202.06 63.8721 201.146 64.2634C200.233 64.6547 198.102 64.17 198.102 64.17L196.861 64.096Z" fill="#F3F6FF"/>
<path id="path92" d="M176.863 69.3116C176.863 69.3116 169.667 67.1486 168.63 67.5486C167.594 67.9487 165.703 74.6837 166.19 74.8699C166.676 75.0561 169.11 72.8088 169.11 72.8088C169.11 72.8088 169.642 73.9886 170.567 73.6392C171.491 73.2898 172.54 71.7198 172.54 71.7198C172.54 71.7198 172.765 72.5182 173.714 72.2225C174.662 71.9269 175.967 70.1741 175.967 70.1741L176.863 69.3116Z" fill="white"/>
<path id="path96" d="M196.156 57.4666L200.006 70.6911C200.121 71.0835 199.896 71.495 199.502 71.6098L178.601 77.695C178.209 77.8092 177.798 77.5828 177.684 77.1901L173.834 63.9656C173.808 63.8767 173.8 63.7856 173.808 63.6975C173.83 63.4016 174.033 63.1358 174.337 63.0472L195.237 56.9622C195.541 56.8736 195.855 56.9892 196.034 57.2264C196.088 57.2964 196.13 57.3777 196.156 57.4666Z" fill="#FFD200"/>
<path id="path100" d="M178.555 76.6426L186.283 68.0405C186.674 67.6059 187.276 67.4281 187.84 67.5812L199.14 70.6494L187.821 66.8194C187.181 66.582 186.461 66.7915 186.049 67.3356L178.555 76.6426Z" fill="#F09227"/>
<path id="path104" d="M196.057 57.3001L187.282 68.5684L173.83 63.7713C173.839 63.43 174.033 63.1316 174.336 63.0432L195.237 56.958C195.541 56.8697 195.864 57.0174 196.057 57.3001Z" fill="#FFE03D"/>
<path id="path108" d="M174.664 64.0703L186.331 68.2058C186.909 68.4131 187.512 68.2401 187.892 67.7585L195.489 58.1097L188.319 68.5315C187.926 69.142 187.207 69.3515 186.547 69.0475L174.664 64.0703Z" fill="#F09227"/>
</g>
</g>
</g>
<g id="Group 1000011102">
<g id="Group 1000011094">
<path id="path136" d="M51.4268 46.8535L94.3983 14.9724C96.1547 13.6689 98.5595 13.6774 100.307 14.9931L142.626 46.8535H51.4268Z" fill="#FFD200"/>
<path id="path140" d="M141.058 108.146H52.9965C51.3416 108.146 50 106.805 50 105.15V49.4296C50 47.7747 51.3416 46.4331 52.9965 46.4331H141.058C142.713 46.4331 144.055 47.7747 144.055 49.4296V105.15C144.055 106.805 142.713 108.146 141.058 108.146Z" fill="#FFD200"/>
<path id="path144" d="M139.81 50.5138L129.927 58.1654L129.797 58.2655L121.778 64.4712L115.988 68.9532L103.928 78.2878L101.608 80.0858L100.318 79.2999C98.3009 78.0654 95.7615 78.0765 93.7522 79.3221L92.4696 80.1191L90.438 78.5547L77.9634 68.9532L72.1395 64.4712L64.0802 58.2655L62.6047 57.1311L54.0078 50.5138H139.81Z" fill="white"/>
<path id="path148" d="M140.74 103.992L101.608 80.0847L100.318 79.2988C98.3009 78.0643 95.7615 78.0755 93.7522 79.3211L92.4696 80.1181L54.0078 103.992L90.438 78.5537L93.641 76.3183C95.8542 74.6686 98.8903 74.6686 101.107 76.3183L103.928 78.2868L140.74 103.992Z" fill="#F09227"/>
<path id="path150" d="M139.807 22.5763H54.0039V50.5156H139.807V22.5763Z" fill="white"/>
<path id="path152" d="M129.926 36.8945H62.6025V32.4137H129.926V36.8945Z" fill="#DAE3FF"/>
<path id="path154" d="M129.926 47.584H62.6025V43.1031H129.926V47.584Z" fill="#DAE3FF"/>
<path id="path158" d="M129.926 53.7874V58.1655L129.797 58.2656H64.0799L62.6045 57.1312V53.7874H129.926Z" fill="#DAE3FF"/>
<path id="path162" d="M121.777 64.4731L115.987 68.9551H77.9626L72.1387 64.4731H121.777Z" fill="#DAE3FF"/>
<path id="path226" d="M158.261 102.076C158.261 110.786 151.199 117.848 142.489 117.848C133.778 117.848 126.717 110.786 126.717 102.076C126.717 93.3652 133.778 86.3037 142.489 86.3037C151.199 86.3037 158.261 93.3652 158.261 102.076Z" fill="#00CF78"/>
</g>
<path id="Vector" d="M138.937 109.84L132.233 102.99C131.83 102.579 131.83 101.912 132.233 101.5L133.691 100.01C134.094 99.598 134.747 99.598 135.15 100.01L139.667 104.624L149.34 94.7403C149.743 94.3288 150.396 94.3288 150.799 94.7403L152.258 96.2307C152.66 96.6422 152.66 97.3095 152.258 97.721L140.396 109.84C139.993 110.252 139.34 110.252 138.937 109.84Z" fill="white"/>
</g>
</g>
</svg>
