<svg width="49" height="48" viewBox="0 0 49 48" fill="none" xmlns="http://www.w3.org/2000/svg">
<path d="M28.6213 3.95557H12.7993C11.7502 3.95557 10.7441 4.37231 10.0023 5.11411C9.26049 5.85591 8.84375 6.86201 8.84375 7.91108V39.5552C8.84375 40.6042 9.26049 41.6103 10.0023 42.3521C10.7441 43.0939 11.7502 43.5107 12.7993 43.5107H36.5323C37.5814 43.5107 38.5875 43.0939 39.3293 42.3521C40.0711 41.6103 40.4878 40.6042 40.4878 39.5552V15.8221L28.6213 3.95557ZM19.2052 32.5262C19.2052 34.8046 18.1155 35.5997 16.3612 35.5997C15.9459 35.5997 15.4 35.5285 15.046 35.4078L15.2457 33.9502C15.4969 34.0333 15.8173 34.0926 16.1733 34.0926C16.9328 34.0926 17.4055 33.7485 17.4055 32.5025V27.4731H19.2072V32.5262H19.2052ZM25.7199 31.8043C25.1009 32.3838 24.1911 32.6469 23.1231 32.6469C22.8858 32.6469 22.6722 32.633 22.5061 32.6093V35.4672H20.7142V27.5799C21.5232 27.4581 22.3408 27.4032 23.1587 27.4157C24.2722 27.4157 25.0673 27.6273 25.5993 28.0545C26.1115 28.458 26.4557 29.1225 26.4557 29.9057C26.4557 30.6889 26.1926 31.3534 25.7199 31.8043ZM34.2856 35.1013C33.7318 35.2911 32.6737 35.5522 31.6176 35.5522C30.16 35.5522 29.1039 35.1843 28.3682 34.4723C27.6344 33.7841 27.2309 32.7418 27.2408 31.567C27.2547 28.9089 29.185 27.392 31.8075 27.392C32.8379 27.392 33.6349 27.5957 34.0245 27.7836L33.6468 29.2293C33.2077 29.0394 32.6638 28.8852 31.7857 28.8852C30.2806 28.8852 29.1395 29.7396 29.1395 31.4721C29.1395 33.1196 30.1738 34.0926 31.6532 34.0926C32.0705 34.0926 32.4008 34.0451 32.5452 33.972V32.2988H31.3111V30.8886H34.2856V35.1013ZM28.6213 17.7999H26.6436V7.91108L36.5323 17.7999H28.6213Z" fill="#3F6CF5"/>
<path d="M23.2456 28.7803C22.8778 28.7803 22.6286 28.8159 22.5 28.8515V31.2109C22.6523 31.2465 22.8441 31.2564 23.1072 31.2564C24.0644 31.2564 24.6577 30.7699 24.6577 29.9531C24.6577 29.2174 24.1494 28.7803 23.2456 28.7803Z" fill="#3F6CF5"/>
</svg>
