<svg width="40" height="40" viewBox="0 0 40 40" fill="none" xmlns="http://www.w3.org/2000/svg">
<path d="M34.3883 12.446L23.3777 2.36557C23.1994 2.20385 23.0052 2.06729 22.7951 1.95229C22.7396 1.92354 22.6841 1.89479 22.6247 1.86963C22.589 1.85166 22.5494 1.83729 22.5137 1.82291C22.157 1.67916 21.7646 1.6001 21.3643 1.6001H7.69023C6.11276 1.6001 4.79688 2.75729 4.79688 4.1876V35.8126C4.79688 37.2429 6.11276 38.4001 7.69023 38.4001H32.3828C33.9603 38.4001 35.1969 37.2429 35.1969 35.8126V14.2681C35.1969 13.5853 34.9194 12.9312 34.3883 12.446ZM22.8308 5.5676L30.7895 12.8126H22.8308V5.5676ZM32.3432 35.8126H7.65059V4.1876H19.9771V12.8126C19.9771 14.2429 21.2929 15.4001 22.8704 15.4001H32.3432V35.8126ZM13.5958 26.6306C13.5958 27.5003 13.2986 27.759 12.7278 27.759C12.3711 27.759 11.9985 27.5506 11.7449 27.0942L10.54 27.9063C11.0711 28.7293 11.8202 29.1354 12.9696 29.1354C14.6184 29.1354 15.3794 28.0609 15.3794 26.7563V22.336H13.5958V26.6306ZM19.5926 22.336H17.0441V29.0204H18.788V26.7923H19.6441C21.1938 26.7923 22.5414 26.0879 22.5414 24.5067C22.5414 22.8607 21.2137 22.336 19.5926 22.336ZM19.5609 25.5345H18.788V23.6298H19.5094C20.3615 23.6298 20.8332 23.8526 20.8332 24.5246C20.8332 25.1751 20.417 25.5345 19.5609 25.5345ZM26.7943 25.211V26.5048H27.9833V27.5865C27.8248 27.6907 27.5473 27.7554 27.2818 27.7554C25.9223 27.7554 25.2723 26.9863 25.2723 25.6638C25.2723 24.3665 26.0531 23.601 27.1391 23.601C27.7455 23.601 28.13 23.8238 28.4867 24.1185L29.426 23.1015C28.9227 22.6415 28.1537 22.2318 27.0796 22.2318C25.1137 22.2318 23.4689 23.5004 23.4689 25.7178C23.4689 27.971 25.0543 29.1354 27.0955 29.1354C28.122 29.1354 29.0455 28.7688 29.533 28.3232V25.211H26.7943Z" fill="#888888"/>
</svg>
