<svg width="21" height="22" viewBox="0 0 21 22" fill="none" xmlns="http://www.w3.org/2000/svg">
<path d="M18 8C17.3367 8.00198 16.6928 8.22393 16.1692 8.6311C15.6456 9.03827 15.2718 9.60764 15.1065 10.25H11.8935C11.7873 9.82704 11.5894 9.43261 11.3137 9.09465C11.0381 8.75669 10.6916 8.48346 10.2986 8.29432C9.9057 8.10519 9.47598 8.00477 9.03991 8.00017C8.60384 7.99558 8.17209 8.08693 7.77525 8.26775L5.3925 5.29025C5.78445 4.77552 5.99774 4.14696 6 3.5C6 2.90666 5.82405 2.32664 5.49441 1.83329C5.16477 1.33994 4.69623 0.955426 4.14805 0.728363C3.59987 0.5013 2.99667 0.44189 2.41473 0.557646C1.83279 0.673401 1.29824 0.959123 0.878681 1.37868C0.459123 1.79824 0.173401 2.33279 0.0576455 2.91473C-0.0581102 3.49667 0.00129984 4.09987 0.228363 4.64805C0.455426 5.19623 0.839943 5.66477 1.33329 5.99441C1.82664 6.32405 2.40666 6.5 3 6.5C3.42291 6.49902 3.84072 6.40773 4.2255 6.23225L6.6075 9.20975C6.21376 9.7235 6.00036 10.3527 6.00036 11C6.00036 11.6473 6.21376 12.2765 6.6075 12.7903L4.2255 15.7678C3.84072 15.5923 3.42291 15.501 3 15.5C2.40666 15.5 1.82664 15.676 1.33329 16.0056C0.839943 16.3352 0.455426 16.8038 0.228363 17.352C0.00129984 17.9001 -0.0581102 18.5033 0.0576455 19.0853C0.173401 19.6672 0.459123 20.2018 0.878681 20.6213C1.29824 21.0409 1.83279 21.3266 2.41473 21.4424C2.99667 21.5581 3.59987 21.4987 4.14805 21.2716C4.69623 21.0446 5.16477 20.6601 5.49441 20.1667C5.82405 19.6734 6 19.0933 6 18.5C5.99779 17.853 5.78449 17.2245 5.3925 16.7098L7.7745 13.7323C8.17138 13.9132 8.6032 14.0047 9.03936 14.0001C9.47552 13.9956 9.90534 13.8952 10.2984 13.7061C10.6914 13.5169 11.038 13.2437 11.3137 12.9056C11.5894 12.5676 11.7873 12.1731 11.8935 11.75H15.1065C15.2477 12.2919 15.5381 12.7834 15.9446 13.1686C16.3511 13.5538 16.8575 13.8173 17.4062 13.9291C17.9549 14.041 18.524 13.9968 19.0489 13.8015C19.5738 13.6062 20.0333 13.2676 20.3754 12.8242C20.7176 12.3808 20.9285 11.8504 20.9843 11.2932C21.0401 10.7359 20.9385 10.1742 20.6912 9.67181C20.4438 9.1694 20.0605 8.74642 19.5848 8.4509C19.1091 8.15538 18.56 7.99917 18 8ZM1.5 3.5C1.5 3.20333 1.58797 2.91332 1.7528 2.66665C1.91762 2.41997 2.15189 2.22771 2.42598 2.11418C2.70007 2.00065 3.00167 1.97095 3.29264 2.02882C3.58361 2.0867 3.85088 2.22956 4.06066 2.43934C4.27044 2.64912 4.4133 2.91639 4.47118 3.20737C4.52906 3.49834 4.49935 3.79994 4.38582 4.07403C4.27229 4.34812 4.08003 4.58238 3.83336 4.74721C3.58668 4.91203 3.29667 5 3 5C2.6023 4.9996 2.221 4.84144 1.93978 4.56022C1.65856 4.279 1.5004 3.8977 1.5 3.5ZM3 20C2.70333 20 2.41332 19.912 2.16665 19.7472C1.91997 19.5824 1.72771 19.3481 1.61418 19.074C1.50065 18.7999 1.47095 18.4983 1.52882 18.2074C1.5867 17.9164 1.72956 17.6491 1.93934 17.4393C2.14912 17.2296 2.41639 17.0867 2.70737 17.0288C2.99834 16.9709 3.29994 17.0007 3.57403 17.1142C3.84812 17.2277 4.08238 17.42 4.24721 17.6666C4.41203 17.9133 4.5 18.2033 4.5 18.5C4.4996 18.8977 4.34144 19.279 4.06022 19.5602C3.779 19.8414 3.3977 19.9996 3 20ZM9 12.5C8.70333 12.5 8.41332 12.412 8.16665 12.2472C7.91997 12.0824 7.72771 11.8481 7.61418 11.574C7.50065 11.2999 7.47095 10.9983 7.52882 10.7074C7.5867 10.4164 7.72956 10.1491 7.93934 9.93934C8.14912 9.72956 8.41639 9.5867 8.70737 9.52882C8.99834 9.47095 9.29994 9.50065 9.57403 9.61418C9.84812 9.72771 10.0824 9.91997 10.2472 10.1666C10.412 10.4133 10.5 10.7033 10.5 11C10.4996 11.3977 10.3414 11.779 10.0602 12.0602C9.77901 12.3414 9.39771 12.4996 9 12.5ZM18 12.5C17.7033 12.5 17.4133 12.412 17.1666 12.2472C16.92 12.0824 16.7277 11.8481 16.6142 11.574C16.5007 11.2999 16.4709 10.9983 16.5288 10.7074C16.5867 10.4164 16.7296 10.1491 16.9393 9.93934C17.1491 9.72956 17.4164 9.5867 17.7074 9.52882C17.9983 9.47095 18.2999 9.50065 18.574 9.61418C18.8481 9.72771 19.0824 9.91997 19.2472 10.1666C19.412 10.4133 19.5 10.7033 19.5 11C19.4996 11.3977 19.3414 11.779 19.0602 12.0602C18.779 12.3414 18.3977 12.4996 18 12.5Z" fill="white"/>
</svg>
