<svg width="47" height="57" viewBox="0 0 47 57" fill="none" xmlns="http://www.w3.org/2000/svg">
<path fill-rule="evenodd" clip-rule="evenodd" d="M10.6835 4.77246H27.5238C28.3675 4.77263 29.1766 5.08529 29.7732 5.64168L41.5674 16.639C42.1641 17.1952 42.4994 17.9497 42.4996 18.7364V46.3053C42.4996 47.8789 41.8292 49.3881 40.6359 50.5008C39.4425 51.6135 37.824 52.2386 36.1364 52.2386H10.6835C8.9959 52.2386 7.37739 51.6135 6.18405 50.5008C4.99072 49.3881 4.32031 47.8789 4.32031 46.3053V10.7057C4.32031 9.13213 4.99072 7.62298 6.18405 6.51027C7.37739 5.39757 8.9959 4.77246 10.6835 4.77246V4.77246ZM28.1824 9.22241V15.1557C28.1824 15.9425 28.5176 16.6971 29.1142 17.2534C29.7109 17.8098 30.5202 18.1223 31.364 18.1223H37.7272L28.1824 9.22241ZM11.2085 45.3204C11.4948 45.8544 11.9403 46.338 12.602 46.5634C13.2606 46.7859 13.9129 46.6821 14.4474 46.4744C15.4591 46.0888 16.4677 45.181 17.3935 44.1427C18.453 42.953 19.5666 41.3926 20.642 39.663C22.7181 39.0893 24.8441 38.6863 26.9956 38.4586C27.9501 39.5948 28.9364 40.5738 29.8909 41.2769C30.7817 41.9295 31.8094 42.4724 32.8625 42.514C33.4361 42.5405 34.0041 42.3972 34.4851 42.1046C34.9783 41.8049 35.3442 41.3718 35.6114 40.8705C35.8978 40.3335 36.0727 39.7728 36.0505 39.2002C36.0303 38.6357 35.8061 38.0942 35.4142 37.6635C34.6951 36.8625 33.5179 36.4769 32.3598 36.284C30.955 36.0812 29.5296 36.0314 28.1124 36.1357C26.9156 34.5582 25.8722 32.8843 24.9944 31.134C25.7898 29.176 26.3848 27.3248 26.6488 25.8118C26.7634 25.1651 26.8238 24.548 26.8015 23.9903C26.7976 23.4367 26.6595 22.8911 26.3975 22.3943C26.2465 22.1201 26.032 21.8807 25.7696 21.6934C25.5071 21.5061 25.2031 21.3756 24.8799 21.3114C24.2372 21.1839 23.5754 21.3114 22.9677 21.5399C21.7682 21.9849 21.1351 22.9342 20.8965 23.9814C20.6642 24.9901 20.7692 26.1649 21.0428 27.3515C21.3228 28.556 21.8001 29.8672 22.4109 31.1933C21.4338 33.4592 20.3053 35.6658 19.0321 37.8C17.3924 38.281 15.8119 38.9224 14.3169 39.7135C13.1397 40.3661 12.093 41.1375 11.463 42.0482C10.7949 43.0153 10.5881 44.1664 11.2085 45.3204Z" fill="#C52424"/>
</svg>
