<svg width="69" height="69" viewBox="0 0 69 69" fill="none" xmlns="http://www.w3.org/2000/svg">
<path d="M69 6V0L62.876 6H69Z" fill="#0229A0"/>
<path d="M6 69.0001V62.9094L0 69.0001H6Z" fill="#0229A0"/>
<path d="M0 6C0 2.68629 2.68629 0 6 0H69L35.5 33.5L0 69V6Z" fill="#2148C0"/>
<path d="M13.0796 41.5627C12.4832 42.1543 11.814 42.5589 11.0721 42.7765C10.3302 42.9828 9.59479 42.9911 8.86582 42.8015C8.13121 42.6061 7.47659 42.2188 6.90194 41.6395C6.32728 41.0601 5.9481 40.4052 5.76439 39.6747C5.57505 38.9386 5.59219 38.2004 5.81581 37.4603C6.0338 36.7144 6.44098 36.0458 7.03736 35.4542C7.5031 34.9922 8.00796 34.6492 8.55193 34.4251C9.09027 34.1954 9.64787 34.0987 10.2247 34.1349L10.2033 35.221C9.28703 35.1946 8.49377 35.5139 7.82356 36.1786C7.38053 36.6181 7.0787 37.1147 6.91806 37.6684C6.75742 38.2221 6.74951 38.7765 6.89434 39.3314C7.03921 39.8751 7.32573 40.3627 7.7539 40.7944C8.18207 41.2261 8.6702 41.5194 9.21829 41.6743C9.76643 41.818 10.318 41.8117 10.873 41.6556C11.428 41.4995 11.927 41.2017 12.3701 40.7622C13.0346 40.1031 13.3574 39.3096 13.3386 38.3818L14.4248 38.3692C14.4563 38.9463 14.3551 39.5088 14.1209 40.0566C13.8924 40.5987 13.5453 41.1008 13.0796 41.5627ZM18.1761 36.4736C17.7274 36.9187 17.2256 37.2193 16.6706 37.3754C16.1156 37.5315 15.564 37.5378 15.0159 37.3941C14.4678 37.2392 13.974 36.9402 13.5346 36.4972C13.0951 36.0541 12.803 35.5608 12.6581 35.0172C12.5133 34.4622 12.524 33.9107 12.6903 33.3626C12.8509 32.8089 13.1556 32.3095 13.6043 31.8644C14.053 31.4194 14.552 31.1216 15.1013 30.9711C15.6507 30.8093 16.1994 30.8058 16.7475 30.9608C17.2957 31.1044 17.7895 31.3978 18.2289 31.8408C18.6683 32.2838 18.9605 32.7828 19.1053 33.3378C19.2502 33.8814 19.2423 34.4301 19.0816 34.9838C18.9267 35.5319 18.6248 36.0285 18.1761 36.4736ZM17.4663 35.7579C17.756 35.4706 17.9496 35.149 18.0472 34.793C18.1449 34.4257 18.1407 34.0579 18.0347 33.6898C17.9231 33.316 17.7124 32.9729 17.4025 32.6605C17.0926 32.3481 16.7541 32.1375 16.3868 32.0285C16.0139 31.9138 15.6463 31.9067 15.2838 32.007C14.927 32.1018 14.6038 32.2928 14.3141 32.5801C14.0245 32.8674 13.828 33.1919 13.7247 33.5535C13.6271 33.9095 13.6313 34.2772 13.7372 34.6567C13.8432 35.0248 14.0511 35.3651 14.361 35.6774C14.6708 35.9898 15.0122 36.2034 15.3851 36.318C15.758 36.4213 16.1257 36.4285 16.4881 36.3395C16.8506 36.2391 17.1766 36.0453 17.4663 35.7579ZM22.7269 22.8157C23.2948 22.2523 23.9069 21.9719 24.5631 21.9746C25.225 21.9716 25.877 22.2939 26.5193 22.9414L29.0968 25.5399L28.2789 26.3512L25.7944 23.8464C25.3606 23.409 24.9316 23.181 24.5074 23.1623C24.0889 23.138 23.6922 23.3117 23.3173 23.6836C22.9027 24.0948 22.7028 24.5522 22.7178 25.0558C22.727 25.5536 22.9711 26.0439 23.45 26.5267L25.7571 28.8526L24.9392 29.6638L22.4547 27.1591C22.0209 26.7217 21.5919 26.4937 21.1677 26.475C20.7491 26.4507 20.3525 26.6244 19.9776 26.9963C19.563 27.4075 19.3631 27.8649 19.378 28.3685C19.3873 28.8663 19.6314 29.3566 20.1103 29.8394L22.4174 32.1653L21.5995 32.9765L17.1206 28.4611L17.9044 27.6837L18.572 28.3567C18.5057 27.9605 18.5469 27.5703 18.6955 27.1862C18.8385 26.7965 19.0804 26.4326 19.4212 26.0946C19.7734 25.7453 20.1562 25.5064 20.5697 25.378C20.9831 25.2495 21.3989 25.2484 21.817 25.3746C21.7283 24.9443 21.7611 24.506 21.9157 24.0597C22.0759 23.6078 22.3463 23.1931 22.7269 22.8157ZM26.1228 19.5317L26.9407 18.7204L31.4196 23.2359L30.6017 24.0471L26.1228 19.5317ZM25.6698 18.2571C25.5107 18.4148 25.3265 18.4961 25.1172 18.5009C24.9136 18.5001 24.7385 18.4258 24.592 18.2781C24.4456 18.1305 24.3727 17.9548 24.3736 17.7512C24.3744 17.5362 24.4544 17.3499 24.6134 17.1921C24.7725 17.0344 24.9538 16.9559 25.1574 16.9567C25.3611 16.9462 25.5362 17.0148 25.6827 17.1625C25.8348 17.3159 25.9104 17.5 25.9096 17.715C25.9087 17.9186 25.8288 18.0993 25.6698 18.2571ZM30.8711 14.7373C31.4448 14.1683 32.0654 13.8851 32.7329 13.8878C33.4004 13.8792 34.0525 14.1958 34.6891 14.8376L37.2666 17.4361L36.4487 18.2474L33.9642 15.7426C33.5304 15.3053 33.0985 15.0801 32.6687 15.067C32.2388 15.054 31.8279 15.2418 31.436 15.6305C30.993 16.07 30.7733 16.5471 30.7768 17.0619C30.7748 17.571 31.0132 18.0669 31.492 18.5497L33.7991 20.8756L32.9812 21.6869L28.5023 17.1714L29.2861 16.394L29.9622 17.0755C29.8959 16.6793 29.94 16.2807 30.0943 15.8796C30.2544 15.473 30.5133 15.0922 30.8711 14.7373ZM38.6458 7.11002L42.5162 11.012C43.2993 11.8015 43.6808 12.5781 43.6608 13.3417C43.6463 14.1109 43.25 14.8815 42.4719 15.6533C42.0459 16.0759 41.5807 16.4191 41.0761 16.6829C40.5772 16.9524 40.1015 17.0975 39.6488 17.1183L39.4154 16.0991C39.8058 16.0724 40.2051 15.9581 40.6132 15.7561C41.0326 15.5542 41.4071 15.2898 41.7365 14.963C42.2647 14.4391 42.5298 13.9282 42.5319 13.4304C42.5396 12.927 42.2899 12.4197 41.7828 11.9085L41.4279 11.5507C41.4658 11.9751 41.4019 12.3878 41.2362 12.7888C41.0706 13.1784 40.823 13.5366 40.4936 13.8634C40.0619 14.2916 39.5799 14.5894 39.0475 14.757C38.5151 14.9132 37.9861 14.9252 37.4606 14.7929C36.9294 14.655 36.4525 14.3731 36.03 13.9471C35.6074 13.5211 35.3322 13.0448 35.2042 12.5182C35.0706 11.9859 35.0869 11.457 35.2531 10.9316C35.4249 10.4006 35.7267 9.92096 36.1584 9.49279C36.4992 9.15476 36.8764 8.90456 37.29 8.74219C37.7093 8.57418 38.1338 8.51934 38.5634 8.57765L37.8705 7.87904L38.6458 7.11002ZM39.8775 13.0548C40.1728 12.7618 40.375 12.4374 40.4839 12.0814C40.5985 11.7198 40.6112 11.3635 40.5222 11.0124C40.4331 10.65 40.2478 10.3268 39.9661 10.0428C39.5323 9.60549 39.0381 9.397 38.4837 9.41738C37.9236 9.43207 37.4163 9.66478 36.962 10.1155C36.5019 10.5718 36.2622 11.08 36.243 11.6399C36.2181 12.1942 36.4226 12.69 36.8564 13.1274C37.1381 13.4113 37.4569 13.6021 37.8129 13.6998C38.1689 13.7861 38.5254 13.7762 38.8822 13.6702C39.2447 13.5585 39.5764 13.3534 39.8775 13.0548Z" fill="white"/>
<path d="M13.0256 20.944C12.2528 21.7546 11.4194 22.1649 10.5256 22.175C9.63184 22.185 8.75067 21.776 7.88214 20.9479L4.42536 17.6523L5.2534 16.7838L8.67543 20.0463C9.97824 21.2883 11.1734 21.339 12.2609 20.1983C12.7908 19.6425 13.0373 19.0651 13.0004 18.4662C12.9577 17.8617 12.6063 17.2449 11.9462 16.6155L8.52415 13.3531L9.32734 12.5106L12.7841 15.8062C13.6584 16.6397 14.1119 17.5032 14.1446 18.3964C14.1714 19.2842 13.7984 20.1333 13.0256 20.944ZM14.6689 9.77724C15.094 9.33139 15.5733 9.02571 16.1069 8.86019C16.6405 8.69468 17.1777 8.68185 17.7186 8.82172C18.265 8.9558 18.7699 9.24364 19.2331 9.68526C19.6963 10.1269 20.0108 10.6202 20.1766 11.1651C20.3421 11.6987 20.3549 12.2359 20.2151 12.7768C20.0752 13.3177 19.7927 13.8111 19.3677 14.2569C19.053 14.587 18.6995 14.8302 18.3072 14.9867C17.9203 15.1374 17.5142 15.1924 17.0889 15.1516L19.4687 17.4204L18.6737 18.2542L12.3855 12.2592L13.1473 11.4602L13.8769 12.1557C13.7988 11.7275 13.8313 11.3109 13.9744 10.9057C14.1117 10.495 14.3432 10.1189 14.6689 9.77724ZM18.5719 13.6309C18.8534 13.3355 19.038 13.0086 19.1256 12.65C19.213 12.2802 19.1985 11.9127 19.0823 11.5477C18.9658 11.1713 18.7483 10.8314 18.4299 10.5277C18.1114 10.2241 17.7643 10.0259 17.3887 9.933C17.0127 9.8288 16.645 9.83192 16.2855 9.94235C15.9315 10.047 15.6138 10.247 15.3322 10.5423C15.0562 10.8318 14.8745 11.1615 14.7872 11.5314C14.6995 11.8899 14.7111 12.2546 14.8218 12.6255C14.938 12.9905 15.1553 13.3248 15.4738 13.6284C15.7923 13.932 16.1395 14.1359 16.5154 14.2401C16.8856 14.3388 17.2533 14.3357 17.6186 14.2308C17.9781 14.1203 18.2958 13.9204 18.5719 13.6309Z" fill="white"/>
</svg>
