<svg width="16" height="16" viewBox="0 0 16 16" fill="none" xmlns="http://www.w3.org/2000/svg">
<path d="M14.372 3.22025C14.7018 3.33614 14.9874 3.55158 15.1895 3.8368C15.3915 4.12203 15.5 4.46296 15.5 4.8125V12.3125C15.5 13.1579 15.1642 13.9686 14.5664 14.5664C13.9686 15.1642 13.1579 15.5 12.3125 15.5H4.8125C4.46296 15.5 4.12203 15.3915 3.8368 15.1895C3.55158 14.9874 3.33614 14.7018 3.22025 14.372L4.793 14.375H12.3125C12.8595 14.375 13.3841 14.1577 13.7709 13.7709C14.1577 13.3841 14.375 12.8595 14.375 12.3125V4.8125L14.372 4.77425V3.22025ZM11.9345 0.5C12.3821 0.5 12.8113 0.67779 13.1277 0.994257C13.4442 1.31072 13.622 1.73995 13.622 2.1875V11.9352C13.622 12.3828 13.4442 12.812 13.1277 13.1285C12.8113 13.445 12.3821 13.6227 11.9345 13.6227H2.1875C1.73995 13.6227 1.31072 13.445 0.994257 13.1285C0.67779 12.812 0.5 12.3828 0.5 11.9352V2.1875C0.5 1.73995 0.67779 1.31072 0.994257 0.994257C1.31072 0.67779 1.73995 0.5 2.1875 0.5H11.9352H11.9345ZM11.9345 1.625H2.1875C2.03832 1.625 1.89524 1.68426 1.78975 1.78975C1.68426 1.89524 1.625 2.03832 1.625 2.1875V11.9352C1.625 12.2457 1.877 12.4977 2.1875 12.4977H11.9352C12.0844 12.4977 12.2275 12.4385 12.333 12.333C12.4385 12.2275 12.4977 12.0844 12.4977 11.9352V2.1875C12.4977 2.03832 12.4385 1.89524 12.333 1.78975C12.2275 1.68426 12.0844 1.625 11.9352 1.625H11.9345ZM7.0625 4.0625C7.21168 4.0625 7.35476 4.12176 7.46025 4.22725C7.56574 4.33274 7.625 4.47582 7.625 4.625V6.5H9.5C9.64918 6.5 9.79226 6.55926 9.89775 6.66475C10.0032 6.77024 10.0625 6.91332 10.0625 7.0625C10.0625 7.21168 10.0032 7.35476 9.89775 7.46025C9.79226 7.56574 9.64918 7.625 9.5 7.625H7.625V9.5C7.625 9.64918 7.56574 9.79226 7.46025 9.89775C7.35476 10.0032 7.21168 10.0625 7.0625 10.0625C6.91332 10.0625 6.77024 10.0032 6.66475 9.89775C6.55926 9.79226 6.5 9.64918 6.5 9.5V7.625H4.625C4.47582 7.625 4.33274 7.56574 4.22725 7.46025C4.12176 7.35476 4.0625 7.21168 4.0625 7.0625C4.0625 6.91332 4.12176 6.77024 4.22725 6.66475C4.33274 6.55926 4.47582 6.5 4.625 6.5H6.5V4.625C6.5 4.47582 6.55926 4.33274 6.66475 4.22725C6.77024 4.12176 6.91332 4.0625 7.0625 4.0625Z" fill="#2148C0"/>
</svg>
