<svg width="64" height="87" viewBox="0 0 64 87" fill="none" xmlns="http://www.w3.org/2000/svg">
<path d="M6.3518 75.6H7.5518V82.956H12.0998V84H6.3518V75.6ZM13.3088 77.64H14.4608V84H13.3088V77.64ZM13.8848 76.416C13.6608 76.416 13.4728 76.344 13.3208 76.2C13.1768 76.056 13.1048 75.88 13.1048 75.672C13.1048 75.464 13.1768 75.288 13.3208 75.144C13.4728 74.992 13.6608 74.916 13.8848 74.916C14.1088 74.916 14.2928 74.988 14.4368 75.132C14.5888 75.268 14.6648 75.44 14.6648 75.648C14.6648 75.864 14.5888 76.048 14.4368 76.2C14.2928 76.344 14.1088 76.416 13.8848 76.416ZM20.0564 77.58C20.8644 77.58 21.5044 77.816 21.9764 78.288C22.4564 78.752 22.6964 79.436 22.6964 80.34V84H21.5444V80.472C21.5444 79.856 21.3964 79.392 21.1004 79.08C20.8044 78.768 20.3804 78.612 19.8284 78.612C19.2044 78.612 18.7124 78.796 18.3524 79.164C17.9924 79.524 17.8124 80.044 17.8124 80.724V84H16.6604V77.64H17.7644V78.6C17.9964 78.272 18.3084 78.02 18.7004 77.844C19.1004 77.668 19.5524 77.58 20.0564 77.58ZM27.3003 81.036L25.9803 82.26V84H24.8283V75.096H25.9803V80.808L29.4483 77.64H30.8403L28.1643 80.268L31.1043 84H29.6883L27.3003 81.036ZM37.7013 80.856C37.7013 80.944 37.6933 81.06 37.6773 81.204H32.5173C32.5893 81.764 32.8333 82.216 33.2493 82.56C33.6733 82.896 34.1973 83.064 34.8213 83.064C35.5813 83.064 36.1933 82.808 36.6573 82.296L37.2933 83.04C37.0053 83.376 36.6453 83.632 36.2133 83.808C35.7893 83.984 35.3133 84.072 34.7853 84.072C34.1133 84.072 33.5173 83.936 32.9973 83.664C32.4773 83.384 32.0733 82.996 31.7853 82.5C31.5053 82.004 31.3653 81.444 31.3653 80.82C31.3653 80.204 31.5013 79.648 31.7733 79.152C32.0533 78.656 32.4333 78.272 32.9133 78C33.4013 77.72 33.9493 77.58 34.5573 77.58C35.1653 77.58 35.7053 77.72 36.1773 78C36.6573 78.272 37.0293 78.656 37.2933 79.152C37.5653 79.648 37.7013 80.216 37.7013 80.856ZM34.5573 78.552C34.0053 78.552 33.5413 78.72 33.1653 79.056C32.7973 79.392 32.5813 79.832 32.5173 80.376H36.5973C36.5333 79.84 36.3133 79.404 35.9373 79.068C35.5693 78.724 35.1093 78.552 34.5573 78.552ZM45.301 75.096V84H44.197V82.992C43.941 83.344 43.617 83.612 43.225 83.796C42.833 83.98 42.401 84.072 41.929 84.072C41.313 84.072 40.761 83.936 40.273 83.664C39.785 83.392 39.401 83.012 39.121 82.524C38.849 82.028 38.713 81.46 38.713 80.82C38.713 80.18 38.849 79.616 39.121 79.128C39.401 78.64 39.785 78.26 40.273 77.988C40.761 77.716 41.313 77.58 41.929 77.58C42.385 77.58 42.805 77.668 43.189 77.844C43.573 78.012 43.893 78.264 44.149 78.6V75.096H45.301ZM42.025 83.064C42.425 83.064 42.789 82.972 43.117 82.788C43.445 82.596 43.701 82.332 43.885 81.996C44.069 81.652 44.161 81.26 44.161 80.82C44.161 80.38 44.069 79.992 43.885 79.656C43.701 79.312 43.445 79.048 43.117 78.864C42.789 78.68 42.425 78.588 42.025 78.588C41.617 78.588 41.249 78.68 40.921 78.864C40.601 79.048 40.345 79.312 40.153 79.656C39.969 79.992 39.877 80.38 39.877 80.82C39.877 81.26 39.969 81.652 40.153 81.996C40.345 82.332 40.601 82.596 40.921 82.788C41.249 82.972 41.617 83.064 42.025 83.064ZM47.4807 77.64H48.6327V84H47.4807V77.64ZM48.0567 76.416C47.8327 76.416 47.6447 76.344 47.4927 76.2C47.3487 76.056 47.2767 75.88 47.2767 75.672C47.2767 75.464 47.3487 75.288 47.4927 75.144C47.6447 74.992 47.8327 74.916 48.0567 74.916C48.2807 74.916 48.4647 74.988 48.6087 75.132C48.7607 75.268 48.8367 75.44 48.8367 75.648C48.8367 75.864 48.7607 76.048 48.6087 76.2C48.4647 76.344 48.2807 76.416 48.0567 76.416ZM54.2282 77.58C55.0362 77.58 55.6762 77.816 56.1482 78.288C56.6282 78.752 56.8682 79.436 56.8682 80.34V84H55.7162V80.472C55.7162 79.856 55.5682 79.392 55.2722 79.08C54.9762 78.768 54.5522 78.612 54.0002 78.612C53.3762 78.612 52.8842 78.796 52.5242 79.164C52.1642 79.524 51.9842 80.044 51.9842 80.724V84H50.8322V77.64H51.9362V78.6C52.1682 78.272 52.4802 78.02 52.8722 77.844C53.2722 77.668 53.7242 77.58 54.2282 77.58Z" fill="#0274B3"/>
<circle cx="32" cy="32" r="32" fill="#0274B3" fill-opacity="0.08"/>
<path fill-rule="evenodd" clip-rule="evenodd" d="M29.429 28.969H33.143V30.819C33.678 29.755 35.05 28.799 37.111 28.799C41.062 28.799 42 30.917 42 34.803V42H38V35.688C38 33.475 37.465 32.227 36.103 32.227C34.214 32.227 33.429 33.572 33.429 35.687V42H29.429V28.969ZM22.57 41.83H26.57V28.799H22.57V41.83ZM27.143 24.55C27.1431 24.8853 27.0767 25.2172 26.9474 25.5266C26.8181 25.8359 26.6287 26.1165 26.39 26.352C25.9064 26.8326 25.2518 27.1017 24.57 27.1C23.8894 27.0995 23.2363 26.8312 22.752 26.353C22.5142 26.1167 22.3254 25.8358 22.1963 25.5264C22.0673 25.217 22.0006 24.8852 22 24.55C22 23.873 22.27 23.225 22.753 22.747C23.2369 22.2682 23.8902 21.9997 24.571 22C25.253 22 25.907 22.269 26.39 22.747C26.872 23.225 27.143 23.873 27.143 24.55Z" fill="#0274B3"/>
</svg>
