<svg width="65" height="87" viewBox="0 0 65 87" fill="none" xmlns="http://www.w3.org/2000/svg">
<circle opacity="0.8" cx="32" cy="32" r="32" fill="#25D366" fill-opacity="0.1"/>
<path d="M13.1378 75.6L10.3298 84H9.06977L6.77777 77.292L4.48577 84H3.20177L0.393766 75.6H1.62977L3.89777 82.428L6.26177 75.6H7.36577L9.68177 82.464L11.9978 75.6H13.1378ZM18.0095 77.58C18.8175 77.58 19.4575 77.816 19.9295 78.288C20.4095 78.752 20.6495 79.436 20.6495 80.34V84H19.4975V80.472C19.4975 79.856 19.3495 79.392 19.0535 79.08C18.7575 78.768 18.3335 78.612 17.7815 78.612C17.1575 78.612 16.6655 78.796 16.3055 79.164C15.9455 79.524 15.7655 80.044 15.7655 80.724V84H14.6135V75.096H15.7655V78.54C16.0055 78.236 16.3175 78 16.7015 77.832C17.0935 77.664 17.5295 77.58 18.0095 77.58ZM25.0975 77.58C25.9775 77.58 26.6495 77.796 27.1135 78.228C27.5855 78.66 27.8215 79.304 27.8215 80.16V84H26.7295V83.16C26.5375 83.456 26.2615 83.684 25.9015 83.844C25.5495 83.996 25.1295 84.072 24.6415 84.072C23.9295 84.072 23.3575 83.9 22.9255 83.556C22.5015 83.212 22.2895 82.76 22.2895 82.2C22.2895 81.64 22.4935 81.192 22.9015 80.856C23.3095 80.512 23.9575 80.34 24.8455 80.34H26.6695V80.112C26.6695 79.616 26.5255 79.236 26.2375 78.972C25.9495 78.708 25.5255 78.576 24.9655 78.576C24.5895 78.576 24.2215 78.64 23.8615 78.768C23.5015 78.888 23.1975 79.052 22.9495 79.26L22.4695 78.396C22.7975 78.132 23.1895 77.932 23.6455 77.796C24.1015 77.652 24.5855 77.58 25.0975 77.58ZM24.8335 83.184C25.2735 83.184 25.6535 83.088 25.9735 82.896C26.2935 82.696 26.5255 82.416 26.6695 82.056V81.168H24.8935C23.9175 81.168 23.4295 81.496 23.4295 82.152C23.4295 82.472 23.5535 82.724 23.8015 82.908C24.0495 83.092 24.3935 83.184 24.8335 83.184ZM33.5293 83.628C33.3613 83.772 33.1533 83.884 32.9053 83.964C32.6573 84.036 32.4013 84.072 32.1373 84.072C31.4973 84.072 31.0013 83.9 30.6493 83.556C30.2973 83.212 30.1213 82.72 30.1213 82.08V78.588H29.0413V77.64H30.1213V76.248H31.2733V77.64H33.0973V78.588H31.2733V82.032C31.2733 82.376 31.3573 82.64 31.5253 82.824C31.7013 83.008 31.9493 83.1 32.2693 83.1C32.6213 83.1 32.9213 83 33.1693 82.8L33.5293 83.628ZM36.7461 84.072C36.2261 84.072 35.7261 84.004 35.2461 83.868C34.7661 83.724 34.3901 83.544 34.1181 83.328L34.5981 82.416C34.8781 82.616 35.2181 82.776 35.6181 82.896C36.0181 83.016 36.4221 83.076 36.8301 83.076C37.8381 83.076 38.3421 82.788 38.3421 82.212C38.3421 82.02 38.2741 81.868 38.1381 81.756C38.0021 81.644 37.8301 81.564 37.6221 81.516C37.4221 81.46 37.1341 81.4 36.7581 81.336C36.2461 81.256 35.8261 81.164 35.4981 81.06C35.1781 80.956 34.9021 80.78 34.6701 80.532C34.4381 80.284 34.3221 79.936 34.3221 79.488C34.3221 78.912 34.5621 78.452 35.0421 78.108C35.5221 77.756 36.1661 77.58 36.9741 77.58C37.3981 77.58 37.8221 77.632 38.2461 77.736C38.6701 77.84 39.0181 77.98 39.2901 78.156L38.7981 79.068C38.2781 78.732 37.6661 78.564 36.9621 78.564C36.4741 78.564 36.1021 78.644 35.8461 78.804C35.5901 78.964 35.4621 79.176 35.4621 79.44C35.4621 79.648 35.5341 79.812 35.6781 79.932C35.8221 80.052 35.9981 80.14 36.2061 80.196C36.4221 80.252 36.7221 80.316 37.1061 80.388C37.6181 80.476 38.0301 80.572 38.3421 80.676C38.6621 80.772 38.9341 80.94 39.1581 81.18C39.3821 81.42 39.4941 81.756 39.4941 82.188C39.4941 82.764 39.2461 83.224 38.7501 83.568C38.2621 83.904 37.5941 84.072 36.7461 84.072ZM46.4538 81.9H41.9898L41.0658 84H39.8298L43.6338 75.6H44.8218L48.6378 84H47.3778L46.4538 81.9ZM46.0338 80.94L44.2218 76.824L42.4098 80.94H46.0338ZM53.0949 77.58C53.7109 77.58 54.2629 77.716 54.7509 77.988C55.2389 78.26 55.6189 78.64 55.8909 79.128C56.1709 79.616 56.3109 80.18 56.3109 80.82C56.3109 81.46 56.1709 82.028 55.8909 82.524C55.6189 83.012 55.2389 83.392 54.7509 83.664C54.2629 83.936 53.7109 84.072 53.0949 84.072C52.6389 84.072 52.2189 83.984 51.8349 83.808C51.4589 83.632 51.1389 83.376 50.8749 83.04V86.328H49.7229V77.64H50.8269V78.648C51.0829 78.296 51.4069 78.032 51.7989 77.856C52.1909 77.672 52.6229 77.58 53.0949 77.58ZM52.9989 83.064C53.4069 83.064 53.7709 82.972 54.0909 82.788C54.4189 82.596 54.6749 82.332 54.8589 81.996C55.0509 81.652 55.1469 81.26 55.1469 80.82C55.1469 80.38 55.0509 79.992 54.8589 79.656C54.6749 79.312 54.4189 79.048 54.0909 78.864C53.7709 78.68 53.4069 78.588 52.9989 78.588C52.5989 78.588 52.2349 78.684 51.9069 78.876C51.5869 79.06 51.3309 79.32 51.1389 79.656C50.9549 79.992 50.8629 80.38 50.8629 80.82C50.8629 81.26 50.9549 81.652 51.1389 81.996C51.3229 82.332 51.5789 82.596 51.9069 82.788C52.2349 82.972 52.5989 83.064 52.9989 83.064ZM61.2745 77.58C61.8905 77.58 62.4425 77.716 62.9305 77.988C63.4185 78.26 63.7985 78.64 64.0705 79.128C64.3505 79.616 64.4905 80.18 64.4905 80.82C64.4905 81.46 64.3505 82.028 64.0705 82.524C63.7985 83.012 63.4185 83.392 62.9305 83.664C62.4425 83.936 61.8905 84.072 61.2745 84.072C60.8185 84.072 60.3985 83.984 60.0145 83.808C59.6385 83.632 59.3185 83.376 59.0545 83.04V86.328H57.9025V77.64H59.0065V78.648C59.2625 78.296 59.5865 78.032 59.9785 77.856C60.3705 77.672 60.8025 77.58 61.2745 77.58ZM61.1785 83.064C61.5865 83.064 61.9505 82.972 62.2705 82.788C62.5985 82.596 62.8545 82.332 63.0385 81.996C63.2305 81.652 63.3265 81.26 63.3265 80.82C63.3265 80.38 63.2305 79.992 63.0385 79.656C62.8545 79.312 62.5985 79.048 62.2705 78.864C61.9505 78.68 61.5865 78.588 61.1785 78.588C60.7785 78.588 60.4145 78.684 60.0865 78.876C59.7665 79.06 59.5105 79.32 59.3185 79.656C59.1345 79.992 59.0425 80.38 59.0425 80.82C59.0425 81.26 59.1345 81.652 59.3185 81.996C59.5025 82.332 59.7585 82.596 60.0865 82.788C60.4145 82.972 60.7785 83.064 61.1785 83.064Z" fill="#31BE44"/>
<path d="M40.4054 23.4875C38.1607 21.2375 35.1714 20 31.9946 20C25.4375 20 20.1018 25.3357 20.1018 31.8929C20.1018 33.9875 20.6482 36.0339 21.6875 37.8393L20 44L26.3054 42.3446C28.0411 43.2929 29.9964 43.7911 31.9893 43.7911H31.9946C38.5464 43.7911 44 38.4554 44 31.8982C44 28.7214 42.65 25.7375 40.4054 23.4875ZM31.9946 41.7875C30.2161 41.7875 28.475 41.3107 26.9589 40.4107L26.6 40.1964L22.8607 41.1768L23.8571 37.5286L23.6214 37.1536C22.6304 35.5786 22.1107 33.7625 22.1107 31.8929C22.1107 26.4446 26.5464 22.0089 32 22.0089C34.6411 22.0089 37.1214 23.0375 38.9857 24.9071C40.85 26.7768 41.9964 29.2571 41.9911 31.8982C41.9911 37.3518 37.4429 41.7875 31.9946 41.7875ZM37.4161 34.3839C37.1214 34.2339 35.6589 33.5161 35.3857 33.4196C35.1125 33.3179 34.9143 33.2696 34.7161 33.5696C34.5179 33.8696 33.95 34.5339 33.7732 34.7375C33.6018 34.9357 33.425 34.9625 33.1304 34.8125C31.3839 33.9393 30.2375 33.2536 29.0857 31.2768C28.7804 30.7518 29.3911 30.7893 29.9589 29.6536C30.0554 29.4554 30.0071 29.2839 29.9321 29.1339C29.8571 28.9839 29.2625 27.5214 29.0161 26.9268C28.775 26.3482 28.5286 26.4286 28.3464 26.4179C28.175 26.4071 27.9768 26.4071 27.7786 26.4071C27.5804 26.4071 27.2589 26.4821 26.9857 26.7768C26.7125 27.0768 25.9464 27.7946 25.9464 29.2571C25.9464 30.7196 27.0125 32.1339 27.1571 32.3321C27.3071 32.5304 29.2518 35.5304 32.2357 36.8214C34.1214 37.6357 34.8607 37.7054 35.8036 37.5661C36.3768 37.4804 37.5607 36.8482 37.8071 36.1518C38.0536 35.4554 38.0536 34.8607 37.9786 34.7375C37.9089 34.6036 37.7107 34.5286 37.4161 34.3839Z" fill="#31BE44"/>
</svg>
