<svg width="64" height="87" viewBox="0 0 64 87" fill="none" xmlns="http://www.w3.org/2000/svg">
<path d="M4.70023 76.644V79.572H8.91224V80.604H4.70023V84H3.50023V75.6H9.42823V76.644H4.70023ZM13.0428 77.58C13.9228 77.58 14.5948 77.796 15.0588 78.228C15.5308 78.66 15.7668 79.304 15.7668 80.16V84H14.6748V83.16C14.4828 83.456 14.2068 83.684 13.8468 83.844C13.4948 83.996 13.0748 84.072 12.5868 84.072C11.8748 84.072 11.3028 83.9 10.8708 83.556C10.4468 83.212 10.2348 82.76 10.2348 82.2C10.2348 81.64 10.4388 81.192 10.8468 80.856C11.2548 80.512 11.9028 80.34 12.7908 80.34H14.6148V80.112C14.6148 79.616 14.4708 79.236 14.1828 78.972C13.8948 78.708 13.4708 78.576 12.9108 78.576C12.5348 78.576 12.1668 78.64 11.8068 78.768C11.4468 78.888 11.1428 79.052 10.8948 79.26L10.4148 78.396C10.7428 78.132 11.1348 77.932 11.5908 77.796C12.0468 77.652 12.5308 77.58 13.0428 77.58ZM12.7788 83.184C13.2188 83.184 13.5988 83.088 13.9188 82.896C14.2388 82.696 14.4708 82.416 14.6148 82.056V81.168H12.8388C11.8628 81.168 11.3748 81.496 11.3748 82.152C11.3748 82.472 11.4988 82.724 11.7468 82.908C11.9948 83.092 12.3388 83.184 12.7788 83.184ZM20.7058 84.072C20.0578 84.072 19.4778 83.932 18.9658 83.652C18.4618 83.372 18.0658 82.988 17.7778 82.5C17.4898 82.004 17.3458 81.444 17.3458 80.82C17.3458 80.196 17.4898 79.64 17.7778 79.152C18.0658 78.656 18.4618 78.272 18.9658 78C19.4778 77.72 20.0578 77.58 20.7058 77.58C21.2818 77.58 21.7938 77.696 22.2418 77.928C22.6978 78.16 23.0498 78.496 23.2978 78.936L22.4218 79.5C22.2218 79.196 21.9738 78.968 21.6778 78.816C21.3818 78.664 21.0538 78.588 20.6938 78.588C20.2778 78.588 19.9018 78.68 19.5658 78.864C19.2378 79.048 18.9778 79.312 18.7858 79.656C18.6018 79.992 18.5098 80.38 18.5098 80.82C18.5098 81.268 18.6018 81.664 18.7858 82.008C18.9778 82.344 19.2378 82.604 19.5658 82.788C19.9018 82.972 20.2778 83.064 20.6938 83.064C21.0538 83.064 21.3818 82.988 21.6778 82.836C21.9738 82.684 22.2218 82.456 22.4218 82.152L23.2978 82.704C23.0498 83.144 22.6978 83.484 22.2418 83.724C21.7938 83.956 21.2818 84.072 20.7058 84.072ZM30.4435 80.856C30.4435 80.944 30.4355 81.06 30.4195 81.204H25.2595C25.3315 81.764 25.5755 82.216 25.9915 82.56C26.4155 82.896 26.9395 83.064 27.5635 83.064C28.3235 83.064 28.9355 82.808 29.3995 82.296L30.0355 83.04C29.7475 83.376 29.3875 83.632 28.9555 83.808C28.5315 83.984 28.0555 84.072 27.5275 84.072C26.8555 84.072 26.2595 83.936 25.7395 83.664C25.2195 83.384 24.8155 82.996 24.5275 82.5C24.2475 82.004 24.1075 81.444 24.1075 80.82C24.1075 80.204 24.2435 79.648 24.5155 79.152C24.7955 78.656 25.1755 78.272 25.6555 78C26.1435 77.72 26.6915 77.58 27.2995 77.58C27.9075 77.58 28.4475 77.72 28.9195 78C29.3995 78.272 29.7715 78.656 30.0355 79.152C30.3075 79.648 30.4435 80.216 30.4435 80.856ZM27.2995 78.552C26.7475 78.552 26.2835 78.72 25.9075 79.056C25.5395 79.392 25.3235 79.832 25.2595 80.376H29.3395C29.2755 79.84 29.0555 79.404 28.6795 79.068C28.3115 78.724 27.8515 78.552 27.2995 78.552ZM35.4152 77.58C36.0312 77.58 36.5832 77.716 37.0712 77.988C37.5592 78.26 37.9392 78.64 38.2112 79.128C38.4912 79.616 38.6312 80.18 38.6312 80.82C38.6312 81.46 38.4912 82.028 38.2112 82.524C37.9392 83.012 37.5592 83.392 37.0712 83.664C36.5832 83.936 36.0312 84.072 35.4152 84.072C34.9432 84.072 34.5112 83.98 34.1192 83.796C33.7272 83.612 33.4032 83.344 33.1472 82.992V84H32.0432V75.096H33.1952V78.6C33.4512 78.264 33.7712 78.012 34.1552 77.844C34.5392 77.668 34.9592 77.58 35.4152 77.58ZM35.3192 83.064C35.7272 83.064 36.0912 82.972 36.4112 82.788C36.7392 82.596 36.9952 82.332 37.1792 81.996C37.3712 81.652 37.4672 81.26 37.4672 80.82C37.4672 80.38 37.3712 79.992 37.1792 79.656C36.9952 79.312 36.7392 79.048 36.4112 78.864C36.0912 78.68 35.7272 78.588 35.3192 78.588C34.9192 78.588 34.5552 78.68 34.2272 78.864C33.8992 79.048 33.6432 79.312 33.4592 79.656C33.2752 79.992 33.1832 80.38 33.1832 80.82C33.1832 81.26 33.2752 81.652 33.4592 81.996C33.6432 82.332 33.8992 82.596 34.2272 82.788C34.5552 82.972 34.9192 83.064 35.3192 83.064ZM42.9469 84.072C42.3149 84.072 41.7469 83.932 41.2429 83.652C40.7389 83.372 40.3429 82.988 40.0549 82.5C39.7749 82.004 39.6349 81.444 39.6349 80.82C39.6349 80.196 39.7749 79.64 40.0549 79.152C40.3429 78.656 40.7389 78.272 41.2429 78C41.7469 77.72 42.3149 77.58 42.9469 77.58C43.5789 77.58 44.1429 77.72 44.6389 78C45.1429 78.272 45.5349 78.656 45.8149 79.152C46.1029 79.64 46.2469 80.196 46.2469 80.82C46.2469 81.444 46.1029 82.004 45.8149 82.5C45.5349 82.988 45.1429 83.372 44.6389 83.652C44.1429 83.932 43.5789 84.072 42.9469 84.072ZM42.9469 83.064C43.3549 83.064 43.7189 82.972 44.0389 82.788C44.3669 82.596 44.6229 82.332 44.8069 81.996C44.9909 81.652 45.0829 81.26 45.0829 80.82C45.0829 80.38 44.9909 79.992 44.8069 79.656C44.6229 79.312 44.3669 79.048 44.0389 78.864C43.7189 78.68 43.3549 78.588 42.9469 78.588C42.5389 78.588 42.1709 78.68 41.8429 78.864C41.5229 79.048 41.2669 79.312 41.0749 79.656C40.8909 79.992 40.7989 80.38 40.7989 80.82C40.7989 81.26 40.8909 81.652 41.0749 81.996C41.2669 82.332 41.5229 82.596 41.8429 82.788C42.1709 82.972 42.5389 83.064 42.9469 83.064ZM50.564 84.072C49.932 84.072 49.364 83.932 48.86 83.652C48.356 83.372 47.96 82.988 47.672 82.5C47.392 82.004 47.252 81.444 47.252 80.82C47.252 80.196 47.392 79.64 47.672 79.152C47.96 78.656 48.356 78.272 48.86 78C49.364 77.72 49.932 77.58 50.564 77.58C51.196 77.58 51.76 77.72 52.256 78C52.76 78.272 53.152 78.656 53.432 79.152C53.72 79.64 53.864 80.196 53.864 80.82C53.864 81.444 53.72 82.004 53.432 82.5C53.152 82.988 52.76 83.372 52.256 83.652C51.76 83.932 51.196 84.072 50.564 84.072ZM50.564 83.064C50.972 83.064 51.336 82.972 51.656 82.788C51.984 82.596 52.24 82.332 52.424 81.996C52.608 81.652 52.7 81.26 52.7 80.82C52.7 80.38 52.608 79.992 52.424 79.656C52.24 79.312 51.984 79.048 51.656 78.864C51.336 78.68 50.972 78.588 50.564 78.588C50.156 78.588 49.788 78.68 49.46 78.864C49.14 79.048 48.884 79.312 48.692 79.656C48.508 79.992 48.416 80.38 48.416 80.82C48.416 81.26 48.508 81.652 48.692 81.996C48.884 82.332 49.14 82.596 49.46 82.788C49.788 82.972 50.156 83.064 50.564 83.064ZM57.9292 81.036L56.6092 82.26V84H55.4572V75.096H56.6092V80.808L60.0772 77.64H61.4692L58.7932 80.268L61.7332 84H60.3172L57.9292 81.036Z" fill="#1877F2"/>
<circle cx="32" cy="32" r="32" fill="#1877F2" fill-opacity="0.08"/>
<path d="M38.0117 33.5L38.6783 29.1566H34.5106V26.338C34.5106 25.1497 35.0928 23.9914 36.9594 23.9914H38.8541V20.2934C38.8541 20.2934 37.1347 20 35.4908 20C32.0586 20 29.8152 22.0803 29.8152 25.8463V29.1566H26V33.5H29.8152V44H34.5106V33.5H38.0117Z" fill="#1877F2"/>
</svg>
