<svg width="64" height="87" viewBox="0 0 64 87" fill="none" xmlns="http://www.w3.org/2000/svg">
<circle cx="32" cy="32" r="32" fill="#1DA1F2" fill-opacity="0.08"/>
<path d="M13.1116 76.644H10.2316V75.6H17.1796V76.644H14.2996V84H13.1116V76.644ZM27.5441 77.64L25.1681 84H24.0641L22.2281 79.176L20.3681 84H19.2641L16.9001 77.64H17.9921L19.8401 82.704L21.7601 77.64H22.7321L24.6161 82.728L26.5121 77.64H27.5441ZM28.7131 77.64H29.8651V84H28.7131V77.64ZM29.2891 76.416C29.0651 76.416 28.8771 76.344 28.7251 76.2C28.5811 76.056 28.5091 75.88 28.5091 75.672C28.5091 75.464 28.5811 75.288 28.7251 75.144C28.8771 74.992 29.0651 74.916 29.2891 74.916C29.5131 74.916 29.6971 74.988 29.8411 75.132C29.9931 75.268 30.0691 75.44 30.0691 75.648C30.0691 75.864 29.9931 76.048 29.8411 76.2C29.6971 76.344 29.5131 76.416 29.2891 76.416ZM35.6407 83.628C35.4727 83.772 35.2647 83.884 35.0167 83.964C34.7687 84.036 34.5127 84.072 34.2487 84.072C33.6087 84.072 33.1127 83.9 32.7607 83.556C32.4087 83.212 32.2327 82.72 32.2327 82.08V78.588H31.1527V77.64H32.2327V76.248H33.3847V77.64H35.2087V78.588H33.3847V82.032C33.3847 82.376 33.4687 82.64 33.6367 82.824C33.8127 83.008 34.0607 83.1 34.3807 83.1C34.7327 83.1 35.0327 83 35.2807 82.8L35.6407 83.628ZM40.4571 83.628C40.2891 83.772 40.0811 83.884 39.8331 83.964C39.5851 84.036 39.3291 84.072 39.0651 84.072C38.4251 84.072 37.9291 83.9 37.5771 83.556C37.2251 83.212 37.0491 82.72 37.0491 82.08V78.588H35.9691V77.64H37.0491V76.248H38.2011V77.64H40.0251V78.588H38.2011V82.032C38.2011 82.376 38.2851 82.64 38.4531 82.824C38.6291 83.008 38.8771 83.1 39.1971 83.1C39.5491 83.1 39.8491 83 40.0971 82.8L40.4571 83.628ZM47.3869 80.856C47.3869 80.944 47.3789 81.06 47.3629 81.204H42.2029C42.2749 81.764 42.5189 82.216 42.9349 82.56C43.3589 82.896 43.8829 83.064 44.5069 83.064C45.2669 83.064 45.8789 82.808 46.3429 82.296L46.9789 83.04C46.6909 83.376 46.3309 83.632 45.8989 83.808C45.4749 83.984 44.9989 84.072 44.4709 84.072C43.7989 84.072 43.2029 83.936 42.6829 83.664C42.1629 83.384 41.7589 82.996 41.4709 82.5C41.1909 82.004 41.0509 81.444 41.0509 80.82C41.0509 80.204 41.1869 79.648 41.4589 79.152C41.7389 78.656 42.1189 78.272 42.5989 78C43.0869 77.72 43.6349 77.58 44.2429 77.58C44.8509 77.58 45.3909 77.72 45.8629 78C46.3429 78.272 46.7149 78.656 46.9789 79.152C47.2509 79.648 47.3869 80.216 47.3869 80.856ZM44.2429 78.552C43.6909 78.552 43.2269 78.72 42.8509 79.056C42.4829 79.392 42.2669 79.832 42.2029 80.376H46.2829C46.2189 79.84 45.9989 79.404 45.6229 79.068C45.2549 78.724 44.7949 78.552 44.2429 78.552ZM50.0905 78.708C50.2905 78.34 50.5865 78.06 50.9785 77.868C51.3705 77.676 51.8465 77.58 52.4065 77.58V78.696C52.3425 78.688 52.2545 78.684 52.1425 78.684C51.5185 78.684 51.0265 78.872 50.6665 79.248C50.3145 79.616 50.1385 80.144 50.1385 80.832V84H48.9865V77.64H50.0905V78.708Z" fill="#1DA1F2"/>
<path d="M41.5331 26.8579C41.5483 27.0711 41.5483 27.2843 41.5483 27.4975C41.5483 34 36.5991 41.4924 27.5533 41.4924C24.7665 41.4924 22.1777 40.6853 20 39.2843C20.396 39.33 20.7766 39.3452 21.1878 39.3452C23.4873 39.3452 25.6041 38.5686 27.2944 37.2437C25.132 37.198 23.3198 35.7818 22.6954 33.8325C23 33.8782 23.3046 33.9086 23.6244 33.9086C24.066 33.9086 24.5077 33.8477 24.9188 33.7412C22.665 33.2843 20.9746 31.3046 20.9746 28.9137V28.8528C21.6294 29.2183 22.3909 29.4467 23.1979 29.4772C21.873 28.5939 21.0051 27.0863 21.0051 25.3807C21.0051 24.467 21.2487 23.6294 21.6751 22.8985C24.0964 25.8832 27.736 27.8324 31.8172 28.0457C31.7411 27.6802 31.6954 27.2995 31.6954 26.9188C31.6954 24.2081 33.8883 22 36.6142 22C38.0304 22 39.3096 22.5939 40.2081 23.5533C41.3198 23.3401 42.3858 22.9289 43.33 22.3655C42.9644 23.5076 42.1878 24.467 41.1675 25.0761C42.1574 24.9696 43.1168 24.6954 44 24.3147C43.3301 25.2893 42.4924 26.1573 41.5331 26.8579Z" fill="#1DA1F2"/>
</svg>
