<svg width="310" height="204" viewBox="0 0 310 204" fill="none" xmlns="http://www.w3.org/2000/svg">
<path d="M265.726 35.3774C264.207 35.1142 262.323 34.7067 261.136 33.6983C259.69 32.4696 259.048 30.4856 258.461 28.5034C258.405 28.3125 258.13 28.3323 258.102 28.5293C257.862 30.1688 257.542 32.1396 256.665 33.4069C255.549 35.0191 253.705 35.7784 251.884 36.3728C251.694 36.4356 251.712 36.692 251.91 36.7269C253.56 37.0132 255.456 37.4147 256.705 38.5681C258.007 39.7712 258.638 41.7581 259.185 43.6002C259.242 43.791 259.516 43.7713 259.545 43.5743C259.804 41.7883 260.318 39.7436 261.324 38.4114C262.417 36.9647 264.059 36.2843 265.752 35.7315C265.942 35.6688 265.924 35.4123 265.726 35.3774Z" fill="#2148C0" fill-opacity="0.85"/>
<path d="M61.3754 158.266C59.6905 157.974 57.601 157.523 56.2844 156.404C54.6803 155.041 53.9682 152.841 53.3181 150.643C53.2554 150.431 52.9511 150.453 52.919 150.671C52.6529 152.49 52.2986 154.675 51.3253 156.081C50.0875 157.869 48.0429 158.711 46.0233 159.37C45.8123 159.44 45.8327 159.724 46.0516 159.763C47.882 160.081 49.985 160.526 51.3701 161.805C52.814 163.14 53.5138 165.343 54.1209 167.386C54.1839 167.598 54.4882 167.576 54.52 167.357C54.8071 165.377 55.3772 163.109 56.4935 161.631C57.7054 160.027 59.5263 159.272 61.4037 158.659C61.6148 158.59 61.5943 158.305 61.3754 158.266Z" fill="#2148C0" fill-opacity="0.85"/>
<path d="M308.819 91.0212C306.757 90.6639 304.2 90.1109 302.589 88.7424C300.626 87.0748 299.755 84.3823 298.959 81.6921C298.883 81.4331 298.51 81.4599 298.471 81.7272C298.145 83.9522 297.712 86.6269 296.521 88.3469C295.006 90.5349 292.504 91.5653 290.033 92.372C289.775 92.4572 289.8 92.8052 290.068 92.8526C292.307 93.2412 294.881 93.7861 296.576 95.3514C298.343 96.9841 299.199 99.6807 299.942 102.181C300.019 102.44 300.391 102.413 300.43 102.146C300.781 99.7217 301.479 96.9467 302.845 95.1387C304.328 93.1754 306.556 92.2519 308.853 91.5018C309.112 91.4166 309.087 91.0686 308.819 91.0212Z" fill="#2148C0" fill-opacity="0.85"/>
<path d="M47.3751 29.1029C45.5728 28.7906 43.3377 28.3072 41.9293 27.1108C40.2134 25.6531 39.4518 23.2994 38.7563 20.9477C38.6892 20.7213 38.3637 20.7447 38.3294 20.9784C38.0447 22.9235 37.6657 25.2616 36.6247 26.7651C35.3006 28.6778 33.1135 29.5785 30.9532 30.2838C30.7274 30.3582 30.7493 30.6624 30.9834 30.7038C32.9414 31.0436 35.191 31.5199 36.6726 32.8883C38.2171 34.3155 38.9656 36.6728 39.6151 38.8581C39.6824 39.0845 40.008 39.0611 40.0419 38.8274C40.3491 36.7086 40.9589 34.2828 42.153 32.7023C43.4494 30.986 45.3972 30.1787 47.4053 29.523C47.6311 29.4485 47.6093 29.1443 47.3751 29.1029Z" fill="#2148C0" fill-opacity="0.85"/>
<path d="M112.106 193.825C110.526 193.551 108.567 193.128 107.333 192.079C105.829 190.802 105.161 188.739 104.551 186.677C104.493 186.479 104.207 186.499 104.177 186.704C103.928 188.409 103.596 190.458 102.683 191.776C101.523 193.453 99.6057 194.242 97.7122 194.86C97.5143 194.926 97.5335 195.192 97.7387 195.228C99.4548 195.526 101.427 195.944 102.725 197.143C104.079 198.394 104.735 200.46 105.304 202.376C105.363 202.574 105.649 202.553 105.678 202.349C105.947 200.491 106.482 198.365 107.529 196.98C108.665 195.476 110.372 194.768 112.132 194.193C112.33 194.128 112.311 193.862 112.106 193.825Z" fill="#2148C0" fill-opacity="0.85"/>
<path d="M235.396 4.56989C234.393 4.41546 233.15 4.17471 232.369 3.56572C231.418 2.82367 231.002 1.61911 230.622 0.415413C230.585 0.29951 230.404 0.312553 230.384 0.432515C230.219 1.43084 230.001 2.63102 229.416 3.40534C228.673 4.3904 227.452 4.85926 226.246 5.22778C226.12 5.26669 226.132 5.42261 226.262 5.4431C227.351 5.61106 228.603 5.84816 229.423 6.54513C230.279 7.27208 230.688 8.47849 231.043 9.59706C231.08 9.71295 231.261 9.69991 231.281 9.57996C231.459 8.49246 231.806 7.24657 232.476 6.4323C233.203 5.54805 234.291 5.12787 235.411 4.78521C235.537 4.7463 235.526 4.59037 235.396 4.56989Z" fill="#2148C0" fill-opacity="0.85"/>
<path d="M276.078 164.253C273.448 163.806 270.188 163.114 268.135 161.396C265.633 159.301 264.525 155.916 263.514 152.534C263.416 152.209 262.941 152.243 262.891 152.579C262.473 155.378 261.916 158.742 260.395 160.906C258.46 163.66 255.267 164.959 252.114 165.976C251.784 166.084 251.816 166.521 252.157 166.581C255.014 167.066 258.296 167.748 260.456 169.714C262.707 171.765 263.796 175.155 264.74 178.298C264.838 178.623 265.313 178.589 265.363 178.253C265.814 175.205 266.708 171.714 268.453 169.439C270.347 166.968 273.19 165.804 276.121 164.857C276.451 164.75 276.419 164.312 276.078 164.253Z" fill="#2148C0" fill-opacity="0.85"/>
<path d="M30.4618 95.5527C27.2753 95.0114 23.3239 94.1728 20.8357 92.0897C17.804 89.5516 16.4615 85.4497 15.2359 81.3513C15.1178 80.9567 14.542 80.9981 14.481 81.4056C13.9741 84.7969 13.2997 88.8736 11.4561 91.4966C9.11124 94.8334 5.24215 96.4076 1.42084 97.6409C1.02148 97.7712 1.05961 98.3015 1.4735 98.3732C4.93517 98.9619 8.91225 99.7882 11.5298 102.171C14.2583 104.656 15.5776 108.764 16.7221 112.573C16.8409 112.968 17.4166 112.926 17.477 112.519C18.0239 108.824 19.1068 104.594 21.2211 101.837C23.5166 98.8426 26.9623 97.4317 30.5145 96.285C30.914 96.1547 30.8758 95.6245 30.4618 95.5527Z" fill="#2148C0" fill-opacity="0.85"/>
<circle cx="154.492" cy="94.045" r="85.3939" fill="#2148C0" fill-opacity="0.1"/>
<g clip-path="url(#clip0_10_9122)">
<path d="M139.543 128.657L108.482 97.5958C106.616 95.7297 106.616 92.704 108.482 90.8377L115.24 84.0796C117.106 82.2133 120.132 82.2133 121.998 84.0796L142.922 105.004L187.74 60.1862C189.606 58.3201 192.632 58.3201 194.498 60.1862L201.256 66.9443C203.122 68.8104 203.122 71.8361 201.256 73.7024L146.301 128.657C144.435 130.524 141.409 130.524 139.543 128.657Z" fill="#2148C0"/>
</g>
<defs>
<clipPath id="clip0_10_9122">
<rect width="95.5737" height="95.5737" fill="white" transform="translate(107.082 46.635)"/>
</clipPath>
</defs>
</svg>
